Epistle-Regular.ufo
<glyph name="quotedbl" format="2">
  <advance width="408"/>
  <unicode hex="0022"/>
  <outline>
    <contour>
      <point x="276" y="414" type="line"/>
      <point x="253" y="559" type="line"/>
      <point x="246" y="608" type="line"/>
      <point x="242" y="650" type="line" smooth="yes"/>
      <point x="242" y="680"/>
      <point x="262" y="700"/>
      <point x="292" y="700" type="curve" smooth="yes"/>
      <point x="322" y="700"/>
      <point x="342" y="680"/>
      <point x="342" y="650" type="curve" smooth="yes"/>
      <point x="338" y="608" type="line"/>
      <point x="331" y="559" type="line"/>
      <point x="308" y="414" type="line"/>
    </contour>
    <contour>
      <point x="100" y="414" type="line"/>
      <point x="76" y="559" type="line"/>
      <point x="69" y="608" type="line"/>
      <point x="66" y="650" type="line" smooth="yes"/>
      <point x="66" y="680"/>
      <point x="85" y="700"/>
      <point x="115" y="700" type="curve" smooth="yes"/>
      <point x="145" y="700"/>
      <point x="165" y="680"/>
      <point x="165" y="650" type="curve" smooth="yes"/>
      <point x="161" y="608" type="line"/>
      <point x="154" y="559" type="line"/>
      <point x="131" y="414" type="line"/>
    </contour>
  </outline>
</glyph>
<glyph name="numbersign" format="2">
  <advance width="705"/>
  <unicode hex="0023"/>
  <outline>
    <contour>
      <point x="283" y="408" type="line"/>
      <point x="248" y="258" type="line"/>
      <point x="404" y="258" type="line"/>
      <point x="438" y="408" type="line"/>
    </contour>
    <contour>
      <point x="100" y="488" type="line"/>
      <point x="217" y="488" type="line"/>
      <point x="259" y="682" type="line"/>
      <point x="338" y="682" type="line"/>
      <point x="297" y="488" type="line"/>
      <point x="452" y="488" type="line"/>
      <point x="493" y="682" type="line"/>
      <point x="573" y="682" type="line"/>
      <point x="532" y="488" type="line"/>
      <point x="665" y="488" type="line"/>
      <point x="645" y="408" type="line"/>
      <point x="518" y="408" type="line"/>
      <point x="484" y="257" type="line"/>
      <point x="625" y="257" type="line"/>
      <point x="605" y="177" type="line"/>
      <point x="469" y="177" type="line"/>
      <point x="428" y="-16" type="line"/>
      <point x="348" y="-16" type="line"/>
      <point x="389" y="177" type="line"/>
      <point x="232" y="177" type="line"/>
      <point x="193" y="-16" type="line"/>
      <point x="112" y="-16" type="line"/>
      <point x="153" y="177" type="line"/>
      <point x="40" y="177" type="line"/>
      <point x="60" y="257" type="line"/>
      <point x="168" y="257" type="line"/>
      <point x="203" y="408" type="line"/>
      <point x="80" y="408" type="line"/>
    </contour>
  </outline>
</glyph>
<glyph name="dollar" format="2">
  <advance width="606"/>
  <unicode hex="0024"/>
  <outline>
    <contour>
      <point x="505" y="641" type="curve"/>
      <point x="505" y="494" type="line"/>
      <point x="461" y="494" type="line"/>
      <point x="435.559" y="610.44"/>
      <point x="381.287" y="660"/>
      <point x="288" y="660" type="curve" smooth="yes"/>
      <point x="203.802" y="660"/>
      <point x="154" y="623.8"/>
      <point x="154" y="556" type="curve" smooth="yes"/>
      <point x="154" y="487.087"/>
      <point x="243.261" y="439.085"/>
      <point x="340" y="408" type="curve" smooth="yes"/>
      <point x="446.659" y="373.728"/>
      <point x="554" y="326.781"/>
      <point x="554" y="200" type="curve" smooth="yes"/>
      <point x="554" y="78.3941"/>
      <point x="472.371" y="-1.86028"/>
      <point x="341" y="-13.5278" type="curve"/>
      <point x="341" y="-128" type="line"/>
      <point x="271" y="-128" type="line"/>
      <point x="271" y="-14.3715" type="line"/>
      <point x="167.309" y="-10.5407"/>
      <point x="125.369" y="10.4843"/>
      <point x="70" y="40" type="curve"/>
      <point x="70" y="230" type="line"/>
      <point x="117" y="230" type="line"/>
      <point x="133.838" y="113.143"/>
      <point x="195.974" y="40"/>
      <point x="297" y="40" type="curve" smooth="yes"/>
      <point x="388.591" y="40"/>
      <point x="454" y="96.5098"/>
      <point x="454" y="163" type="curve" smooth="yes"/>
      <point x="454" y="231.382"/>
      <point x="384.68" y="267.738"/>
      <point x="294" y="296" type="curve" smooth="yes"/>
      <point x="200.771" y="325.056"/>
      <point x="50" y="389.378"/>
      <point x="50" y="525" type="curve" smooth="yes"/>
      <point x="50" y="636.351"/>
      <point x="139.591" y="709.881"/>
      <point x="271" y="714.743" type="curve"/>
      <point x="271" y="829" type="line"/>
      <point x="341" y="829" type="line"/>
      <point x="341" y="710.948" type="line"/>
      <point x="403.54" y="701.683"/>
      <point x="458.132" y="676.943"/>
    </contour>
  </outline>
</glyph>
<glyph name="percent" format="2">
  <advance width="906"/>
  <unicode hex="0025"/>
  <outline>
    <contour>
      <point x="747" y="160" type="curve" smooth="yes"/>
      <point x="747" y="265.972"/>
      <point x="727" y="312"/>
      <point x="682" y="312" type="curve" smooth="yes"/>
      <point x="639" y="312"/>
      <point x="618" y="264.812"/>
      <point x="618" y="164" type="curve" smooth="yes"/>
      <point x="618" y="65.1855"/>
      <point x="639" y="19"/>
      <point x="683" y="19" type="curve" smooth="yes"/>
      <point x="726" y="19"/>
      <point x="747" y="66.3584"/>
    </contour>
    <contour>
      <point x="536" y="162" type="curve" smooth="yes"/>
      <point x="536" y="266"/>
      <point x="598" y="343"/>
      <point x="683" y="343" type="curve" smooth="yes"/>
      <point x="767" y="343"/>
      <point x="829" y="268"/>
      <point x="829" y="165" type="curve" smooth="yes"/>
      <point x="829" y="64"/>
      <point x="767" y="-12"/>
      <point x="683" y="-12" type="curve" smooth="yes"/>
      <point x="598" y="-12"/>
      <point x="536" y="61"/>
    </contour>
    <contour>
      <point x="263" y="-31" type="line"/>
      <point x="191" y="-31" type="line"/>
      <point x="653" y="694" type="line"/>
      <point x="724" y="694" type="line"/>
    </contour>
    <contour>
      <point x="76" y="513" type="curve" smooth="yes"/>
      <point x="76" y="617"/>
      <point x="138" y="694"/>
      <point x="223" y="694" type="curve" smooth="yes"/>
      <point x="307" y="694"/>
      <point x="369" y="619"/>
      <point x="369" y="516" type="curve" smooth="yes"/>
      <point x="369" y="415"/>
      <point x="307" y="339"/>
      <point x="223" y="339" type="curve" smooth="yes"/>
      <point x="138" y="339"/>
      <point x="76" y="412"/>
    </contour>
    <contour>
      <point x="287" y="511" type="curve" smooth="yes"/>
      <point x="287" y="616.972"/>
      <point x="267" y="663"/>
      <point x="222" y="663" type="curve" smooth="yes"/>
      <point x="179" y="663"/>
      <point x="158" y="615.812"/>
      <point x="158" y="515" type="curve" smooth="yes"/>
      <point x="158" y="416.186"/>
      <point x="179" y="370"/>
      <point x="223" y="370" type="curve" smooth="yes"/>
      <point x="266" y="370"/>
      <point x="287" y="417.358"/>
    </contour>
  </outline>
</glyph>
<glyph name="quotesingle" format="2">
  <advance width="259"/>
  <unicode hex="0027"/>
  <outline>
    <contour>
      <point x="114" y="414" type="line"/>
      <point x="90" y="559" type="line"/>
      <point x="83" y="608" type="line"/>
      <point x="80" y="650" type="line" smooth="yes"/>
      <point x="80" y="680"/>
      <point x="99" y="700"/>
      <point x="129" y="700" type="curve" smooth="yes"/>
      <point x="159" y="700"/>
      <point x="179" y="680"/>
      <point x="179" y="650" type="curve" smooth="yes"/>
      <point x="175" y="608" type="line"/>
      <point x="168" y="559" type="line"/>
      <point x="145" y="414" type="line"/>
    </contour>
  </outline>
</glyph>
<glyph name="parenleft" format="2">
  <advance width="385"/>
  <unicode hex="0028"/>
  <outline>
    <contour>
      <point x="370" y="-147" type="curve"/>
      <point x="349" y="-185" type="line"/>
      <point x="184.804" y="-90"/>
      <point x="85" y="64"/>
      <point x="85" y="255" type="curve" smooth="yes"/>
      <point x="85" y="446"/>
      <point x="184.804" y="600"/>
      <point x="349" y="695" type="curve"/>
      <point x="370" y="657" type="line"/>
      <point x="272.725" y="574"/>
      <point x="188" y="437"/>
      <point x="188" y="255" type="curve" smooth="yes"/>
      <point x="188" y="73"/>
      <point x="272.725" y="-64"/>
    </contour>
  </outline>
</glyph>
<glyph name="parenright" format="2">
  <advance width="385"/>
  <unicode hex="0029"/>
  <outline>
    <contour>
      <point x="15" y="657" type="curve"/>
      <point x="36" y="695" type="line"/>
      <point x="200.196" y="600"/>
      <point x="300" y="446"/>
      <point x="300" y="255" type="curve" smooth="yes"/>
      <point x="300" y="64"/>
      <point x="200.196" y="-90"/>
      <point x="36" y="-185" type="curve"/>
      <point x="15" y="-147" type="line"/>
      <point x="111.755" y="-64"/>
      <point x="197" y="73"/>
      <point x="197" y="255" type="curve" smooth="yes"/>
      <point x="197" y="437"/>
      <point x="111.755" y="574"/>
    </contour>
  </outline>
</glyph>
<glyph name="slash" format="2">
  <advance width="338"/>
  <unicode hex="002F"/>
  <outline>
    <contour>
      <point x="328" y="715" type="line"/>
      <point x="-342.0" y="-79.0" type="line"/>
      <point x="-396.0" y="-79.0" type="line"/>
      <point x="274" y="715" type="line"/>
    </contour>
  </outline>
</glyph>
<glyph name="one" format="2">
  <advance width="485"/>
  <unicode hex="0031"/>
  <outline>
    <contour>
      <point x="405" y="30" type="line"/>
      <point x="405" y="0" type="line"/>
      <point x="80" y="0" type="line"/>
      <point x="80" y="30" type="line"/>
      <point x="160" y="50" type="line" smooth="yes"/>
      <point x="180" y="55"/>
      <point x="190" y="70"/>
      <point x="190" y="90" type="curve" smooth="yes"/>
      <point x="190" y="100" type="line"/>
      <point x="190" y="531" type="line" smooth="yes"/>
      <point x="190" y="585"/>
      <point x="169" y="613"/>
      <point x="111" y="613" type="curve" smooth="yes"/>
      <point x="94" y="613" type="line"/>
      <point x="94" y="649" type="line"/>
      <point x="167.205" y="649"/>
      <point x="209.478" y="662"/>
      <point x="260" y="700" type="curve"/>
      <point x="295" y="700" type="line"/>
      <point x="295" y="100" type="line"/>
      <point x="295" y="90" type="line" smooth="yes"/>
      <point x="295" y="70"/>
      <point x="305" y="55"/>
      <point x="325" y="50" type="curve" smooth="yes"/>
    </contour>
  </outline>
</glyph>
<glyph name="three" format="2">
  <advance width="561"/>
  <unicode hex="0033"/>
  <outline>
    <contour>
      <point x="183" y="329" type="curve"/>
      <point x="166.999" y="362" type="line"/>
      <point x="298.72" y="432"/>
      <point x="362.999" y="467"/>
      <point x="362.999" y="542" type="curve" smooth="yes"/>
      <point x="362.999" y="589.662"/>
      <point x="321.746" y="628"/>
      <point x="265.999" y="628" type="curve" smooth="yes"/>
      <point x="191.979" y="628"/>
      <point x="140.387" y="594.399"/>
      <point x="86" y="515" type="curve"/>
      <point x="58" y="537" type="line"/>
      <point x="122" y="656"/>
      <point x="193.542" y="700"/>
      <point x="295" y="700" type="curve" smooth="yes"/>
      <point x="388.053" y="700"/>
      <point x="473" y="646.059"/>
      <point x="473" y="569" type="curve" smooth="yes"/>
      <point x="473" y="508"/>
      <point x="433.848" y="468"/>
      <point x="333" y="422" type="curve"/>
      <point x="335" y="420" type="line"/>
      <point x="447" y="420"/>
      <point x="521" y="353.573"/>
      <point x="521" y="251" type="curve" smooth="yes"/>
      <point x="521" y="90.0518"/>
      <point x="387.252" y="-15"/>
      <point x="229" y="-15" type="curve" smooth="yes"/>
      <point x="158.868" y="-15"/>
      <point x="82.792" y="3"/>
      <point x="40" y="30" type="curve"/>
      <point x="60" y="59" type="line"/>
      <point x="111.902" y="36"/>
      <point x="147.585" y="28"/>
      <point x="193" y="28" type="curve" smooth="yes"/>
      <point x="312.48" y="28"/>
      <point x="411" y="94.4863"/>
      <point x="411" y="228" type="curve" smooth="yes"/>
      <point x="411" y="308.992"/>
      <point x="356.652" y="367"/>
      <point x="286" y="367" type="curve" smooth="yes"/>
      <point x="255" y="367"/>
      <point x="220" y="354"/>
    </contour>
  </outline>
</glyph>
<glyph name="six" format="2">
  <advance width="593"/>
  <unicode hex="0036"/>
  <outline>
    <contour>
      <point x="150" y="333" type="curve"/>
      <point x="150" y="169.787"/>
      <point x="207.022" y="31"/>
      <point x="308" y="31" type="curve" smooth="yes"/>
      <point x="381.637" y="31"/>
      <point x="443" y="97.1113"/>
      <point x="443" y="225" type="curve" smooth="yes"/>
      <point x="443" y="342.983"/>
      <point x="385.782" y="422"/>
      <point x="303" y="422" type="curve" smooth="yes"/>
      <point x="244.43" y="422"/>
      <point x="202.594" y="397"/>
    </contour>
    <contour>
      <point x="452" y="700" type="curve"/>
      <point x="452" y="665" type="line"/>
      <point x="302.362" y="659.883"/>
      <point x="180.03" y="567.773"/>
      <point x="156" y="403" type="curve"/>
      <point x="158" y="401" type="line"/>
      <point x="215.112" y="454"/>
      <point x="271.06" y="472"/>
      <point x="334" y="472" type="curve" smooth="yes"/>
      <point x="460.725" y="472"/>
      <point x="553" y="375.571"/>
      <point x="553" y="247" type="curve" smooth="yes"/>
      <point x="553" y="103.115"/>
      <point x="442.418" y="-15"/>
      <point x="309" y="-15" type="curve" smooth="yes"/>
      <point x="187.254" y="-15"/>
      <point x="40" y="89.6602"/>
      <point x="40" y="309" type="curve" smooth="yes"/>
      <point x="40" y="536.491"/>
      <point x="231.628" y="700"/>
    </contour>
  </outline>
</glyph>
<glyph name="eight" format="2">
  <advance width="570"/>
  <unicode hex="0038"/>
  <outline>
    <contour>
      <point x="249" y="326" type="curve"/>
      <point x="185" y="295.792"/>
      <point x="150" y="244.438"/>
      <point x="150" y="181" type="curve" smooth="yes"/>
      <point x="150" y="88.917"/>
      <point x="210" y="25"/>
      <point x="297" y="25" type="curve" smooth="yes"/>
      <point x="378" y="25"/>
      <point x="435" y="80.042"/>
      <point x="435" y="156" type="curve" smooth="yes"/>
      <point x="435" y="238.485"/>
      <point x="368" y="275.704"/>
    </contour>
    <contour>
      <point x="329" y="397" type="curve"/>
      <point x="388" y="426.793"/>
      <point x="417" y="468.725"/>
      <point x="417" y="525" type="curve" smooth="yes"/>
      <point x="417" y="601.363"/>
      <point x="361" y="657"/>
      <point x="284" y="657" type="curve" smooth="yes"/>
      <point x="218" y="657"/>
      <point x="167" y="609.174"/>
      <point x="167" y="548" type="curve" smooth="yes"/>
      <point x="167" y="457.835"/>
      <point x="259" y="432.849"/>
    </contour>
    <contour>
      <point x="213" y="344" type="curve"/>
      <point x="105.286" y="393.407"/>
      <point x="57" y="444.963"/>
      <point x="57" y="518" type="curve" smooth="yes"/>
      <point x="57" y="618.047"/>
      <point x="162.529" y="700"/>
      <point x="291" y="700" type="curve" smooth="yes"/>
      <point x="414.271" y="700"/>
      <point x="512" y="626.135"/>
      <point x="512" y="533" type="curve" smooth="yes"/>
      <point x="512" y="465.761"/>
      <point x="467.203" y="418.042"/>
      <point x="367" y="379" type="curve"/>
      <point x="475.667" y="332.759"/>
      <point x="530" y="267.419"/>
      <point x="530" y="187" type="curve" smooth="yes"/>
      <point x="530" y="69.9414"/>
      <point x="430.959" y="-12"/>
      <point x="289" y="-12" type="curve" smooth="yes"/>
      <point x="147.861" y="-12"/>
      <point x="40" y="68.2021"/>
      <point x="40" y="173" type="curve" smooth="yes"/>
      <point x="40" y="251.459"/>
      <point x="109.937" y="307.788"/>
    </contour>
  </outline>
</glyph>
<glyph name="nine" format="2">
  <advance width="583"/>
  <unicode hex="0039"/>
  <outline>
    <contour>
      <point x="433" y="359" type="curve"/>
      <point x="433" y="537.581"/>
      <point x="369.604" y="657"/>
      <point x="282" y="657" type="curve" smooth="yes"/>
      <point x="204.214" y="657"/>
      <point x="150" y="590.48"/>
      <point x="150" y="468" type="curve" smooth="yes"/>
      <point x="150" y="350.506"/>
      <point x="205.174" y="270"/>
      <point x="285" y="270" type="curve" smooth="yes"/>
      <point x="341.656" y="270"/>
      <point x="391.375" y="299"/>
    </contour>
    <contour>
      <point x="100" y="-15" type="curve"/>
      <point x="100" y="23" type="line"/>
      <point x="273.866" y="33.3926"/>
      <point x="394.607" y="116.529"/>
      <point x="426" y="288" type="curve"/>
      <point x="424" y="290" type="line"/>
      <point x="365.066" y="240"/>
      <point x="315.2" y="220"/>
      <point x="254" y="220" type="curve" smooth="yes"/>
      <point x="130.169" y="220"/>
      <point x="40" y="316.857"/>
      <point x="40" y="446" type="curve" smooth="yes"/>
      <point x="40" y="584.451"/>
      <point x="148.315" y="700"/>
      <point x="279" y="700" type="curve" smooth="yes"/>
      <point x="395.069" y="700"/>
      <point x="543" y="601.986"/>
      <point x="543" y="382" type="curve" smooth="yes"/>
      <point x="543" y="181.433"/>
      <point x="365.8" y="-13.9658"/>
    </contour>
  </outline>
</glyph>
<glyph name="semicolon" format="2">
  <advance width="328"/>
  <unicode hex="003B"/>
  <outline>
    <contour>
      <point x="149" y="467" type="curve" smooth="yes"/>
      <point x="187.58" y="467"/>
      <point x="219" y="436.737"/>
      <point x="219" y="398.5" type="curve" smooth="yes"/>
      <point x="219" y="360.287"/>
      <point x="187.58" y="328"/>
      <point x="149" y="328" type="curve" smooth="yes"/>
      <point x="110.568" y="328"/>
      <point x="80" y="360.287"/>
      <point x="80" y="398.5" type="curve" smooth="yes"/>
      <point x="80" y="436.737"/>
      <point x="110.568" y="467"/>
    </contour>
    <contour>
      <point x="48" y="-160" type="curve"/>
      <point x="48" y="-123" type="line"/>
      <point x="136.373" y="-114.274"/>
      <point x="189" y="-89.8428"/>
      <point x="189" y="-34" type="curve" smooth="yes"/>
      <point x="189" y="-24.3447"/>
      <point x="187.975" y="-16.2504"/>
      <point x="185.711" y="-9.65016" type="curve"/>
      <point x="174.92" y="-16.3094"/>
      <point x="162.456" y="-20"/>
      <point x="149.5" y="-20" type="curve" smooth="yes"/>
      <point x="106.353" y="-20"/>
      <point x="68" y="11.5"/>
      <point x="68" y="56.5" type="curve" smooth="yes"/>
      <point x="68" y="83.6294"/>
      <point x="81.9395" y="105.852"/>
      <point x="102.465" y="119.224" type="curve" smooth="yes"/>
      <point x="114.195" y="128.134"/>
      <point x="130.067" y="133"/>
      <point x="149" y="133" type="curve" smooth="yes"/>
      <point x="149.088" y="133"/>
      <point x="149.176" y="133"/>
      <point x="149.264" y="133" type="curve" smooth="yes"/>
      <point x="149.342" y="133"/>
      <point x="149.421" y="133"/>
      <point x="149.5" y="133" type="curve" smooth="yes"/>
      <point x="150.096" y="133"/>
      <point x="150.691" y="132.992"/>
      <point x="151.285" y="132.977" type="curve" smooth="yes"/>
      <point x="215.455" y="131.659"/>
      <point x="248" y="74.7276"/>
      <point x="248" y="0" type="curve" smooth="yes"/>
      <point x="248" y="-99.7646"/>
      <point x="175" y="-158.117"/>
    </contour>
  </outline>
</glyph>
<glyph name="equal" format="2">
  <advance width="667"/>
  <unicode hex="003D"/>
  <outline>
    <contour>
      <point x="66" y="244" type="line"/>
      <point x="601" y="244" type="line"/>
      <point x="601" y="172" type="line"/>
      <point x="66" y="172" type="line"/>
    </contour>
    <contour>
      <point x="66" y="480" type="line"/>
      <point x="601" y="480" type="line"/>
      <point x="601" y="408" type="line"/>
      <point x="66" y="408" type="line"/>
    </contour>
  </outline>
</glyph>
<glyph name="greater" format="2">
  <advance width="594"/>
  <unicode hex="003E"/>
  <outline>
    <contour>
      <point x="40" y="555" type="line"/>
      <point x="514" y="330" type="line"/>
      <point x="514" y="261" type="line"/>
      <point x="40" y="37" type="line"/>
      <point x="40" y="120" type="line"/>
      <point x="410" y="295" type="line"/>
      <point x="40" y="471" type="line"/>
    </contour>
  </outline>
</glyph>
<glyph name="question" format="2">
  <advance width="385"/>
  <unicode hex="003F"/>
  <outline>
    <contour>
      <point x="148" y="220" type="curve"/>
      <point x="108" y="220" type="line"/>
      <point x="108" y="315"/>
      <point x="93" y="348"/>
      <point x="93" y="369" type="curve" smooth="yes"/>
      <point x="93" y="377"/>
      <point x="94" y="382"/>
      <point x="99" y="387" type="curve" smooth="yes"/>
      <point x="116.213" y="404"/>
      <point x="210.375" y="403"/>
      <point x="261" y="453" type="curve" smooth="yes"/>
      <point x="279" y="471"/>
      <point x="291" y="495"/>
      <point x="291" y="518" type="curve" smooth="yes"/>
      <point x="291" y="587.754"/>
      <point x="219" y="670"/>
      <point x="158" y="670" type="curve" smooth="yes"/>
      <point x="122" y="670"/>
      <point x="107" y="648"/>
      <point x="77" y="648" type="curve" smooth="yes"/>
      <point x="52" y="648"/>
      <point x="35" y="665"/>
      <point x="35" y="689" type="curve" smooth="yes"/>
      <point x="35" y="726"/>
      <point x="70" y="750"/>
      <point x="123" y="750" type="curve" smooth="yes"/>
      <point x="263" y="750"/>
      <point x="354" y="536.355"/>
      <point x="354" y="474" type="curve" smooth="yes"/>
      <point x="354" y="437"/>
      <point x="343" y="404"/>
      <point x="316" y="377" type="curve" smooth="yes"/>
      <point x="263.702" y="324"/>
      <point x="200.55" y="326"/>
      <point x="167" y="292" type="curve" smooth="yes"/>
      <point x="153" y="278"/>
      <point x="149" y="252"/>
    </contour>
    <contour>
      <point x="129" y="119" type="curve" smooth="yes"/>
      <point x="167.58" y="119"/>
      <point x="199" y="88.7373"/>
      <point x="199" y="50.5" type="curve" smooth="yes"/>
      <point x="199" y="12.2871"/>
      <point x="167.58" y="-20"/>
      <point x="129" y="-20" type="curve" smooth="yes"/>
      <point x="90.5684" y="-20"/>
      <point x="60" y="12.2871"/>
      <point x="60" y="50.5" type="curve" smooth="yes"/>
      <point x="60" y="88.7373"/>
      <point x="90.5684" y="119"/>
    </contour>
  </outline>
</glyph>
<glyph name="A" format="2">
  <advance width="780"/>
  <unicode hex="0041"/>
  <anchor x="380" y="810" name="Anchor1"/>
  <anchor x="380" y="810" name="Anchor-1"/>
  <outline>
    <contour>
      <point x="545" y="100" type="curve" smooth="yes"/>
      <point x="475" y="290" type="line"/>
      <point x="235" y="290" type="line"/>
      <point x="167" y="100" type="line" smooth="yes"/>
      <point x="160" y="80"/>
      <point x="175" y="56"/>
      <point x="195" y="50" type="curve" smooth="yes"/>
      <point x="260" y="30" type="line"/>
      <point x="260" y="0" type="line"/>
      <point x="0" y="0" type="line"/>
      <point x="0" y="30" type="line"/>
      <point x="70" y="50" type="line" smooth="yes"/>
      <point x="85" y="54"/>
      <point x="94" y="70"/>
      <point x="102" y="90" type="curve" smooth="yes"/>
      <point x="340" y="700" type="line"/>
      <point x="435" y="700" type="line"/>
      <point x="678" y="90" type="line" smooth="yes"/>
      <point x="686" y="70"/>
      <point x="690" y="56"/>
      <point x="710" y="50" type="curve" smooth="yes"/>
      <point x="780" y="30" type="line"/>
      <point x="780" y="0" type="line"/>
      <point x="455" y="0" type="line"/>
      <point x="455" y="30" type="line"/>
      <point x="520" y="50" type="line" smooth="yes"/>
      <point x="540" y="56"/>
      <point x="552" y="80"/>
    </contour>
    <contour>
      <point x="355" y="620" type="line"/>
      <point x="250" y="335" type="line"/>
      <point x="460" y="335" type="line"/>
    </contour>
  </outline>
</glyph>
<glyph name="B" format="2">
  <advance width="700"/>
  <unicode hex="0042"/>
  <outline>
    <contour>
      <point x="370" y="384" type="line" smooth="yes"/>
      <point x="472" y="384"/>
      <point x="510" y="444.726"/>
      <point x="510" y="520" type="curve" smooth="yes"/>
      <point x="510" y="618"/>
      <point x="460" y="660"/>
      <point x="350" y="660" type="curve" smooth="yes"/>
      <point x="300" y="660" type="line" smooth="yes"/>
      <point x="280" y="660"/>
      <point x="260" y="650"/>
      <point x="260" y="620" type="curve" smooth="yes"/>
      <point x="260" y="384" type="line"/>
    </contour>
    <contour>
      <point x="260" y="344" type="line"/>
      <point x="260" y="80" type="line" smooth="yes"/>
      <point x="260" y="50"/>
      <point x="280" y="40"/>
      <point x="300" y="40" type="curve" smooth="yes"/>
      <point x="380" y="40" type="line" smooth="yes"/>
      <point x="490" y="40"/>
      <point x="540" y="85"/>
      <point x="540" y="190" type="curve" smooth="yes"/>
      <point x="540" y="270.721"/>
      <point x="483" y="344"/>
      <point x="370" y="344" type="curve" smooth="yes"/>
    </contour>
    <contour>
      <point x="506" y="359.276" type="curve"/>
      <point x="506" y="356" type="line"/>
      <point x="599" y="343.505"/>
      <point x="660" y="268.622"/>
      <point x="660" y="190" type="curve" smooth="yes"/>
      <point x="660" y="67.0586"/>
      <point x="600" y="0"/>
      <point x="410" y="0" type="curve" smooth="yes"/>
      <point x="40" y="0" type="line"/>
      <point x="40" y="30" type="line"/>
      <point x="120" y="50" type="line" smooth="yes"/>
      <point x="140" y="55"/>
      <point x="150" y="70"/>
      <point x="150" y="90" type="curve" smooth="yes"/>
      <point x="150" y="610" type="line" smooth="yes"/>
      <point x="150" y="630"/>
      <point x="140" y="645"/>
      <point x="120" y="650" type="curve" smooth="yes"/>
      <point x="40" y="670" type="line"/>
      <point x="40" y="700" type="line"/>
      <point x="380" y="700" type="line" smooth="yes"/>
      <point x="570" y="700"/>
      <point x="630" y="636.471"/>
      <point x="630" y="520" type="curve" smooth="yes"/>
      <point x="630" y="438.66"/>
      <point x="594.745" y="379.728"/>
    </contour>
  </outline>
</glyph>
<glyph name="E" format="2">
  <advance width="690"/>
  <unicode hex="0045"/>
  <anchor x="340" y="810" name="Anchor1"/>
  <anchor x="340" y="810" name="Anchor-1"/>
  <outline>
    <contour>
      <point x="490" y="230" type="line"/>
      <point x="460" y="230" type="line"/>
      <point x="440" y="290" type="line" smooth="yes"/>
      <point x="427" y="330"/>
      <point x="390" y="340"/>
      <point x="340" y="340" type="curve" smooth="yes"/>
      <point x="260" y="340" type="line"/>
      <point x="260" y="90" type="line" smooth="yes"/>
      <point x="260" y="60"/>
      <point x="280" y="50"/>
      <point x="300" y="50" type="curve" smooth="yes"/>
      <point x="450" y="50" type="line" smooth="yes"/>
      <point x="510" y="50"/>
      <point x="540" y="70"/>
      <point x="570" y="130" type="curve" smooth="yes"/>
      <point x="610" y="210" type="line"/>
      <point x="650" y="210" type="line"/>
      <point x="620" y="0" type="line"/>
      <point x="40" y="0" type="line"/>
      <point x="40" y="30" type="line"/>
      <point x="120" y="50" type="line" smooth="yes"/>
      <point x="140" y="55"/>
      <point x="150" y="70"/>
      <point x="150" y="90" type="curve" smooth="yes"/>
      <point x="150" y="610" type="line" smooth="yes"/>
      <point x="150" y="630"/>
      <point x="140" y="645"/>
      <point x="120" y="650" type="curve" smooth="yes"/>
      <point x="40" y="670" type="line"/>
      <point x="40" y="700" type="line"/>
      <point x="600" y="700" type="line"/>
      <point x="600" y="510" type="line"/>
      <point x="560" y="510" type="line"/>
      <point x="520" y="590" type="line" smooth="yes"/>
      <point x="495" y="640"/>
      <point x="460" y="650"/>
      <point x="400" y="650" type="curve" smooth="yes"/>
      <point x="300" y="650" type="line" smooth="yes"/>
      <point x="280" y="650"/>
      <point x="260" y="640"/>
      <point x="260" y="610" type="curve" smooth="yes"/>
      <point x="260" y="380" type="line"/>
      <point x="340" y="380" type="line" smooth="yes"/>
      <point x="390" y="380"/>
      <point x="427" y="390"/>
      <point x="440" y="430" type="curve" smooth="yes"/>
      <point x="460" y="490" type="line"/>
      <point x="490" y="490" type="line"/>
    </contour>
  </outline>
</glyph>
<glyph name="N" format="2">
  <advance width="820"/>
  <unicode hex="004E"/>
  <outline>
    <contour>
      <point x="310" y="30" type="line"/>
      <point x="310" y="0" type="line"/>
      <point x="40" y="0" type="line"/>
      <point x="40" y="30" type="line"/>
      <point x="120" y="50" type="line" smooth="yes"/>
      <point x="140" y="55"/>
      <point x="150" y="70"/>
      <point x="150" y="90" type="curve" smooth="yes"/>
      <point x="150" y="588" type="line" smooth="yes"/>
      <point x="150" y="608"/>
      <point x="137.252" y="618.942"/>
      <point x="120" y="628" type="curve" smooth="yes"/>
      <point x="40" y="670" type="line"/>
      <point x="40" y="700" type="line"/>
      <point x="200" y="700" type="line"/>
      <point x="620" y="172.766" type="line"/>
      <point x="620" y="610" type="line" smooth="yes"/>
      <point x="620" y="630"/>
      <point x="610" y="645"/>
      <point x="590" y="650" type="curve" smooth="yes"/>
      <point x="510" y="670" type="line"/>
      <point x="510" y="700" type="line"/>
      <point x="780" y="700" type="line"/>
      <point x="780" y="670" type="line"/>
      <point x="700" y="650" type="line" smooth="yes"/>
      <point x="680" y="645"/>
      <point x="670" y="630"/>
      <point x="670" y="610" type="curve" smooth="yes"/>
      <point x="670" y="110" type="line" smooth="yes"/>
      <point x="670" y="66"/>
      <point x="673" y="30"/>
      <point x="680" y="0" type="curve"/>
      <point x="620" y="0" type="line"/>
      <point x="200" y="527.234" type="line"/>
      <point x="200" y="90" type="line" smooth="yes"/>
      <point x="200" y="70"/>
      <point x="210" y="55"/>
      <point x="230" y="50" type="curve" smooth="yes"/>
    </contour>
  </outline>
</glyph>
<glyph name="V" format="2">
  <advance width="785"/>
  <unicode hex="0056"/>
  <outline>
    <contour>
      <point x="320" y="700" type="line"/>
      <point x="320" y="670" type="line"/>
      <point x="280" y="650" type="line" smooth="yes"/>
      <point x="257.507" y="638.754"/>
      <point x="242" y="620"/>
      <point x="242" y="610" type="curve" smooth="yes"/>
      <point x="430" y="154" type="line"/>
      <point x="608" y="610" type="line"/>
      <point x="607" y="627"/>
      <point x="598" y="644"/>
      <point x="580" y="650" type="curve" smooth="yes"/>
      <point x="510" y="670" type="line"/>
      <point x="510" y="700" type="line"/>
      <point x="745" y="700" type="line"/>
      <point x="745" y="670" type="line"/>
      <point x="700" y="650" type="line" smooth="yes"/>
      <point x="679" y="641"/>
      <point x="670" y="615"/>
      <point x="661" y="593" type="curve" smooth="yes"/>
      <point x="416" y="-15" type="line"/>
      <point x="373" y="-15" type="line"/>
      <point x="115" y="610" type="line" smooth="yes"/>
      <point x="106" y="628"/>
      <point x="97" y="640"/>
      <point x="80" y="650" type="curve" smooth="yes"/>
      <point x="40" y="670" type="line"/>
      <point x="40" y="700" type="line"/>
    </contour>
  </outline>
</glyph>
<glyph name="W" format="2">
  <advance width="1085"/>
  <unicode hex="0057"/>
  <outline>
    <contour>
      <point x="40.001" y="700.002" type="line"/>
      <point x="289.001" y="700.002" type="line"/>
      <point x="289.001" y="670.002" type="line"/>
      <point x="262.001" y="650.002" type="line" smooth="yes"/>
      <point x="248.854" y="640.264"/>
      <point x="241.001" y="627.896"/>
      <point x="241.001" y="617.002" type="curve" smooth="yes"/>
      <point x="241.001" y="615.002"/>
      <point x="241.313" y="612.231"/>
      <point x="242.001" y="610.002" type="curve" smooth="yes"/>
      <point x="438.001" y="112.002" type="line"/>
      <point x="542.165" y="323.731" type="line"/>
      <point x="413" y="610.001" type="line" smooth="yes"/>
      <point x="404.899" y="627.955"/>
      <point x="393.096" y="644.64"/>
      <point x="376" y="655" type="curve" smooth="yes"/>
      <point x="346" y="670" type="line"/>
      <point x="346" y="700" type="line"/>
      <point x="588.001" y="700.002" type="line"/>
      <point x="588.001" y="670.002" type="line"/>
      <point x="555.001" y="650.002" type="line" smooth="yes"/>
      <point x="540.366" y="641.038"/>
      <point x="536.829" y="621.411"/>
      <point x="541.001" y="610.002" type="curve" smooth="yes"/>
      <point x="605.518" y="452.505" type="line"/>
      <point x="683.001" y="610.002" type="line"/>
      <point x="682.274" y="627.861"/>
      <point x="664.001" y="646.002"/>
      <point x="649.001" y="654.002" type="curve" smooth="yes"/>
      <point x="615.001" y="670.002" type="line"/>
      <point x="615.001" y="700.002" type="line"/>
      <point x="803.001" y="700.002" type="line"/>
      <point x="803.001" y="670.002" type="line"/>
      <point x="768.001" y="650.002" type="line" smooth="yes"/>
      <point x="757.084" y="641.937"/>
      <point x="741.001" y="614.002"/>
      <point x="730.001" y="593.002" type="curve" smooth="yes"/>
      <point x="629.646" y="393.604" type="line"/>
      <point x="745.001" y="112.002" type="line"/>
      <point x="924.001" y="610.002" type="line"/>
      <point x="923.258" y="626.406"/>
      <point x="913.891" y="643.232"/>
      <point x="896.001" y="650.002" type="curve" smooth="yes"/>
      <point x="845.001" y="670.002" type="line"/>
      <point x="845.001" y="700.002" type="line"/>
      <point x="1045" y="700.002" type="line"/>
      <point x="1045" y="670.002" type="line"/>
      <point x="1018" y="653.002" type="line"/>
      <point x="1004.03" y="639.439"/>
      <point x="993.714" y="616.096"/>
      <point x="984" y="593.001" type="curve" smooth="yes"/>
      <point x="739" y="-14.999" type="line"/>
      <point x="695" y="-14.999" type="line"/>
      <point x="566.895" y="268.922" type="line"/>
      <point x="424.001" y="-14.998" type="line"/>
      <point x="380.001" y="-14.998" type="line"/>
      <point x="115.001" y="610.002" type="line" smooth="yes"/>
      <point x="105.001" y="628.002"/>
      <point x="96.001" y="642.002"/>
      <point x="80.001" y="650.002" type="curve" smooth="yes"/>
      <point x="40.001" y="670.002" type="line"/>
    </contour>
  </outline>
</glyph>
<glyph name="Y" format="2">
  <advance width="680"/>
  <unicode hex="0059"/>
  <anchor x="410" y="810" name="Anchor1"/>
  <anchor x="355" y="810" name="Anchor-1"/>
  <outline>
    <contour>
      <point x="285" y="700" type="line"/>
      <point x="285" y="670" type="line"/>
      <point x="225" y="650"/>
      <point x="215" y="640"/>
      <point x="215" y="620" type="curve" smooth="yes"/>
      <point x="215" y="610"/>
      <point x="227" y="589"/>
      <point x="255" y="540" type="curve" smooth="yes"/>
      <point x="375" y="330" type="line" smooth="yes"/>
      <point x="503" y="540" type="line" smooth="yes"/>
      <point x="533" y="589"/>
      <point x="540" y="610"/>
      <point x="540" y="620" type="curve" smooth="yes"/>
      <point x="540" y="630"/>
      <point x="535" y="650"/>
      <point x="465" y="670" type="curve"/>
      <point x="465" y="700" type="line"/>
      <point x="695" y="700" type="line"/>
      <point x="695" y="670" type="line"/>
      <point x="620" y="650"/>
      <point x="605" y="616"/>
      <point x="591" y="593" type="curve" smooth="yes"/>
      <point x="395" y="270" type="line" smooth="yes"/>
      <point x="395" y="100" type="line" smooth="yes"/>
      <point x="395" y="65"/>
      <point x="406" y="55"/>
      <point x="505" y="30" type="curve"/>
      <point x="505" y="0" type="line"/>
      <point x="175" y="0" type="line"/>
      <point x="175" y="30" type="line"/>
      <point x="275" y="55"/>
      <point x="285" y="65"/>
      <point x="285" y="100" type="curve" smooth="yes"/>
      <point x="285" y="270" type="line" smooth="yes"/>
      <point x="120" y="550" type="line" smooth="yes"/>
      <point x="79" y="620"/>
      <point x="55" y="650"/>
      <point x="-15" y="670" type="curve"/>
      <point x="-15" y="700" type="line"/>
    </contour>
  </outline>
</glyph>
<glyph name="backslash" format="2">
  <advance width="368"/>
  <unicode hex="005C"/>
  <outline>
    <contour>
      <point x="40" y="699" type="line"/>
      <point x="94" y="699" type="line"/>
      <point x="328" y="-12" type="line"/>
      <point x="273" y="-12" type="line"/>
    </contour>
  </outline>
</glyph>
<glyph name="bracketright" format="2">
  <advance width="375"/>
  <unicode hex="005D"/>
  <outline>
    <contour>
      <point x="175" y="683" type="line" smooth="yes"/>
      <point x="175" y="743"/>
      <point x="156" y="761"/>
      <point x="97" y="761" type="curve" smooth="yes"/>
      <point x="40" y="761" type="line"/>
      <point x="40" y="800" type="line"/>
      <point x="209" y="800" type="line" smooth="yes"/>
      <point x="239" y="800"/>
      <point x="259" y="780"/>
      <point x="259" y="750" type="curve" smooth="yes"/>
      <point x="259" y="-60" type="line" smooth="yes"/>
      <point x="259" y="-90"/>
      <point x="239" y="-110"/>
      <point x="209" y="-110" type="curve" smooth="yes"/>
      <point x="40" y="-110" type="line"/>
      <point x="40" y="-71" type="line"/>
      <point x="97" y="-71" type="line" smooth="yes"/>
      <point x="156" y="-71"/>
      <point x="175" y="-53"/>
      <point x="175" y="7" type="curve" smooth="yes"/>
    </contour>
  </outline>
</glyph>
<glyph name="asciicircum" format="2">
  <advance width="469"/>
  <unicode hex="005E"/>
  <outline>
    <contour>
      <point x="254" y="700" type="line"/>
      <point x="449" y="380" type="line"/>
      <point x="387" y="380" type="line"/>
      <point x="235" y="628" type="line"/>
      <point x="82" y="380" type="line"/>
      <point x="20" y="380" type="line"/>
      <point x="217" y="700" type="line"/>
    </contour>
  </outline>
</glyph>
<glyph name="underscore" format="2">
  <advance width="500"/>
  <unicode hex="005F"/>
  <outline>
    <contour>
      <point x="506" y="-130" type="line"/>
      <point x="-6" y="-130" type="line"/>
      <point x="-6" y="-60" type="line"/>
      <point x="506" y="-60" type="line"/>
    </contour>
  </outline>
</glyph>
<glyph name="grave" format="2">
  <advance width="290"/>
  <unicode hex="0060"/>
  <outline>
    <contour>
      <point x="60" y="750" type="line"/>
      <point x="180" y="750" type="line"/>
      <point x="230" y="580" type="line"/>
      <point x="200" y="580" type="line"/>
    </contour>
  </outline>
</glyph>
<glyph name="a" format="2">
  <advance width="510"/>
  <unicode hex="0061"/>
  <anchor x="230" y="580" name="Anchor1"/>
  <anchor x="230" y="580" name="Anchor-1"/>
  <outline>
    <contour>
      <point x="336" y="-15"/>
      <point x="310" y="15"/>
      <point x="310" y="75" type="curve" smooth="yes"/>
      <point x="310" y="365" type="line" smooth="yes"/>
      <point x="310" y="422"/>
      <point x="278" y="461"/>
      <point x="235" y="461" type="curve" smooth="yes"/>
      <point x="196" y="461"/>
      <point x="158" y="442"/>
      <point x="158" y="413" type="curve" smooth="yes"/>
      <point x="158" y="389"/>
      <point x="173" y="382"/>
      <point x="173" y="363" type="curve" smooth="yes"/>
      <point x="173" y="341"/>
      <point x="134" y="318"/>
      <point x="114" y="318" type="curve" smooth="yes"/>
      <point x="84" y="318"/>
      <point x="77" y="352"/>
      <point x="77" y="379" type="curve" smooth="yes"/>
      <point x="77" y="434"/>
      <point x="143" y="500"/>
      <point x="260" y="500" type="curve" smooth="yes"/>
      <point x="360" y="500"/>
      <point x="410" y="448"/>
      <point x="410" y="355" type="curve" smooth="yes"/>
      <point x="410" y="80" type="line" smooth="yes"/>
      <point x="410" y="55"/>
      <point x="420" y="50"/>
      <point x="430" y="50" type="curve" smooth="yes"/>
      <point x="440" y="50"/>
      <point x="447" y="52"/>
      <point x="455" y="60" type="curve"/>
      <point x="472" y="43" type="line"/>
      <point x="457" y="3"/>
      <point x="422" y="-15"/>
      <point x="396" y="-15" type="curve" smooth="yes"/>
    </contour>
    <contour>
      <point x="350" y="256" type="line"/>
      <point x="201" y="218"/>
      <point x="155" y="176"/>
      <point x="155" y="130" type="curve" smooth="yes"/>
      <point x="155" y="85"/>
      <point x="170" y="60"/>
      <point x="230" y="60" type="curve" smooth="yes"/>
      <point x="266" y="60"/>
      <point x="323" y="97"/>
      <point x="350" y="139" type="curve"/>
      <point x="350" y="97" type="line"/>
      <point x="321" y="30"/>
      <point x="238" y="-20"/>
      <point x="180" y="-20" type="curve" smooth="yes"/>
      <point x="100" y="-20"/>
      <point x="55" y="35"/>
      <point x="55" y="100" type="curve" smooth="yes"/>
      <point x="55" y="214"/>
      <point x="204" y="264"/>
      <point x="350" y="298" type="curve"/>
    </contour>
  </outline>
</glyph>
<glyph name="b" format="2">
  <advance width="575"/>
  <unicode hex="0062"/>
  <outline>
    <contour>
      <point x="170" y="750" type="line"/>
      <point x="170" y="420" type="line"/>
      <point x="180" y="420" type="line"/>
      <point x="210" y="460"/>
      <point x="255" y="500"/>
      <point x="330" y="500" type="curve" smooth="yes"/>
      <point x="480" y="500"/>
      <point x="535" y="380"/>
      <point x="535" y="250" type="curve" smooth="yes"/>
      <point x="535" y="110"/>
      <point x="450" y="-20"/>
      <point x="300" y="-20" type="curve" smooth="yes"/>
      <point x="240" y="-20"/>
      <point x="190" y="-5"/>
      <point x="150" y="20" type="curve"/>
      <point x="90" y="-10" type="line"/>
      <point x="70" y="0" type="line"/>
      <point x="70" y="650" type="line" smooth="yes"/>
      <point x="70" y="665"/>
      <point x="60" y="670"/>
      <point x="50" y="675" type="curve" smooth="yes"/>
      <point x="10" y="695" type="line"/>
      <point x="10" y="720" type="line"/>
      <point x="110" y="750" type="line"/>
    </contour>
    <contour>
      <point x="280" y="25" type="curve" smooth="yes"/>
      <point x="350" y="25"/>
      <point x="425" y="60"/>
      <point x="425" y="240" type="curve" smooth="yes"/>
      <point x="425" y="340"/>
      <point x="380" y="430"/>
      <point x="270" y="430" type="curve" smooth="yes"/>
      <point x="200" y="430"/>
      <point x="170" y="380"/>
      <point x="170" y="290" type="curve" smooth="yes"/>
      <point x="170" y="140" type="line" smooth="yes"/>
      <point x="170" y="90"/>
      <point x="190" y="25"/>
    </contour>
  </outline>
</glyph>
<glyph name="d" format="2">
  <advance width="585"/>
  <unicode hex="0064"/>
  <outline>
    <contour>
      <point x="295" y="455" type="curve" smooth="yes"/>
      <point x="225" y="455"/>
      <point x="149.999" y="420"/>
      <point x="149.999" y="240" type="curve" smooth="yes"/>
      <point x="149.999" y="140"/>
      <point x="194.999" y="50"/>
      <point x="304.999" y="50" type="curve" smooth="yes"/>
      <point x="374.999" y="50"/>
      <point x="409.999" y="110"/>
      <point x="409.999" y="240" type="curve" smooth="yes"/>
      <point x="409.999" y="340" type="line" smooth="yes"/>
      <point x="409.999" y="352.163"/>
      <point x="408.533" y="365.214"/>
      <point x="404.999" y="378" type="curve" smooth="yes"/>
      <point x="394.004" y="417.777"/>
      <point x="363.106" y="455"/>
    </contour>
    <contour>
      <point x="404.999" y="527" type="line"/>
      <point x="404.999" y="650" type="line" smooth="yes"/>
      <point x="404.999" y="665"/>
      <point x="394.999" y="670"/>
      <point x="384.999" y="675" type="curve" smooth="yes"/>
      <point x="344.999" y="695" type="line"/>
      <point x="344.999" y="720" type="line"/>
      <point x="444.999" y="750" type="line"/>
      <point x="504.999" y="750" type="line"/>
      <point x="504.999" y="527" type="line"/>
      <point x="504.999" y="78" type="line" smooth="yes"/>
      <point x="504.999" y="54.4248"/>
      <point x="524.999" y="37"/>
      <point x="560.999" y="37" type="curve"/>
      <point x="560.999" y="12" type="line"/>
      <point x="429.999" y="-15" type="line"/>
      <point x="404.999" y="-15" type="line"/>
      <point x="404.999" y="60" type="line"/>
      <point x="389.999" y="25"/>
      <point x="334.999" y="-20"/>
      <point x="264.999" y="-20" type="curve" smooth="yes"/>
      <point x="114.999" y="-20"/>
      <point x="39.999" y="100"/>
      <point x="39.999" y="230" type="curve" smooth="yes"/>
      <point x="39.999" y="370"/>
      <point x="124.999" y="500"/>
      <point x="274.999" y="500" type="curve" smooth="yes"/>
      <point x="321.909" y="500"/>
      <point x="366.619" y="488.997"/>
      <point x="404.999" y="475.25" type="curve"/>
    </contour>
  </outline>
</glyph>
<glyph name="f" format="2">
  <advance width="333"/>
  <unicode hex="0066"/>
  <outline>
    <contour>
      <point x="163" y="440" type="line"/>
      <point x="295" y="440" type="line"/>
      <point x="295" y="480" type="line"/>
      <point x="163" y="480" type="line"/>
    </contour>
    <contour>
      <point x="40" y="0" type="line"/>
      <point x="280" y="0" type="line"/>
      <point x="280" y="25" type="line"/>
      <point x="230" y="35"/>
      <point x="210" y="55"/>
      <point x="210" y="95" type="curve"/>
      <point x="210" y="550" type="line" smooth="yes"/>
      <point x="210" y="662"/>
      <point x="250" y="700"/>
      <point x="285" y="700" type="curve" smooth="yes"/>
      <point x="330" y="700"/>
      <point x="340" y="640"/>
      <point x="380" y="640" type="curve" smooth="yes"/>
      <point x="401" y="640"/>
      <point x="433" y="667"/>
      <point x="433" y="700" type="curve" smooth="yes"/>
      <point x="433" y="734"/>
      <point x="392" y="755"/>
      <point x="340" y="755" type="curve" smooth="yes"/>
      <point x="176" y="755"/>
      <point x="125" y="619"/>
      <point x="125" y="539" type="curve" smooth="yes"/>
      <point x="125" y="497"/>
      <point x="100" y="475"/>
      <point x="50" y="465" type="curve"/>
      <point x="50" y="440" type="line"/>
      <point x="110" y="440" type="line"/>
      <point x="110" y="95" type="line" smooth="yes"/>
      <point x="110" y="55"/>
      <point x="90" y="35"/>
      <point x="40" y="25" type="curve"/>
    </contour>
  </outline>
</glyph>
<glyph name="h" format="2">
  <advance width="576"/>
  <unicode hex="0068"/>
  <outline>
    <contour>
      <point x="142" y="387" type="line"/>
      <point x="142" y="440" type="line"/>
      <point x="218" y="440" type="line"/>
      <point x="181" y="426" type="line"/>
      <point x="229" y="458"/>
      <point x="286" y="490"/>
      <point x="344" y="490" type="curve" smooth="yes"/>
      <point x="450" y="490"/>
      <point x="494" y="440"/>
      <point x="494" y="320" type="curve" smooth="yes"/>
      <point x="494" y="95" type="line" smooth="yes"/>
      <point x="494" y="55"/>
      <point x="514" y="35"/>
      <point x="564" y="25" type="curve"/>
      <point x="564" y="0" type="line"/>
      <point x="324" y="0" type="line"/>
      <point x="324" y="25" type="line"/>
      <point x="374" y="35"/>
      <point x="394" y="55"/>
      <point x="394" y="95" type="curve" smooth="yes"/>
      <point x="394" y="330" type="line" smooth="yes"/>
      <point x="394" y="390"/>
      <point x="372" y="430"/>
      <point x="304" y="430" type="curve" smooth="yes"/>
      <point x="265" y="430"/>
      <point x="220" y="406"/>
      <point x="194" y="387" type="curve"/>
    </contour>
    <contour>
      <point x="24" y="0" type="line"/>
      <point x="24" y="25" type="line"/>
      <point x="74" y="35"/>
      <point x="94" y="55"/>
      <point x="94" y="95" type="curve" smooth="yes"/>
      <point x="94" y="660" type="line"/>
      <point x="34" y="690" type="line"/>
      <point x="34" y="710" type="line"/>
      <point x="160" y="750" type="line"/>
      <point x="190" y="740" type="line"/>
      <point x="190" y="440" type="line"/>
      <point x="194" y="387" type="line"/>
      <point x="194" y="95" type="line" smooth="yes"/>
      <point x="194" y="55"/>
      <point x="214" y="35"/>
      <point x="264" y="25" type="curve"/>
      <point x="264" y="0" type="line"/>
    </contour>
  </outline>
</glyph>
<glyph name="i" format="2">
  <advance width="288"/>
  <unicode hex="0069"/>
  <outline>
    <contour>
      <point x="144.0" y="634.0" type="curve" smooth="yes"/>
      <point x="104.0" y="634.0"/>
      <point x="78.0" y="664.0"/>
      <point x="78.0" y="700.0" type="curve" smooth="yes"/>
      <point x="78.0" y="736.0"/>
      <point x="104.0" y="766.0"/>
      <point x="144.0" y="766.0" type="curve" smooth="yes"/>
      <point x="184.0" y="766.0"/>
      <point x="210.0" y="736.0"/>
      <point x="210.0" y="700.0" type="curve" smooth="yes"/>
      <point x="210.0" y="664.0"/>
      <point x="184.0" y="634.0"/>
    </contour>
    <contour>
      <point x="268.0" y="0.0" type="line"/>
      <point x="28.0" y="0.0" type="line"/>
      <point x="28.0" y="24.0" type="line"/>
      <point x="78.0" y="36.0"/>
      <point x="98.0" y="56.0"/>
      <point x="98.0" y="96.0" type="curve" smooth="yes"/>
      <point x="98.0" y="400.0" type="line"/>
      <point x="38.0" y="430.0" type="line"/>
      <point x="38.0" y="450.0" type="line"/>
      <point x="168.0" y="500.0" type="line"/>
      <point x="198.0" y="490.0" type="line"/>
      <point x="198.0" y="96.0" type="line" smooth="yes"/>
      <point x="198.0" y="56.0"/>
      <point x="218.0" y="36.0"/>
      <point x="268.0" y="24.0" type="curve"/>
    </contour>
  </outline>
</glyph>
<glyph name="m" format="2">
  <advance width="880"/>
  <unicode hex="006D"/>
  <anchor x="474" y="377"/>
  <outline>
    <contour>
      <point x="142" y="387" type="line"/>
      <point x="142" y="440" type="line"/>
      <point x="218" y="440" type="line"/>
      <point x="181" y="426" type="line"/>
      <point x="229" y="458"/>
      <point x="286" y="490"/>
      <point x="344" y="490" type="curve" smooth="yes"/>
      <point x="450" y="490"/>
      <point x="494" y="440"/>
      <point x="494" y="320" type="curve" smooth="yes"/>
      <point x="494" y="95" type="line" smooth="yes"/>
      <point x="494" y="55"/>
      <point x="514" y="35"/>
      <point x="564" y="25" type="curve"/>
      <point x="564" y="0" type="line"/>
      <point x="324" y="0" type="line"/>
      <point x="324" y="25" type="line"/>
      <point x="374" y="35"/>
      <point x="394" y="55"/>
      <point x="394" y="95" type="curve" smooth="yes"/>
      <point x="394" y="330" type="line" smooth="yes"/>
      <point x="394" y="390"/>
      <point x="372" y="430"/>
      <point x="304" y="430" type="curve" smooth="yes"/>
      <point x="265" y="430"/>
      <point x="220" y="406"/>
      <point x="194" y="387" type="curve"/>
    </contour>
    <contour>
      <point x="24" y="0" type="line"/>
      <point x="24" y="25" type="line"/>
      <point x="74" y="35"/>
      <point x="94" y="55"/>
      <point x="94" y="95" type="curve" smooth="yes"/>
      <point x="94" y="410" type="line"/>
      <point x="34" y="440" type="line"/>
      <point x="34" y="460" type="line"/>
      <point x="160" y="500" type="line"/>
      <point x="190" y="490" type="line"/>
      <point x="190" y="440" type="line"/>
      <point x="194" y="387" type="line"/>
      <point x="194" y="95" type="line" smooth="yes"/>
      <point x="194" y="55"/>
      <point x="214" y="35"/>
      <point x="264" y="25" type="curve"/>
      <point x="264" y="0" type="line"/>
    </contour>
    <contour>
      <point x="442" y="377" type="line"/>
      <point x="442" y="435" type="line"/>
      <point x="518" y="435" type="line"/>
      <point x="451" y="416" type="line"/>
      <point x="499" y="448"/>
      <point x="586" y="490"/>
      <point x="644" y="490" type="curve" smooth="yes"/>
      <point x="750" y="490"/>
      <point x="794" y="440"/>
      <point x="794" y="320" type="curve" smooth="yes"/>
      <point x="794" y="95" type="line" smooth="yes"/>
      <point x="794" y="55"/>
      <point x="814" y="35"/>
      <point x="864" y="25" type="curve"/>
      <point x="864" y="0" type="line"/>
      <point x="624" y="0" type="line"/>
      <point x="624" y="25" type="line"/>
      <point x="674" y="35"/>
      <point x="694" y="55"/>
      <point x="694" y="95" type="curve" smooth="yes"/>
      <point x="694" y="330" type="line" smooth="yes"/>
      <point x="694" y="390"/>
      <point x="672" y="430"/>
      <point x="604" y="430" type="curve" smooth="yes"/>
      <point x="565" y="430"/>
      <point x="500" y="396"/>
      <point x="474" y="377" type="curve"/>
    </contour>
  </outline>
</glyph>
<glyph name="n" format="2">
  <advance width="590"/>
  <unicode hex="006E"/>
  <outline>
    <contour>
      <point x="142" y="387" type="line"/>
      <point x="142" y="440" type="line"/>
      <point x="218" y="440" type="line"/>
      <point x="181" y="426" type="line"/>
      <point x="229" y="458"/>
      <point x="286" y="490"/>
      <point x="344" y="490" type="curve" smooth="yes"/>
      <point x="450" y="490"/>
      <point x="494" y="440"/>
      <point x="494" y="320" type="curve" smooth="yes"/>
      <point x="494" y="95" type="line" smooth="yes"/>
      <point x="494" y="55"/>
      <point x="514" y="35"/>
      <point x="564" y="25" type="curve"/>
      <point x="564" y="0" type="line"/>
      <point x="324" y="0" type="line"/>
      <point x="324" y="25" type="line"/>
      <point x="374" y="35"/>
      <point x="394" y="55"/>
      <point x="394" y="95" type="curve" smooth="yes"/>
      <point x="394" y="330" type="line" smooth="yes"/>
      <point x="394" y="390"/>
      <point x="372" y="430"/>
      <point x="304" y="430" type="curve" smooth="yes"/>
      <point x="265" y="430"/>
      <point x="220" y="406"/>
      <point x="194" y="387" type="curve"/>
    </contour>
    <contour>
      <point x="24" y="0" type="line"/>
      <point x="24" y="25" type="line"/>
      <point x="74" y="35"/>
      <point x="94" y="55"/>
      <point x="94" y="95" type="curve" smooth="yes"/>
      <point x="94" y="410" type="line"/>
      <point x="34" y="440" type="line"/>
      <point x="34" y="460" type="line"/>
      <point x="160" y="500" type="line"/>
      <point x="190" y="490" type="line"/>
      <point x="190" y="440" type="line"/>
      <point x="194" y="387" type="line"/>
      <point x="194" y="95" type="line" smooth="yes"/>
      <point x="194" y="55"/>
      <point x="214" y="35"/>
      <point x="264" y="25" type="curve"/>
      <point x="264" y="0" type="line"/>
    </contour>
  </outline>
</glyph>
<glyph name="q" format="2">
  <advance width="585"/>
  <unicode hex="0071"/>
  <outline>
    <contour>
      <point x="295" y="455" type="curve" smooth="yes"/>
      <point x="225" y="455"/>
      <point x="149.999" y="420"/>
      <point x="149.999" y="240" type="curve" smooth="yes"/>
      <point x="149.999" y="140"/>
      <point x="194.999" y="50"/>
      <point x="304.999" y="50" type="curve" smooth="yes"/>
      <point x="374.999" y="50"/>
      <point x="409.999" y="110"/>
      <point x="409.999" y="240" type="curve" smooth="yes"/>
      <point x="409.999" y="340" type="line" smooth="yes"/>
      <point x="409.999" y="352.163"/>
      <point x="408.533" y="365.214"/>
      <point x="404.999" y="378" type="curve" smooth="yes"/>
      <point x="394.004" y="417.777"/>
      <point x="363.106" y="455"/>
    </contour>
    <contour>
      <point x="275" y="500" type="curve" smooth="yes"/>
      <point x="321.91" y="500"/>
      <point x="366.62" y="488.997"/>
      <point x="405" y="475.25" type="curve" smooth="yes"/>
      <point x="415" y="471.375" type="line"/>
      <point x="473" y="500" type="line"/>
      <point x="505" y="480" type="line"/>
      <point x="505" y="-120" type="line" smooth="yes"/>
      <point x="505" y="-160"/>
      <point x="525" y="-180"/>
      <point x="575" y="-190" type="curve"/>
      <point x="575" y="-220" type="line"/>
      <point x="335" y="-220" type="line"/>
      <point x="335" y="-190" type="line"/>
      <point x="385" y="-180"/>
      <point x="405" y="-160"/>
      <point x="405" y="-120" type="curve" smooth="yes"/>
      <point x="405" y="-20" type="line" smooth="yes"/>
      <point x="405" y="0"/>
      <point x="405" y="25"/>
      <point x="415" y="55" type="curve"/>
      <point x="405" y="60" type="line"/>
      <point x="390" y="25"/>
      <point x="335" y="-20"/>
      <point x="265" y="-20" type="curve" smooth="yes"/>
      <point x="115" y="-20"/>
      <point x="40" y="100"/>
      <point x="40" y="230" type="curve" smooth="yes"/>
      <point x="40" y="370"/>
      <point x="125" y="500"/>
    </contour>
  </outline>
</glyph>
<glyph name="r" format="2">
  <advance width="429"/>
  <unicode hex="0072"/>
  <outline>
    <contour>
      <point x="148" y="361" type="line"/>
      <point x="148" y="410" type="line"/>
      <point x="224" y="410" type="line"/>
      <point x="187" y="396" type="line"/>
      <point x="231" y="429"/>
      <point x="284" y="490"/>
      <point x="342" y="490" type="curve" smooth="yes"/>
      <point x="398.631" y="490"/>
      <point x="419" y="445"/>
      <point x="419" y="413" type="curve" smooth="yes"/>
      <point x="419" y="397.381"/>
      <point x="401" y="348"/>
      <point x="358" y="348" type="curve" smooth="yes"/>
      <point x="329.424" y="348"/>
      <point x="310.309" y="361.755"/>
      <point x="310.309" y="381" type="curve" smooth="yes"/>
      <point x="310.309" y="389.284"/>
      <point x="300.964" y="400"/>
      <point x="284" y="400" type="curve" smooth="yes"/>
      <point x="253" y="400"/>
      <point x="226" y="380"/>
      <point x="200" y="361" type="curve"/>
    </contour>
    <contour>
      <point x="30" y="0" type="line"/>
      <point x="30" y="25" type="line"/>
      <point x="80" y="35"/>
      <point x="100" y="55"/>
      <point x="100" y="95" type="curve" smooth="yes"/>
      <point x="100" y="395" type="line"/>
      <point x="40" y="425" type="line"/>
      <point x="40" y="445" type="line"/>
      <point x="166" y="500" type="line"/>
      <point x="196" y="490" type="line"/>
      <point x="196" y="410" type="line"/>
      <point x="200" y="361" type="line"/>
      <point x="200" y="95" type="line" smooth="yes"/>
      <point x="200" y="55"/>
      <point x="240" y="35"/>
      <point x="290" y="25" type="curve"/>
      <point x="290" y="0" type="line"/>
    </contour>
  </outline>
</glyph>
<glyph name="s" format="2">
  <advance width="463"/>
  <unicode hex="0073"/>
  <outline>
    <contour>
      <point x="382.76" y="449.5" type="curve"/>
      <point x="382.762" y="335.02" type="line"/>
      <point x="349.902" y="335.02" type="line"/>
      <point x="331.062" y="411.838"/>
      <point x="290.867" y="446"/>
      <point x="221.783" y="446" type="curve" smooth="yes"/>
      <point x="159.43" y="446"/>
      <point x="122.283" y="421.858"/>
      <point x="122.283" y="378.84" type="curve" smooth="yes"/>
      <point x="122.283" y="337"/>
      <point x="190.693" y="313.667"/>
      <point x="260.003" y="288.897" type="curve" smooth="yes"/>
      <point x="344.99" y="258.524"/>
      <point x="418.003" y="226.56"/>
      <point x="418.003" y="129" type="curve" smooth="yes"/>
      <point x="418.003" y="36.4893"/>
      <point x="347.49" y="-20.2402"/>
      <point x="235.562" y="-20.2402" type="curve" smooth="yes"/>
      <point x="175.76" y="-20.2402"/>
      <point x="105.192" y="-2.80371"/>
      <point x="59.7422" y="22.6797" type="curve"/>
      <point x="59.7422" y="156.24" type="line"/>
      <point x="94.7217" y="156.24" type="line"/>
      <point x="107.19" y="74.2051"/>
      <point x="153.326" y="28.9805"/>
      <point x="228.141" y="28.9805" type="curve" smooth="yes"/>
      <point x="295.969" y="28.9805"/>
      <point x="344.601" y="60.3574"/>
      <point x="344.601" y="103.24" type="curve" smooth="yes"/>
      <point x="344.601" y="144.026"/>
      <point x="290.506" y="158.476"/>
      <point x="226.001" y="182.29" type="curve" smooth="yes"/>
      <point x="146.961" y="211.47"/>
      <point x="45.001" y="253.478"/>
      <point x="45.001" y="357" type="curve" smooth="yes"/>
      <point x="45.001" y="437.915"/>
      <point x="116.721" y="495"/>
      <point x="219.661" y="495" type="curve" smooth="yes"/>
      <point x="283.692" y="495"/>
      <point x="338.059" y="480.24"/>
    </contour>
  </outline>
</glyph>
<glyph name="x" format="2">
  <advance width="535"/>
  <unicode hex="0078"/>
  <outline>
    <contour>
      <point x="200" y="0" type="line"/>
      <point x="200" y="25" type="line"/>
      <point x="170" y="30"/>
      <point x="160" y="40"/>
      <point x="160" y="60" type="curve" smooth="yes"/>
      <point x="160" y="70"/>
      <point x="165.159" y="84.8819"/>
      <point x="180" y="105" type="curve" smooth="yes"/>
      <point x="270" y="227" type="line"/>
      <point x="250" y="254" type="line"/>
      <point x="115" y="90" type="line" smooth="yes"/>
      <point x="82.4444" y="50.4509"/>
      <point x="50" y="35"/>
      <point x="10" y="25" type="curve"/>
      <point x="10" y="0" type="line"/>
    </contour>
    <contour>
      <point x="305" y="110" type="line" smooth="yes"/>
      <point x="319" y="90"/>
      <point x="330" y="70"/>
      <point x="330" y="60" type="curve" smooth="yes"/>
      <point x="330" y="40"/>
      <point x="315" y="30"/>
      <point x="285" y="25" type="curve"/>
      <point x="285" y="0" type="line"/>
      <point x="525" y="0" type="line"/>
      <point x="525" y="25" type="line"/>
      <point x="475" y="35"/>
      <point x="457" y="50"/>
      <point x="430" y="90" type="curve" smooth="yes"/>
      <point x="230" y="380" type="line" smooth="yes"/>
      <point x="216" y="400"/>
      <point x="210" y="410"/>
      <point x="210" y="420" type="curve" smooth="yes"/>
      <point x="210" y="440"/>
      <point x="230" y="450"/>
      <point x="260" y="455" type="curve"/>
      <point x="260" y="480" type="line"/>
      <point x="25" y="480" type="line"/>
      <point x="25" y="455" type="line"/>
      <point x="55" y="450"/>
      <point x="84" y="433"/>
      <point x="110" y="395" type="curve" smooth="yes"/>
    </contour>
    <contour>
      <point x="415" y="395" type="line" smooth="yes"/>
      <point x="441.892" y="431.835"/>
      <point x="475" y="450"/>
      <point x="505" y="455" type="curve"/>
      <point x="505" y="480" type="line"/>
      <point x="325" y="480" type="line"/>
      <point x="325" y="455" type="line"/>
      <point x="355" y="450"/>
      <point x="370" y="440"/>
      <point x="370" y="420" type="curve" smooth="yes"/>
      <point x="370" y="410"/>
      <point x="364.124" y="395.628"/>
      <point x="350" y="375" type="curve" smooth="yes"/>
      <point x="274" y="264" type="line"/>
      <point x="296" y="232" type="line"/>
    </contour>
  </outline>
</glyph>
<glyph name="y" format="2">
  <advance width="540"/>
  <unicode hex="0079"/>
  <anchor x="290" y="580" name="Anchor1"/>
  <outline>
    <contour>
      <point x="110" y="-220" type="curve" smooth="yes"/>
      <point x="65" y="-220"/>
      <point x="32" y="-200"/>
      <point x="32" y="-165" type="curve" smooth="yes"/>
      <point x="32" y="-130"/>
      <point x="60" y="-112"/>
      <point x="90" y="-112" type="curve" smooth="yes"/>
      <point x="120" y="-112"/>
      <point x="130" y="-136"/>
      <point x="160" y="-136" type="curve" smooth="yes"/>
      <point x="190" y="-136"/>
      <point x="218" y="-70"/>
      <point x="238" y="-20" type="curve"/>
      <point x="65" y="395" type="line" smooth="yes"/>
      <point x="50.4955" y="429.794"/>
      <point x="30" y="450"/>
      <point x="0" y="455" type="curve"/>
      <point x="0" y="480" type="line"/>
      <point x="236" y="480" type="line"/>
      <point x="236" y="455" type="line"/>
      <point x="206" y="450"/>
      <point x="176" y="430"/>
      <point x="176" y="410" type="curve" smooth="yes"/>
      <point x="176" y="380"/>
      <point x="186.712" y="360.279"/>
      <point x="206" y="310" type="curve" smooth="yes"/>
      <point x="295" y="78" type="line"/>
      <point x="285" y="78" type="line"/>
      <point x="382" y="310" type="line" smooth="yes"/>
      <point x="402.773" y="359.684"/>
      <point x="410" y="380"/>
      <point x="410" y="410" type="curve" smooth="yes"/>
      <point x="410" y="430"/>
      <point x="380" y="450"/>
      <point x="350" y="455" type="curve"/>
      <point x="350" y="480" type="line"/>
      <point x="540" y="480" type="line"/>
      <point x="540" y="455" type="line"/>
      <point x="510" y="450"/>
      <point x="485" y="430"/>
      <point x="470" y="395" type="curve" smooth="yes"/>
      <point x="300" y="0" type="line" smooth="yes"/>
      <point x="240" y="-140"/>
      <point x="190" y="-220"/>
    </contour>
  </outline>
</glyph>
<glyph name="braceleft" format="2">
  <advance width="392"/>
  <unicode hex="007B"/>
  <outline>
    <contour>
      <point x="80" y="243" type="curve"/>
      <point x="80" y="264.999" type="line"/>
      <point x="146" y="273.999"/>
      <point x="192" y="316.999"/>
      <point x="192" y="368.999" type="curve" smooth="yes"/>
      <point x="192" y="417.012"/>
      <point x="169" y="465.658"/>
      <point x="169" y="518.999" type="curve" smooth="yes"/>
      <point x="169" y="613.999"/>
      <point x="245" y="692.999"/>
      <point x="352" y="706.999" type="curve"/>
      <point x="352" y="673.999" type="line"/>
      <point x="277.514" y="658.274"/>
      <point x="246" y="621.033"/>
      <point x="246" y="577.999" type="curve" smooth="yes"/>
      <point x="246" y="532.722"/>
      <point x="264" y="490.701"/>
      <point x="264" y="424" type="curve" smooth="yes"/>
      <point x="264" y="353"/>
      <point x="215.777" y="287"/>
      <point x="140" y="254" type="curve"/>
      <point x="215.777" y="221"/>
      <point x="264" y="155"/>
      <point x="264" y="84" type="curve" smooth="yes"/>
      <point x="264" y="17.2412"/>
      <point x="246" y="-24.666"/>
      <point x="246" y="-70" type="curve" smooth="yes"/>
      <point x="246" y="-113.034"/>
      <point x="277.514" y="-150.275"/>
      <point x="352" y="-166" type="curve"/>
      <point x="352" y="-199" type="line"/>
      <point x="245" y="-185"/>
      <point x="169" y="-106"/>
      <point x="169" y="-11" type="curve" smooth="yes"/>
      <point x="169" y="42.0557"/>
      <point x="192" y="91.9688"/>
      <point x="192" y="139" type="curve" smooth="yes"/>
      <point x="192" y="191"/>
      <point x="146" y="234"/>
    </contour>
  </outline>
</glyph>
<glyph name="exclamdown" format="2">
  <advance width="330"/>
  <unicode hex="00A1"/>
  <outline>
    <contour>
      <point x="165" y="550" type="curve" smooth="yes"/>
      <point x="120" y="550"/>
      <point x="80" y="515"/>
      <point x="80" y="465" type="curve" smooth="yes"/>
      <point x="80" y="415"/>
      <point x="120" y="380"/>
      <point x="165" y="380" type="curve" smooth="yes"/>
      <point x="210" y="380"/>
      <point x="250" y="415"/>
      <point x="250" y="465" type="curve" smooth="yes"/>
      <point x="250" y="515"/>
      <point x="210" y="550"/>
    </contour>
    <contour>
      <point x="200" y="290" type="line"/>
      <point x="130" y="290" type="line"/>
      <point x="90" y="-110" type="line"/>
      <point x="90" y="-160" type="line" smooth="yes"/>
      <point x="90" y="-196"/>
      <point x="130.385" y="-220"/>
      <point x="165" y="-220" type="curve" smooth="yes"/>
      <point x="196.385" y="-220"/>
      <point x="233" y="-196"/>
      <point x="233" y="-160" type="curve" smooth="yes"/>
      <point x="233" y="-110" type="line"/>
    </contour>
  </outline>
</glyph>
<glyph name="cent" format="2">
  <advance width="475"/>
  <unicode hex="00A2"/>
  <outline>
    <contour>
      <point x="455" y="90" type="line"/>
      <point x="420" y="45"/>
      <point x="360" y="-15"/>
      <point x="255" y="-15" type="curve" smooth="yes"/>
      <point x="225.186" y="-15"/>
      <point x="196.011" y="-9.68563"/>
      <point x="169.246" y="1.41465" type="curve"/>
      <point x="127" y="-120" type="line"/>
      <point x="83" y="-120" type="line"/>
      <point x="132.285" y="21.6468" type="line"/>
      <point x="77.7003" y="59.853"/>
      <point x="40" y="129.125"/>
      <point x="40" y="235" type="curve" smooth="yes"/>
      <point x="40" y="395"/>
      <point x="155" y="495"/>
      <point x="280" y="495" type="curve" smooth="yes"/>
      <point x="285.678" y="495"/>
      <point x="291.296" y="494.861"/>
      <point x="296.84" y="494.58" type="curve"/>
      <point x="337" y="610" type="line"/>
      <point x="381" y="610" type="line"/>
      <point x="339.01" y="489.32" type="line"/>
      <point x="400.542" y="476.512"/>
      <point x="445" y="441.593"/>
      <point x="445" y="380" type="curve" smooth="yes"/>
      <point x="445" y="340"/>
      <point x="420" y="320"/>
      <point x="390" y="320" type="curve" smooth="yes"/>
      <point x="369" y="320"/>
      <point x="350" y="325"/>
      <point x="335" y="335" type="curve"/>
      <point x="335" y="380" type="line" smooth="yes"/>
      <point x="335" y="401.354"/>
      <point x="329.37" y="419.331"/>
      <point x="319.179" y="432.327" type="curve"/>
      <point x="203.504" y="99.8724" type="line"/>
      <point x="231.528" y="69.1143"/>
      <point x="267.721" y="55"/>
      <point x="305" y="55" type="curve" smooth="yes"/>
      <point x="350" y="55"/>
      <point x="410" y="85"/>
      <point x="435" y="110" type="curve"/>
    </contour>
    <contour>
      <point x="282.693" y="453.922" type="line"/>
      <point x="278.654" y="454.634"/>
      <point x="274.419" y="455"/>
      <point x="270" y="455" type="curve" smooth="yes"/>
      <point x="220" y="455"/>
      <point x="150" y="405"/>
      <point x="150" y="275" type="curve" smooth="yes"/>
      <point x="150" y="220.492"/>
      <point x="159.275" y="177.114"/>
      <point x="174.781" y="143.78" type="curve"/>
    </contour>
  </outline>
</glyph>
<glyph name="sterling" format="2">
  <advance width="677"/>
  <unicode hex="00A3"/>
  <outline>
    <contour>
      <point x="33.333" y="-152.333" type="curve" smooth="yes"/>
      <point x="33.333" y="-113.479"/>
      <point x="66.8711" y="-78.2021"/>
      <point x="120.666" y="-48.3301" type="curve"/>
      <point x="135.909" y="56.0029"/>
      <point x="139.063" y="92.0029"/>
      <point x="161.666" y="174.003" type="curve"/>
      <point x="64.666" y="174.003" type="line"/>
      <point x="72.166" y="218.17" type="line"/>
      <point x="172.999" y="218.17" type="line"/>
      <point x="195.11" y="300.521"/>
      <point x="212.999" y="360.002"/>
      <point x="238.999" y="425.002" type="curve" smooth="yes"/>
      <point x="304.601" y="596.702"/>
      <point x="385.224" y="715.002"/>
      <point x="506.333" y="715.002" type="curve" smooth="yes"/>
      <point x="581.492" y="715.002"/>
      <point x="632.833" y="687.168"/>
      <point x="632.833" y="648.501" type="curve" smooth="yes"/>
      <point x="632.833" y="614.185"/>
      <point x="615.269" y="600.369"/>
      <point x="595" y="600.369" type="curve" smooth="yes"/>
      <point x="580" y="600.369"/>
      <point x="563.284" y="608.729"/>
      <point x="551.333" y="622.417" type="curve" smooth="yes"/>
      <point x="531.746" y="644.852"/>
      <point x="508.623" y="667.834"/>
      <point x="469" y="667.834" type="curve" smooth="yes"/>
      <point x="393.759" y="667.834"/>
      <point x="366.268" y="543.542"/>
      <point x="332.619" y="380.001" type="curve" smooth="yes"/>
      <point x="321.637" y="329.033"/>
      <point x="309.165" y="274.22"/>
      <point x="294.167" y="218.168" type="curve"/>
      <point x="427.167" y="218.168" type="line"/>
      <point x="417" y="174.001" type="line"/>
      <point x="282" y="174.001" type="line"/>
      <point x="258.02" y="86.3877"/>
      <point x="244.098" y="51.9688"/>
      <point x="204" y="-19.999" type="curve"/>
      <point x="233.313" y="-11.3623"/>
      <point x="248.5" y="-9.66602"/>
      <point x="270.5" y="-9.66602" type="curve" smooth="yes"/>
      <point x="380.01" y="-9.66602"/>
      <point x="424.113" y="-118.166"/>
      <point x="502.168" y="-118.166" type="curve" smooth="yes"/>
      <point x="525.888" y="-118.166"/>
      <point x="544.834" y="-104.712"/>
      <point x="544.834" y="-88.666" type="curve" smooth="yes"/>
      <point x="544.834" y="-56.333"/>
      <point x="510.698" y="-43.0059"/>
      <point x="509.001" y="-15" type="curve" smooth="yes"/>
      <point x="507.334" y="12.5"/>
      <point x="528.334" y="36.167"/>
      <point x="554.667" y="36.167" type="curve" smooth="yes"/>
      <point x="584" y="36.167"/>
      <point x="606.833" y="8.5"/>
      <point x="606.833" y="-27.833" type="curve" smooth="yes"/>
      <point x="606.833" y="-143.833"/>
      <point x="505.833" y="-192.666"/>
      <point x="447" y="-192.666" type="curve" smooth="yes"/>
      <point x="346.669" y="-192.666"/>
      <point x="300" y="-75.5068"/>
      <point x="202" y="-75.5068" type="curve" smooth="yes"/>
      <point x="193.062" y="-75.5068"/>
      <point x="183.7" y="-76.3096"/>
      <point x="173.833" y="-78.333" type="curve"/>
      <point x="135" y="-155.833"/>
      <point x="99.333" y="-190.833"/>
      <point x="71.5" y="-190.833" type="curve" smooth="yes"/>
      <point x="51" y="-190.833"/>
      <point x="33.333" y="-173.833"/>
    </contour>
  </outline>
</glyph>
<glyph name="yen" format="2">
  <advance width="765"/>
  <unicode hex="00A5"/>
  <outline>
    <contour>
      <point x="320" y="700" type="line"/>
      <point x="320" y="670" type="line"/>
      <point x="289" y="650" type="line" smooth="yes"/>
      <point x="278.591" y="643.284"/>
      <point x="274" y="624"/>
      <point x="282" y="610" type="curve" smooth="yes"/>
      <point x="344.569" y="506" type="line"/>
      <point x="509.659" y="506" type="line"/>
      <point x="568" y="610" type="line" smooth="yes"/>
      <point x="576" y="626"/>
      <point x="573.448" y="644.621"/>
      <point x="560" y="650" type="curve" smooth="yes"/>
      <point x="510" y="670" type="line"/>
      <point x="510" y="700" type="line"/>
      <point x="725" y="700" type="line"/>
      <point x="725" y="670" type="line"/>
      <point x="680" y="650" type="line" smooth="yes"/>
      <point x="649.438" y="636.417"/>
      <point x="634.615" y="615"/>
      <point x="621" y="593" type="curve" smooth="yes"/>
      <point x="569.75" y="506" type="line"/>
      <point x="705" y="506" type="line"/>
      <point x="705" y="466" type="line"/>
      <point x="546.187" y="466" type="line"/>
      <point x="457.825" y="316" type="line"/>
      <point x="705" y="316" type="line"/>
      <point x="705" y="276" type="line"/>
      <point x="451" y="276" type="line"/>
      <point x="451" y="90" type="line" smooth="yes"/>
      <point x="451" y="70"/>
      <point x="461" y="55"/>
      <point x="481" y="50" type="curve" smooth="yes"/>
      <point x="561" y="30" type="line"/>
      <point x="561" y="0" type="line"/>
      <point x="231" y="0" type="line"/>
      <point x="231" y="30" type="line"/>
      <point x="311" y="50" type="line" smooth="yes"/>
      <point x="331" y="55"/>
      <point x="341" y="70"/>
      <point x="341" y="90" type="curve" smooth="yes"/>
      <point x="341" y="276" type="line"/>
      <point x="60" y="276" type="line"/>
      <point x="60" y="316" type="line"/>
      <point x="326.704" y="316" type="line"/>
      <point x="228.896" y="466" type="line"/>
      <point x="60" y="466" type="line"/>
      <point x="60" y="506" type="line"/>
      <point x="202.814" y="506" type="line"/>
      <point x="135" y="610" type="line" smooth="yes"/>
      <point x="120.857" y="628"/>
      <point x="105.646" y="637.177"/>
      <point x="80" y="650" type="curve" smooth="yes"/>
      <point x="40" y="670" type="line"/>
      <point x="40" y="700" type="line"/>
    </contour>
    <contour>
      <point x="368.634" y="466" type="line"/>
      <point x="430" y="364" type="line"/>
      <point x="487.22" y="466" type="line"/>
    </contour>
  </outline>
</glyph>
<glyph name="brokenbar" format="2">
  <advance width="230"/>
  <unicode hex="00A6"/>
  <outline>
    <contour>
      <point x="150" y="103" type="line"/>
      <point x="150" y="-200" type="line"/>
      <point x="80" y="-200" type="line"/>
      <point x="80" y="103" type="line"/>
    </contour>
    <contour>
      <point x="150" y="700" type="line"/>
      <point x="150" y="396" type="line"/>
      <point x="80" y="396" type="line"/>
      <point x="80" y="700" type="line"/>
    </contour>
  </outline>
</glyph>
<glyph name="section" format="2">
  <advance width="446"/>
  <unicode hex="00A7"/>
  <outline>
    <contour>
      <point x="308" y="-70" type="curve"/>
      <point x="334.971" y="-26.8379"/>
      <point x="348.174" y="22.5332"/>
      <point x="348.174" y="72" type="curve" smooth="yes"/>
      <point x="348.174" y="116"/>
      <point x="340.021" y="163.13"/>
      <point x="319.5" y="203" type="curve" smooth="yes"/>
      <point x="306.025" y="229.18"/>
      <point x="286.938" y="258.296"/>
      <point x="264.781" y="292" type="curve" smooth="yes"/>
      <point x="245.88" y="320.752"/>
      <point x="222.765" y="357.329"/>
      <point x="202.715" y="388" type="curve" smooth="yes"/>
      <point x="158.318" y="455.915"/>
      <point x="120.902" y="512.99"/>
      <point x="137" y="598" type="curve"/>
      <point x="108.114" y="563.804"/>
      <point x="94.9219" y="520.368"/>
      <point x="94.9219" y="480" type="curve" smooth="yes"/>
      <point x="94.9219" y="420.345"/>
      <point x="107.917" y="357.703"/>
      <point x="132.5" y="304" type="curve" smooth="yes"/>
      <point x="154.167" y="256.667"/>
      <point x="186.689" y="199.95"/>
      <point x="227" y="132" type="curve" smooth="yes"/>
      <point x="276.721" y="48.1875"/>
      <point x="316.36" y="2.86035"/>
    </contour>
    <contour>
      <point x="178" y="-183" type="curve" smooth="yes"/>
      <point x="117.737" y="-181.371"/>
      <point x="62" y="-147.865"/>
      <point x="62" y="-84" type="curve" smooth="yes"/>
      <point x="62" y="-42.25"/>
      <point x="88.5898" y="-6"/>
      <point x="132" y="-6" type="curve" smooth="yes"/>
      <point x="156.714" y="-6"/>
      <point x="171.702" y="-12.2998"/>
      <point x="171.702" y="-24" type="curve" smooth="yes"/>
      <point x="171.702" y="-29.5713"/>
      <point x="168.11" y="-36.1357"/>
      <point x="161" y="-43.5" type="curve" smooth="yes"/>
      <point x="151.667" y="-53.167"/>
      <point x="147" y="-66.333"/>
      <point x="147" y="-83" type="curve" smooth="yes"/>
      <point x="147" y="-119.212"/>
      <point x="178.593" y="-144"/>
      <point x="214" y="-144" type="curve" smooth="yes"/>
      <point x="259.7" y="-144"/>
      <point x="280.704" y="-103.113"/>
      <point x="266" y="-59" type="curve" smooth="yes"/>
      <point x="245.262" y="3.21582"/>
      <point x="204.837" y="64.623"/>
      <point x="160" y="130" type="curve" smooth="yes"/>
      <point x="126.923" y="184.463"/>
      <point x="98.1875" y="235.674"/>
      <point x="77.5" y="282.5" type="curve" smooth="yes"/>
      <point x="53.7959" y="336.154"/>
      <point x="40" y="401.171"/>
      <point x="40" y="459" type="curve" smooth="yes"/>
      <point x="40" y="502"/>
      <point x="50.2266" y="547.047"/>
      <point x="72.5" y="582" type="curve" smooth="yes"/>
      <point x="110.749" y="642.022"/>
      <point x="178" y="680"/>
      <point x="269" y="680" type="curve" smooth="yes"/>
      <point x="329.285" y="680"/>
      <point x="385" y="644.865"/>
      <point x="385" y="581" type="curve" smooth="yes"/>
      <point x="385" y="538.18"/>
      <point x="358.41" y="501"/>
      <point x="315" y="501" type="curve" smooth="yes"/>
      <point x="290.95" y="501"/>
      <point x="275.292" y="508"/>
      <point x="275.292" y="520" type="curve" smooth="yes"/>
      <point x="275.292" y="525.777"/>
      <point x="278.459" y="532.69"/>
      <point x="286" y="540.5" type="curve" smooth="yes"/>
      <point x="295.333" y="550.167"/>
      <point x="300" y="563.333"/>
      <point x="300" y="580" type="curve" smooth="yes"/>
      <point x="300" y="616.212"/>
      <point x="268.407" y="641"/>
      <point x="233" y="641" type="curve" smooth="yes"/>
      <point x="197.455" y="641"/>
      <point x="177.657" y="617.238"/>
      <point x="177.657" y="584" type="curve" smooth="yes"/>
      <point x="177.657" y="559.203"/>
      <point x="185.575" y="543.791"/>
      <point x="197" y="524.5" type="curve" smooth="yes"/>
      <point x="224.177" y="478.609"/>
      <point x="255.251" y="422.782"/>
      <point x="284" y="379" type="curve" smooth="yes"/>
      <point x="320.335" y="323.665"/>
      <point x="350.22" y="273.212"/>
      <point x="372.5" y="226.5" type="curve" smooth="yes"/>
      <point x="393.306" y="182.88"/>
      <point x="406" y="135.978"/>
      <point x="406" y="90" type="curve" smooth="yes"/>
      <point x="406" y="49.2314"/>
      <point x="397.231" y="-32.0537"/>
      <point x="367" y="-81" type="curve" smooth="yes"/>
      <point x="325" y="-149"/>
      <point x="261.97" y="-185.27"/>
    </contour>
  </outline>
</glyph>
<glyph name="guillemotleft" format="2">
  <advance width="367"/>
  <unicode hex="00AB"/>
  <outline>
    <contour>
      <point x="112" y="252" type="line"/>
      <point x="232" y="32" type="line"/>
      <point x="208" y="32" type="line"/>
      <point x="30" y="252" type="line"/>
      <point x="208" y="472" type="line"/>
      <point x="232" y="472" type="line"/>
    </contour>
    <contour>
      <point x="254" y="252" type="line"/>
      <point x="337" y="74" type="line"/>
      <point x="313" y="74" type="line"/>
      <point x="182" y="252" type="line"/>
      <point x="313" y="430" type="line"/>
      <point x="337" y="430" type="line"/>
    </contour>
  </outline>
</glyph>
<glyph name="uni00AD" format="2">
  <advance width="360"/>
  <unicode hex="00AD"/>
  <outline>
    <contour>
      <point x="40" y="280" type="line"/>
      <point x="40" y="350" type="line"/>
      <point x="320" y="350" type="line"/>
      <point x="320" y="280" type="line"/>
    </contour>
  </outline>
</glyph>
<glyph name="degree" format="2">
  <advance width="380"/>
  <unicode hex="00B0"/>
  <outline>
    <contour>
      <point x="292" y="550" type="curve" smooth="yes"/>
      <point x="292" y="605"/>
      <point x="245" y="652"/>
      <point x="190" y="652" type="curve" smooth="yes"/>
      <point x="135" y="652"/>
      <point x="88" y="605"/>
      <point x="88" y="550" type="curve" smooth="yes"/>
      <point x="88" y="495"/>
      <point x="135" y="448"/>
      <point x="190" y="448" type="curve" smooth="yes"/>
      <point x="245" y="448"/>
      <point x="292" y="495"/>
    </contour>
    <contour>
      <point x="340" y="550" type="curve" smooth="yes"/>
      <point x="340" y="467"/>
      <point x="273" y="400"/>
      <point x="190" y="400" type="curve" smooth="yes"/>
      <point x="107" y="400"/>
      <point x="40" y="467"/>
      <point x="40" y="550" type="curve" smooth="yes"/>
      <point x="40" y="633"/>
      <point x="107" y="700"/>
      <point x="190" y="700" type="curve" smooth="yes"/>
      <point x="273" y="700"/>
      <point x="340" y="633"/>
    </contour>
  </outline>
</glyph>
<glyph name="uni00B2" format="2">
  <advance width="341"/>
  <unicode hex="00B2"/>
  <outline>
    <contour>
      <point x="301" y="390.75" type="line"/>
      <point x="274.05" y="300" type="line"/>
      <point x="39.75" y="300" type="line"/>
      <point x="39.75" y="319.8" type="line"/>
      <point x="147.065" y="440.952"/>
      <point x="232.8" y="499.439"/>
      <point x="232.8" y="572.25" type="curve" smooth="yes"/>
      <point x="232.8" y="612.4"/>
      <point x="211.548" y="645.4"/>
      <point x="157.45" y="645.4" type="curve" smooth="yes"/>
      <point x="118.95" y="645.4"/>
      <point x="84.8496" y="615.15"/>
      <point x="62.2998" y="561.8" type="curve"/>
      <point x="41.9502" y="570.05" type="line"/>
      <point x="68.3496" y="643.75"/>
      <point x="114.55" y="685"/>
      <point x="171.2" y="685" type="curve" smooth="yes"/>
      <point x="252.323" y="685"/>
      <point x="293.3" y="639.35"/>
      <point x="293.3" y="582.7" type="curve" smooth="yes"/>
      <point x="293.3" y="483.721"/>
      <point x="179.907" y="450.728"/>
      <point x="90.9004" y="344.55" type="curve"/>
      <point x="217.4" y="344.55" type="line" smooth="yes"/>
      <point x="252.6" y="344.55"/>
      <point x="266.35" y="354.45"/>
      <point x="281.75" y="390.75" type="curve"/>
    </contour>
  </outline>
</glyph>
<glyph name="paragraph" format="2">
  <advance width="540"/>
  <unicode hex="00B6"/>
  <outline>
    <contour>
      <point x="436" y="642" type="line"/>
      <point x="436" y="-191" type="line"/>
      <point x="386" y="-191" type="line"/>
      <point x="386" y="642" type="line"/>
      <point x="323" y="642" type="line"/>
      <point x="323" y="-191" type="line"/>
      <point x="273" y="-191" type="line"/>
      <point x="273" y="314" type="line"/>
      <point x="141" y="314"/>
      <point x="40" y="359"/>
      <point x="40" y="500" type="curve" smooth="yes"/>
      <point x="40" y="616"/>
      <point x="121" y="682"/>
      <point x="259" y="682" type="curve" smooth="yes"/>
      <point x="500" y="682" type="line"/>
      <point x="500" y="642" type="line"/>
    </contour>
  </outline>
</glyph>
<glyph name="periodcentered" format="2">
  <advance width="313"/>
  <unicode hex="00B7"/>
  <outline>
    <contour>
      <point x="156.5" y="250" type="curve" smooth="yes"/>
      <point x="116" y="250"/>
      <point x="80" y="281.5"/>
      <point x="80" y="326.5" type="curve" smooth="yes"/>
      <point x="80" y="371.5"/>
      <point x="116" y="403"/>
      <point x="156.5" y="403" type="curve" smooth="yes"/>
      <point x="197" y="403"/>
      <point x="233" y="371.5"/>
      <point x="233" y="326.5" type="curve" smooth="yes"/>
      <point x="233" y="281.5"/>
      <point x="197" y="250"/>
    </contour>
  </outline>
</glyph>
<glyph name="cedilla" format="2">
  <advance width="333"/>
  <unicode hex="00B8"/>
  <outline>
    <contour>
      <point x="164" y="10" type="line"/>
      <point x="210" y="10" type="line"/>
      <point x="175.463" y="-52.0391" type="line"/>
      <point x="235.118" y="-57.1597"/>
      <point x="258" y="-88.0824"/>
      <point x="258" y="-120" type="curve" smooth="yes"/>
      <point x="258" y="-173"/>
      <point x="204" y="-214"/>
      <point x="134" y="-214" type="curve" smooth="yes"/>
      <point x="117" y="-214"/>
      <point x="104" y="-212"/>
      <point x="76" y="-206" type="curve"/>
      <point x="80" y="-190" type="line"/>
      <point x="98" y="-194"/>
      <point x="107" y="-195"/>
      <point x="116" y="-195" type="curve" smooth="yes"/>
      <point x="151" y="-195"/>
      <point x="180" y="-171"/>
      <point x="180" y="-141" type="curve" smooth="yes"/>
      <point x="180" y="-111"/>
      <point x="156" y="-92"/>
      <point x="110" y="-87" type="curve"/>
    </contour>
  </outline>
</glyph>
<glyph name="ordmasculine" format="2">
  <advance width="354"/>
  <unicode hex="00BA"/>
  <outline>
    <contour>
      <point x="169.788" y="385.575" type="curve" smooth="yes"/>
      <point x="97.5312" y="385.575"/>
      <point x="22.1328" y="435.841"/>
      <point x="22.1328" y="542.655" type="curve" smooth="yes"/>
      <point x="22.1328" y="633.762"/>
      <point x="81.8232" y="706.019"/>
      <point x="179.213" y="706.019" type="curve" smooth="yes"/>
      <point x="254.611" y="706.019"/>
      <point x="326.868" y="655.753"/>
      <point x="326.868" y="548.938" type="curve" smooth="yes"/>
      <point x="326.868" y="448.407"/>
      <point x="264.036" y="385.575"/>
    </contour>
    <contour>
      <point x="176.071" y="410.708" type="curve" smooth="yes"/>
      <point x="245.187" y="410.708"/>
      <point x="257.753" y="482.965"/>
      <point x="257.753" y="539.514" type="curve" smooth="yes"/>
      <point x="257.753" y="640.045"/>
      <point x="216.912" y="680.886"/>
      <point x="172.93" y="680.886" type="curve" smooth="yes"/>
      <point x="106.956" y="680.886"/>
      <point x="91.248" y="605.487"/>
      <point x="91.248" y="552.08" type="curve" smooth="yes"/>
      <point x="91.248" y="448.407"/>
      <point x="132.089" y="410.708"/>
    </contour>
  </outline>
</glyph>
<glyph name="guillemotright" format="2">
  <advance width="367"/>
  <unicode hex="00BB"/>
  <outline>
    <contour>
      <point x="255" y="252" type="line"/>
      <point x="135" y="472" type="line"/>
      <point x="159" y="472" type="line"/>
      <point x="337" y="252" type="line"/>
      <point x="159" y="32" type="line"/>
      <point x="135" y="32" type="line"/>
    </contour>
    <contour>
      <point x="113" y="252" type="line"/>
      <point x="30" y="430" type="line"/>
      <point x="54" y="430" type="line"/>
      <point x="185" y="252" type="line"/>
      <point x="54" y="74" type="line"/>
      <point x="30" y="74" type="line"/>
    </contour>
  </outline>
</glyph>
<glyph name="questiondown" format="2">
  <advance width="385"/>
  <unicode hex="00BF"/>
  <outline>
    <contour>
      <point x="236" y="279" type="curve"/>
      <point x="276" y="279" type="line"/>
      <point x="276" y="184"/>
      <point x="291" y="151"/>
      <point x="291" y="130" type="curve" smooth="yes"/>
      <point x="291" y="122"/>
      <point x="290" y="117"/>
      <point x="285" y="112" type="curve" smooth="yes"/>
      <point x="267.787" y="95"/>
      <point x="173.625" y="96"/>
      <point x="123" y="46" type="curve" smooth="yes"/>
      <point x="105" y="28"/>
      <point x="93" y="4"/>
      <point x="93" y="-19" type="curve" smooth="yes"/>
      <point x="93" y="-88.7539"/>
      <point x="165" y="-171"/>
      <point x="226" y="-171" type="curve" smooth="yes"/>
      <point x="262" y="-171"/>
      <point x="277" y="-149"/>
      <point x="307" y="-149" type="curve" smooth="yes"/>
      <point x="332" y="-149"/>
      <point x="349" y="-166"/>
      <point x="349" y="-190" type="curve" smooth="yes"/>
      <point x="349" y="-227"/>
      <point x="314" y="-251"/>
      <point x="261" y="-251" type="curve" smooth="yes"/>
      <point x="121" y="-251"/>
      <point x="30" y="-37.3555"/>
      <point x="30" y="25" type="curve" smooth="yes"/>
      <point x="30" y="62"/>
      <point x="41" y="95"/>
      <point x="68" y="122" type="curve" smooth="yes"/>
      <point x="120.298" y="175"/>
      <point x="183.45" y="173"/>
      <point x="217" y="207" type="curve" smooth="yes"/>
      <point x="231" y="221"/>
      <point x="235" y="247"/>
    </contour>
    <contour>
      <point x="255" y="380" type="curve" smooth="yes"/>
      <point x="216.42" y="380"/>
      <point x="185" y="410.263"/>
      <point x="185" y="448.5" type="curve" smooth="yes"/>
      <point x="185" y="486.713"/>
      <point x="216.42" y="519"/>
      <point x="255" y="519" type="curve" smooth="yes"/>
      <point x="293.432" y="519"/>
      <point x="324" y="486.713"/>
      <point x="324" y="448.5" type="curve" smooth="yes"/>
      <point x="324" y="410.263"/>
      <point x="293.432" y="380"/>
    </contour>
  </outline>
</glyph>
<glyph name="Acircumflex" format="2">
  <advance width="780"/>
  <unicode hex="00C2"/>
  <outline>
    <contour>
      <point x="545" y="100" type="curve" smooth="yes"/>
      <point x="475" y="290" type="line"/>
      <point x="235" y="290" type="line"/>
      <point x="167" y="100" type="line" smooth="yes"/>
      <point x="160" y="80"/>
      <point x="175" y="56"/>
      <point x="195" y="50" type="curve" smooth="yes"/>
      <point x="260" y="30" type="line"/>
      <point x="260" y="0" type="line"/>
      <point x="0" y="0" type="line"/>
      <point x="0" y="30" type="line"/>
      <point x="70" y="50" type="line" smooth="yes"/>
      <point x="85" y="54"/>
      <point x="94" y="70"/>
      <point x="102" y="90" type="curve" smooth="yes"/>
      <point x="340" y="700" type="line"/>
      <point x="435" y="700" type="line"/>
      <point x="678" y="90" type="line" smooth="yes"/>
      <point x="686" y="70"/>
      <point x="690" y="56"/>
      <point x="710" y="50" type="curve" smooth="yes"/>
      <point x="780" y="30" type="line"/>
      <point x="780" y="0" type="line"/>
      <point x="455" y="0" type="line"/>
      <point x="455" y="30" type="line"/>
      <point x="520" y="50" type="line" smooth="yes"/>
      <point x="540" y="56"/>
      <point x="552" y="80"/>
    </contour>
    <contour>
      <point x="355" y="620" type="line"/>
      <point x="250" y="335" type="line"/>
      <point x="460" y="335" type="line"/>
    </contour>
    <contour>
      <point x="327.5" y="945" type="line"/>
      <point x="447.5" y="945" type="line"/>
      <point x="547.5" y="775" type="line"/>
      <point x="517.5" y="775" type="line"/>
      <point x="387.5" y="891.316" type="line"/>
      <point x="257.5" y="775" type="line"/>
      <point x="227.5" y="775" type="line"/>
    </contour>
  </outline>
</glyph>
<glyph name="Adieresis" format="2">
  <advance width="780"/>
  <unicode hex="00C4"/>
  <outline>
    <contour>
      <point x="545" y="100" type="curve" smooth="yes"/>
      <point x="475" y="290" type="line"/>
      <point x="235" y="290" type="line"/>
      <point x="167" y="100" type="line" smooth="yes"/>
      <point x="160" y="80"/>
      <point x="175" y="56"/>
      <point x="195" y="50" type="curve" smooth="yes"/>
      <point x="260" y="30" type="line"/>
      <point x="260" y="0" type="line"/>
      <point x="0" y="0" type="line"/>
      <point x="0" y="30" type="line"/>
      <point x="70" y="50" type="line" smooth="yes"/>
      <point x="85" y="54"/>
      <point x="94" y="70"/>
      <point x="102" y="90" type="curve" smooth="yes"/>
      <point x="340" y="700" type="line"/>
      <point x="435" y="700" type="line"/>
      <point x="678" y="90" type="line" smooth="yes"/>
      <point x="686" y="70"/>
      <point x="690" y="56"/>
      <point x="710" y="50" type="curve" smooth="yes"/>
      <point x="780" y="30" type="line"/>
      <point x="780" y="0" type="line"/>
      <point x="455" y="0" type="line"/>
      <point x="455" y="30" type="line"/>
      <point x="520" y="50" type="line" smooth="yes"/>
      <point x="540" y="56"/>
      <point x="552" y="80"/>
    </contour>
    <contour>
      <point x="355" y="620" type="line"/>
      <point x="250" y="335" type="line"/>
      <point x="460" y="335" type="line"/>
    </contour>
    <contour>
      <point x="292.9" y="891.6" type="curve" smooth="yes"/>
      <point x="324.8" y="891.6"/>
      <point x="351.2" y="865.199"/>
      <point x="351.2" y="833.3" type="curve" smooth="yes"/>
      <point x="351.2" y="801.4"/>
      <point x="324.8" y="775"/>
      <point x="292.9" y="775" type="curve" smooth="yes"/>
      <point x="261" y="775"/>
      <point x="234.6" y="801.4"/>
      <point x="234.6" y="833.3" type="curve" smooth="yes"/>
      <point x="234.6" y="865.199"/>
      <point x="261" y="891.6"/>
    </contour>
    <contour>
      <point x="482.1" y="891.6" type="curve" smooth="yes"/>
      <point x="514" y="891.6"/>
      <point x="540.4" y="865.199"/>
      <point x="540.4" y="833.3" type="curve" smooth="yes"/>
      <point x="540.4" y="801.4"/>
      <point x="514" y="775"/>
      <point x="482.1" y="775" type="curve" smooth="yes"/>
      <point x="450.2" y="775"/>
      <point x="423.8" y="801.4"/>
      <point x="423.8" y="833.3" type="curve" smooth="yes"/>
      <point x="423.8" y="865.199"/>
      <point x="450.2" y="891.6"/>
    </contour>
  </outline>
</glyph>
<glyph name="Aring" format="2">
  <advance width="780"/>
  <unicode hex="00C5"/>
  <outline>
    <contour>
      <point x="545" y="100" type="curve" smooth="yes"/>
      <point x="475" y="290" type="line"/>
      <point x="235" y="290" type="line"/>
      <point x="167" y="100" type="line" smooth="yes"/>
      <point x="160" y="80"/>
      <point x="175" y="56"/>
      <point x="195" y="50" type="curve" smooth="yes"/>
      <point x="260" y="30" type="line"/>
      <point x="260" y="0" type="line"/>
      <point x="0" y="0" type="line"/>
      <point x="0" y="30" type="line"/>
      <point x="70" y="50" type="line" smooth="yes"/>
      <point x="85" y="54"/>
      <point x="94" y="70"/>
      <point x="102" y="90" type="curve" smooth="yes"/>
      <point x="340" y="700" type="line"/>
      <point x="435" y="700" type="line"/>
      <point x="678" y="90" type="line" smooth="yes"/>
      <point x="686" y="70"/>
      <point x="690" y="56"/>
      <point x="710" y="50" type="curve" smooth="yes"/>
      <point x="780" y="30" type="line"/>
      <point x="780" y="0" type="line"/>
      <point x="455" y="0" type="line"/>
      <point x="455" y="30" type="line"/>
      <point x="520" y="50" type="line" smooth="yes"/>
      <point x="540" y="56"/>
      <point x="552" y="80"/>
    </contour>
    <contour>
      <point x="355" y="620" type="line"/>
      <point x="250" y="335" type="line"/>
      <point x="460" y="335" type="line"/>
    </contour>
    <contour>
      <point x="387.05" y="855.816" type="curve" smooth="yes"/>
      <point x="357.35" y="855.816"/>
      <point x="333.95" y="832.417"/>
      <point x="333.95" y="802.717" type="curve" smooth="yes"/>
      <point x="333.95" y="773.018"/>
      <point x="357.35" y="748.717"/>
      <point x="387.05" y="748.717" type="curve" smooth="yes"/>
      <point x="416.75" y="748.717"/>
      <point x="441.05" y="773.018"/>
      <point x="441.05" y="802.717" type="curve" smooth="yes"/>
      <point x="441.05" y="832.417"/>
      <point x="416.75" y="855.816"/>
    </contour>
    <contour>
      <point x="387" y="895.767" type="curve" smooth="yes"/>
      <point x="439" y="895.767"/>
      <point x="481" y="854.767"/>
      <point x="481" y="802.767" type="curve" smooth="yes"/>
      <point x="481" y="750.767"/>
      <point x="439" y="708.767"/>
      <point x="387" y="708.767" type="curve" smooth="yes"/>
      <point x="335" y="708.767"/>
      <point x="294" y="750.767"/>
      <point x="294" y="802.767" type="curve" smooth="yes"/>
      <point x="294" y="854.767"/>
      <point x="335" y="895.767"/>
    </contour>
  </outline>
</glyph>
<glyph name="AE" format="2">
  <advance width="1045"/>
  <unicode hex="00C6"/>
  <anchor x="616" y="810" name="Anchor1"/>
  <anchor x="616" y="810" name="Anchor-1"/>
  <outline>
    <contour>
      <point x="845" y="230" type="line"/>
      <point x="815" y="230" type="line"/>
      <point x="795" y="290" type="line" smooth="yes"/>
      <point x="781.7" y="329.9"/>
      <point x="745" y="340"/>
      <point x="695" y="340" type="curve" smooth="yes"/>
      <point x="615" y="340" type="line"/>
      <point x="615" y="90" type="line"/>
      <point x="615" y="89.9945" type="line" smooth="yes"/>
      <point x="615" y="68.5666"/>
      <point x="628.19" y="56.231"/>
      <point x="650" y="50" type="curve"/>
      <point x="805" y="50" type="line" smooth="yes"/>
      <point x="865" y="50"/>
      <point x="895" y="70"/>
      <point x="925" y="130" type="curve" smooth="yes"/>
      <point x="965" y="210" type="line"/>
      <point x="1005" y="210" type="line"/>
      <point x="975" y="0" type="line"/>
      <point x="720" y="0" type="line"/>
      <point x="395" y="0" type="line"/>
      <point x="395" y="30" type="line"/>
      <point x="475" y="50" type="line" smooth="yes"/>
      <point x="495" y="55"/>
      <point x="505" y="70"/>
      <point x="505" y="90" type="curve" smooth="yes"/>
      <point x="505" y="289.999" type="line"/>
      <point x="321" y="289.999" type="line"/>
      <point x="207" y="99.999" type="line" smooth="yes"/>
      <point x="196.309" y="82.1797"/>
      <point x="215.043" y="56.1396"/>
      <point x="235" y="49.999" type="curve" smooth="yes"/>
      <point x="300" y="29.999" type="line"/>
      <point x="300" y="-0.000976562" type="line"/>
      <point x="40" y="-0.000976562" type="line"/>
      <point x="40" y="29.999" type="line"/>
      <point x="110" y="49.999" type="line" smooth="yes"/>
      <point x="124.925" y="54.2637"/>
      <point x="131.425" y="71.4619"/>
      <point x="142" y="89.999" type="curve" smooth="yes"/>
      <point x="463.164" y="652.959" type="line"/>
      <point x="395" y="670" type="line"/>
      <point x="395" y="700" type="line"/>
      <point x="955" y="700" type="line"/>
      <point x="955" y="510" type="line"/>
      <point x="915" y="510" type="line"/>
      <point x="875" y="590" type="line" smooth="yes"/>
      <point x="850" y="640"/>
      <point x="815" y="650"/>
      <point x="755" y="650" type="curve" smooth="yes"/>
      <point x="655" y="650" type="line" smooth="yes"/>
      <point x="635" y="650"/>
      <point x="615" y="640"/>
      <point x="615" y="610" type="curve" smooth="yes"/>
      <point x="615" y="380" type="line"/>
      <point x="695" y="380" type="line" smooth="yes"/>
      <point x="745" y="380"/>
      <point x="781.7" y="390.1"/>
      <point x="795" y="430" type="curve" smooth="yes"/>
      <point x="815" y="490" type="line"/>
      <point x="845" y="490" type="line"/>
    </contour>
    <contour>
      <point x="504.302" y="618.787" type="curve" smooth="yes"/>
      <point x="341" y="335" type="line"/>
      <point x="505" y="335" type="line"/>
      <point x="505" y="610" type="line" smooth="yes"/>
      <point x="505" y="613.051"/>
      <point x="504.767" y="615.986"/>
    </contour>
  </outline>
</glyph>
<glyph name="Ccedilla" format="2">
  <advance width="664"/>
  <unicode hex="00C7"/>
  <outline>
    <contour>
      <point x="366.548" y="-14.6314" type="line"/>
      <point x="204.199" y="-7.35781"/>
      <point x="40" y="107.71"/>
      <point x="40" y="343" type="curve" smooth="yes"/>
      <point x="40" y="551.084"/>
      <point x="178.619" y="715"/>
      <point x="404" y="715" type="curve" smooth="yes"/>
      <point x="490.464" y="715"/>
      <point x="563.638" y="687.292"/>
      <point x="624" y="641" type="curve"/>
      <point x="624" y="494" type="line"/>
      <point x="580" y="494" type="line"/>
      <point x="554.559" y="620.962"/>
      <point x="480.287" y="675"/>
      <point x="407" y="675" type="curve" smooth="yes"/>
      <point x="390" y="675" type="line" smooth="yes"/>
      <point x="204.79" y="675"/>
      <point x="160" y="493.562"/>
      <point x="160" y="365" type="curve" smooth="yes"/>
      <point x="160" y="115.942"/>
      <point x="274.289" y="25"/>
      <point x="397" y="25" type="curve" smooth="yes"/>
      <point x="407" y="25" type="line" smooth="yes"/>
      <point x="480.287" y="25"/>
      <point x="554.559" y="79.0381"/>
      <point x="580" y="206" type="curve"/>
      <point x="624" y="206" type="line"/>
      <point x="624" y="59" type="line"/>
      <point x="565.6" y="14.2132"/>
      <point x="495.209" y="-13.1785"/>
      <point x="412.392" y="-14.9124" type="curve"/>
      <point x="381.963" y="-69.5723" type="line"/>
      <point x="441.618" y="-74.6929"/>
      <point x="464.5" y="-105.616"/>
      <point x="464.5" y="-137.533" type="curve" smooth="yes"/>
      <point x="464.5" y="-190.533"/>
      <point x="410.5" y="-231.533"/>
      <point x="340.5" y="-231.533" type="curve" smooth="yes"/>
      <point x="323.5" y="-231.533"/>
      <point x="310.5" y="-229.533"/>
      <point x="282.5" y="-223.533" type="curve"/>
      <point x="286.5" y="-207.533" type="line"/>
      <point x="304.5" y="-211.533"/>
      <point x="313.5" y="-212.533"/>
      <point x="322.5" y="-212.533" type="curve" smooth="yes"/>
      <point x="357.5" y="-212.533"/>
      <point x="386.5" y="-188.533"/>
      <point x="386.5" y="-158.533" type="curve" smooth="yes"/>
      <point x="386.5" y="-128.533"/>
      <point x="362.5" y="-109.533"/>
      <point x="316.5" y="-104.533" type="curve"/>
    </contour>
  </outline>
</glyph>
<glyph name="Eth" format="2">
  <advance width="750"/>
  <unicode hex="00D0"/>
  <outline>
    <contour>
      <point x="710" y="350" type="curve" smooth="yes"/>
      <point x="710" y="123.671"/>
      <point x="572" y="0"/>
      <point x="410" y="0" type="curve" smooth="yes"/>
      <point x="40" y="0" type="line"/>
      <point x="40" y="30" type="line"/>
      <point x="120" y="50" type="line" smooth="yes"/>
      <point x="140" y="55"/>
      <point x="150" y="70"/>
      <point x="150" y="90" type="curve" smooth="yes"/>
      <point x="150" y="350" type="line"/>
      <point x="20" y="350" type="line"/>
      <point x="20" y="420" type="line"/>
      <point x="150" y="420" type="line"/>
      <point x="150" y="610" type="line" smooth="yes"/>
      <point x="150" y="630"/>
      <point x="140" y="645"/>
      <point x="120" y="650" type="curve" smooth="yes"/>
      <point x="40" y="670" type="line"/>
      <point x="40" y="700" type="line"/>
      <point x="380" y="700" type="line" smooth="yes"/>
      <point x="626.321" y="700"/>
      <point x="710" y="521.84"/>
    </contour>
    <contour>
      <point x="260" y="80" type="line" smooth="yes"/>
      <point x="260" y="50"/>
      <point x="280" y="40"/>
      <point x="300" y="40" type="curve" smooth="yes"/>
      <point x="380" y="40" type="line" smooth="yes"/>
      <point x="530.938" y="40"/>
      <point x="590" y="214.375"/>
      <point x="590" y="350" type="curve" smooth="yes"/>
      <point x="590" y="542.2"/>
      <point x="502.842" y="660"/>
      <point x="350" y="660" type="curve" smooth="yes"/>
      <point x="300" y="660" type="line" smooth="yes"/>
      <point x="280" y="660"/>
      <point x="260" y="650"/>
      <point x="260" y="620" type="curve" smooth="yes"/>
      <point x="260" y="420" type="line"/>
      <point x="448" y="420" type="line"/>
      <point x="448" y="350" type="line"/>
      <point x="260" y="350" type="line"/>
    </contour>
  </outline>
</glyph>
<glyph name="multiply" format="2">
  <advance width="668"/>
  <unicode hex="00D7"/>
  <outline>
    <contour>
      <point x="142" y="526" type="line"/>
      <point x="304" y="364" type="line"/>
      <point x="466" y="526" type="line"/>
      <point x="515" y="477" type="line"/>
      <point x="353" y="315" type="line"/>
      <point x="515" y="153" type="line"/>
      <point x="466" y="104" type="line"/>
      <point x="304" y="266" type="line"/>
      <point x="142" y="104" type="line"/>
      <point x="93" y="153" type="line"/>
      <point x="255" y="315" type="line"/>
      <point x="93" y="477" type="line"/>
    </contour>
  </outline>
</glyph>
<glyph name="Ucircumflex" format="2">
  <advance width="838"/>
  <unicode hex="00DB"/>
  <outline>
    <contour>
      <point x="370" y="700" type="line"/>
      <point x="370" y="670" type="line"/>
      <point x="290" y="650" type="line" smooth="yes"/>
      <point x="270.597" y="645.149"/>
      <point x="260" y="630"/>
      <point x="260" y="610" type="curve" smooth="yes"/>
      <point x="260" y="234" type="line" smooth="yes"/>
      <point x="260" y="113.334"/>
      <point x="311" y="40"/>
      <point x="448" y="40" type="curve" smooth="yes"/>
      <point x="532" y="40"/>
      <point x="631.506" y="77.1387"/>
      <point x="635" y="267" type="curve" smooth="yes"/>
      <point x="635" y="610" type="line" smooth="yes"/>
      <point x="635" y="630"/>
      <point x="609.251" y="644.577"/>
      <point x="590" y="650" type="curve" smooth="yes"/>
      <point x="519" y="670" type="line"/>
      <point x="519" y="700" type="line"/>
      <point x="798" y="700" type="line"/>
      <point x="798" y="670" type="line"/>
      <point x="730" y="650" type="line" smooth="yes"/>
      <point x="710.812" y="644.356"/>
      <point x="692" y="630"/>
      <point x="692" y="610" type="curve" smooth="yes"/>
      <point x="692" y="257" type="line" smooth="yes"/>
      <point x="692" y="59.7529"/>
      <point x="570" y="-15"/>
      <point x="412" y="-15" type="curve" smooth="yes"/>
      <point x="256" y="-15"/>
      <point x="150" y="72.1768"/>
      <point x="150" y="237.404" type="curve" smooth="yes"/>
      <point x="150" y="610" type="line" smooth="yes"/>
      <point x="150" y="630"/>
      <point x="139.403" y="645.149"/>
      <point x="120" y="650" type="curve" smooth="yes"/>
      <point x="40" y="670" type="line"/>
      <point x="40" y="700" type="line"/>
    </contour>
    <contour>
      <point x="359" y="945" type="line"/>
      <point x="479" y="945" type="line"/>
      <point x="579" y="775" type="line"/>
      <point x="549" y="775" type="line"/>
      <point x="419" y="891.316" type="line"/>
      <point x="289" y="775" type="line"/>
      <point x="259" y="775" type="line"/>
    </contour>
  </outline>
</glyph>
<glyph name="ae" format="2">
  <advance width="784"/>
  <unicode hex="00E6"/>
  <anchor x="403" y="580" name="Anchor1"/>
  <anchor x="403" y="580" name="Anchor-1"/>
  <outline>
    <contour>
      <point x="310" y="55" type="curve" smooth="yes"/>
      <point x="275" y="17"/>
      <point x="240" y="-20"/>
      <point x="180" y="-20" type="curve" smooth="yes"/>
      <point x="100" y="-20"/>
      <point x="40" y="40"/>
      <point x="40" y="120" type="curve" smooth="yes"/>
      <point x="40" y="220"/>
      <point x="160" y="250"/>
      <point x="310" y="300" type="curve"/>
      <point x="310" y="395" type="line" smooth="yes"/>
      <point x="310" y="445"/>
      <point x="275" y="465"/>
      <point x="235" y="465" type="curve" smooth="yes"/>
      <point x="194.586" y="465"/>
      <point x="157.882" y="448.67"/>
      <point x="157.882" y="416" type="curve" smooth="yes"/>
      <point x="157.882" y="408"/>
      <point x="160.207" y="399.586"/>
      <point x="165" y="390" type="curve" smooth="yes"/>
      <point x="180" y="360" type="line"/>
      <point x="160" y="340"/>
      <point x="130" y="330"/>
      <point x="110" y="330" type="curve" smooth="yes"/>
      <point x="80" y="330"/>
      <point x="70" y="360"/>
      <point x="70" y="390" type="curve" smooth="yes"/>
      <point x="70" y="430"/>
      <point x="120" y="500"/>
      <point x="260" y="500" type="curve" smooth="yes"/>
      <point x="334.067" y="500"/>
      <point x="373.847" y="473.328"/>
      <point x="393.449" y="438.803" type="curve"/>
      <point x="433.431" y="475.115"/>
      <point x="483.718" y="495"/>
      <point x="535" y="495" type="curve" smooth="yes"/>
      <point x="670" y="495"/>
      <point x="735" y="393"/>
      <point x="735" y="297" type="curve" smooth="yes"/>
      <point x="735" y="276" type="line"/>
      <point x="420.001" y="276" type="line" smooth="yes"/>
      <point x="420.001" y="275.667"/>
      <point x="420" y="275.334"/>
      <point x="420" y="275" type="curve" smooth="yes"/>
      <point x="420" y="120"/>
      <point x="485" y="55"/>
      <point x="580" y="55" type="curve" smooth="yes"/>
      <point x="625" y="55"/>
      <point x="685" y="85"/>
      <point x="710" y="110" type="curve"/>
      <point x="730" y="90" type="line"/>
      <point x="695" y="45"/>
      <point x="635" y="-15"/>
      <point x="530" y="-15" type="curve" smooth="yes"/>
      <point x="454.151" y="-15"/>
      <point x="380.136" y="19.3977"/>
      <point x="340.258" y="95.6477" type="curve"/>
      <point x="330.401" y="81.8486"/>
      <point x="320.157" y="68.2668"/>
    </contour>
    <contour>
      <point x="310" y="234" type="line"/>
      <point x="310" y="265" type="line"/>
      <point x="180" y="215"/>
      <point x="145" y="190"/>
      <point x="145" y="130" type="curve" smooth="yes"/>
      <point x="145" y="90"/>
      <point x="170" y="50"/>
      <point x="230" y="50" type="curve" smooth="yes"/>
      <point x="285" y="50"/>
      <point x="310" y="90"/>
      <point x="310" y="150" type="curve" smooth="yes"/>
    </contour>
    <contour>
      <point x="422.065" y="320" type="curve"/>
      <point x="625" y="320" type="line"/>
      <point x="627" y="404"/>
      <point x="605" y="455"/>
      <point x="535" y="455" type="curve" smooth="yes"/>
      <point x="473.738" y="455"/>
      <point x="431.624" y="416.703"/>
    </contour>
  </outline>
</glyph>
<glyph name="ccedilla" format="2">
  <advance width="475"/>
  <unicode hex="00E7"/>
  <outline>
    <contour>
      <point x="229.486" y="-13.671" type="line"/>
      <point x="127.838" y="-2.93474"/>
      <point x="40" y="73.3928"/>
      <point x="40" y="235" type="curve" smooth="yes"/>
      <point x="40" y="395"/>
      <point x="155" y="495"/>
      <point x="280" y="495" type="curve" smooth="yes"/>
      <point x="370" y="495"/>
      <point x="445" y="460"/>
      <point x="445" y="380" type="curve" smooth="yes"/>
      <point x="445" y="340"/>
      <point x="420" y="320"/>
      <point x="390" y="320" type="curve" smooth="yes"/>
      <point x="369" y="320"/>
      <point x="350" y="325"/>
      <point x="335" y="335" type="curve"/>
      <point x="335" y="380" type="line" smooth="yes"/>
      <point x="335" y="425"/>
      <point x="310" y="455"/>
      <point x="270" y="455" type="curve" smooth="yes"/>
      <point x="220" y="455"/>
      <point x="150" y="405"/>
      <point x="150" y="275" type="curve" smooth="yes"/>
      <point x="150" y="120"/>
      <point x="225" y="55"/>
      <point x="305" y="55" type="curve" smooth="yes"/>
      <point x="350" y="55"/>
      <point x="410" y="85"/>
      <point x="435" y="110" type="curve"/>
      <point x="455" y="90" type="line"/>
      <point x="422.305" y="47.9642"/>
      <point x="367.796" y="-7.16068"/>
      <point x="275.169" y="-14.2404" type="curve"/>
      <point x="255.463" y="-49.6387" type="line"/>
      <point x="315.118" y="-54.7593"/>
      <point x="338" y="-85.682"/>
      <point x="338" y="-117.6" type="curve" smooth="yes"/>
      <point x="338" y="-170.6"/>
      <point x="284" y="-211.6"/>
      <point x="214" y="-211.6" type="curve" smooth="yes"/>
      <point x="197" y="-211.6"/>
      <point x="184" y="-209.6"/>
      <point x="156" y="-203.6" type="curve"/>
      <point x="160" y="-187.6" type="line"/>
      <point x="178" y="-191.6"/>
      <point x="187" y="-192.6"/>
      <point x="196" y="-192.6" type="curve" smooth="yes"/>
      <point x="231" y="-192.6"/>
      <point x="260" y="-168.6"/>
      <point x="260" y="-138.6" type="curve" smooth="yes"/>
      <point x="260" y="-108.6"/>
      <point x="236" y="-89.5996"/>
      <point x="190" y="-84.5996" type="curve"/>
    </contour>
  </outline>
</glyph>
<glyph name="egrave" format="2">
  <advance width="495"/>
  <unicode hex="00E8"/>
  <outline>
    <contour>
      <point x="100" y="750" type="line"/>
      <point x="220" y="750" type="line"/>
      <point x="270" y="580" type="line"/>
      <point x="240" y="580" type="line"/>
    </contour>
    <contour>
      <point x="145.001" y="276" type="line" smooth="yes"/>
      <point x="145.001" y="275.667"/>
      <point x="145" y="275.334"/>
      <point x="145" y="275" type="curve" smooth="yes"/>
      <point x="145" y="120"/>
      <point x="210" y="55"/>
      <point x="305" y="55" type="curve" smooth="yes"/>
      <point x="350" y="55"/>
      <point x="410" y="85"/>
      <point x="435" y="110" type="curve"/>
      <point x="455" y="90" type="line"/>
      <point x="420" y="45"/>
      <point x="360" y="-15"/>
      <point x="255" y="-15" type="curve" smooth="yes"/>
      <point x="143" y="-15"/>
      <point x="35" y="60"/>
      <point x="35" y="234" type="curve" smooth="yes"/>
      <point x="35" y="395"/>
      <point x="145" y="495"/>
      <point x="260" y="495" type="curve" smooth="yes"/>
      <point x="395" y="495"/>
      <point x="460" y="393"/>
      <point x="460" y="297" type="curve" smooth="yes"/>
      <point x="460" y="276" type="line"/>
    </contour>
    <contour>
      <point x="147.065" y="320" type="curve"/>
      <point x="350" y="320" type="line"/>
      <point x="352" y="404"/>
      <point x="330" y="455"/>
      <point x="260" y="455" type="curve" smooth="yes"/>
      <point x="198.738" y="455"/>
      <point x="156.624" y="416.703"/>
    </contour>
  </outline>
</glyph>
<glyph name="edieresis" format="2">
  <advance width="495"/>
  <unicode hex="00EB"/>
  <outline>
    <contour>
      <point x="165.4" y="671.6" type="curve" smooth="yes"/>
      <point x="197.3" y="671.6"/>
      <point x="223.7" y="645.199"/>
      <point x="223.7" y="613.3" type="curve" smooth="yes"/>
      <point x="223.7" y="581.4"/>
      <point x="197.3" y="555"/>
      <point x="165.4" y="555" type="curve" smooth="yes"/>
      <point x="133.5" y="555"/>
      <point x="107.1" y="581.4"/>
      <point x="107.1" y="613.3" type="curve" smooth="yes"/>
      <point x="107.1" y="645.199"/>
      <point x="133.5" y="671.6"/>
    </contour>
    <contour>
      <point x="354.6" y="671.6" type="curve" smooth="yes"/>
      <point x="386.5" y="671.6"/>
      <point x="412.9" y="645.199"/>
      <point x="412.9" y="613.3" type="curve" smooth="yes"/>
      <point x="412.9" y="581.4"/>
      <point x="386.5" y="555"/>
      <point x="354.6" y="555" type="curve" smooth="yes"/>
      <point x="322.7" y="555"/>
      <point x="296.3" y="581.4"/>
      <point x="296.3" y="613.3" type="curve" smooth="yes"/>
      <point x="296.3" y="645.199"/>
      <point x="322.7" y="671.6"/>
    </contour>
    <contour>
      <point x="145.001" y="276" type="line" smooth="yes"/>
      <point x="145.001" y="275.667"/>
      <point x="145" y="275.334"/>
      <point x="145" y="275" type="curve" smooth="yes"/>
      <point x="145" y="120"/>
      <point x="210" y="55"/>
      <point x="305" y="55" type="curve" smooth="yes"/>
      <point x="350" y="55"/>
      <point x="410" y="85"/>
      <point x="435" y="110" type="curve"/>
      <point x="455" y="90" type="line"/>
      <point x="420" y="45"/>
      <point x="360" y="-15"/>
      <point x="255" y="-15" type="curve" smooth="yes"/>
      <point x="143" y="-15"/>
      <point x="35" y="60"/>
      <point x="35" y="234" type="curve" smooth="yes"/>
      <point x="35" y="395"/>
      <point x="145" y="495"/>
      <point x="260" y="495" type="curve" smooth="yes"/>
      <point x="395" y="495"/>
      <point x="460" y="393"/>
      <point x="460" y="297" type="curve" smooth="yes"/>
      <point x="460" y="276" type="line"/>
    </contour>
    <contour>
      <point x="147.065" y="320" type="curve"/>
      <point x="350" y="320" type="line"/>
      <point x="352" y="404"/>
      <point x="330" y="455"/>
      <point x="260" y="455" type="curve" smooth="yes"/>
      <point x="198.738" y="455"/>
      <point x="156.624" y="416.703"/>
    </contour>
  </outline>
</glyph>
<glyph name="igrave" format="2">
  <advance width="300"/>
  <unicode hex="00EC"/>
  <outline>
    <contour>
      <point x="270" y="0" type="line"/>
      <point x="30" y="0" type="line"/>
      <point x="30" y="25" type="line"/>
      <point x="80" y="35"/>
      <point x="100" y="55"/>
      <point x="100" y="95" type="curve" smooth="yes"/>
      <point x="100" y="400" type="line"/>
      <point x="40" y="430" type="line"/>
      <point x="40" y="450" type="line"/>
      <point x="170" y="500" type="line"/>
      <point x="200" y="490" type="line"/>
      <point x="200" y="95" type="line" smooth="yes"/>
      <point x="200" y="55"/>
      <point x="220" y="35"/>
      <point x="270" y="25" type="curve"/>
    </contour>
    <contour>
      <point x="-10" y="730" type="line"/>
      <point x="110" y="730" type="line"/>
      <point x="160" y="560" type="line"/>
      <point x="130" y="560" type="line"/>
    </contour>
  </outline>
</glyph>
<glyph name="eth" format="2">
  <advance width="514"/>
  <unicode hex="00F0"/>
  <outline>
    <contour>
      <point x="390" y="688" type="line"/>
      <point x="293" y="629.001" type="line"/>
      <point x="432.535" y="515.079"/>
      <point x="485" y="352.182"/>
      <point x="485" y="234.001" type="curve" smooth="yes"/>
      <point x="485" y="74.7646"/>
      <point x="385" y="-14.999"/>
      <point x="259" y="-14.999" type="curve" smooth="yes"/>
      <point x="123" y="-14.999"/>
      <point x="28" y="95.8252"/>
      <point x="28" y="228.001" type="curve" smooth="yes"/>
      <point x="28" y="357.443"/>
      <point x="117" y="460.001"/>
      <point x="251" y="460.001" type="curve" smooth="yes"/>
      <point x="273" y="460.001"/>
      <point x="311" y="453.234"/>
      <point x="338" y="431.001" type="curve"/>
      <point x="340" y="433.001" type="line"/>
      <point x="321.386" y="478.783"/>
      <point x="291.603" y="537.479"/>
      <point x="237" y="595" type="curve"/>
      <point x="126" y="527" type="line"/>
      <point x="108" y="554" type="line"/>
      <point x="214" y="618" type="line"/>
      <point x="187" y="643"/>
      <point x="153" y="669"/>
      <point x="110" y="692" type="curve"/>
      <point x="148" y="715" type="line"/>
      <point x="193" y="697"/>
      <point x="233" y="675"/>
      <point x="266" y="650" type="curve"/>
      <point x="372" y="715" type="line"/>
    </contour>
    <contour>
      <point x="138" y="266" type="curve" smooth="yes"/>
      <point x="138" y="176.629"/>
      <point x="175.655" y="25"/>
      <point x="268" y="25" type="curve" smooth="yes"/>
      <point x="334.238" y="25"/>
      <point x="375" y="92.0068"/>
      <point x="375" y="198" type="curve" smooth="yes"/>
      <point x="375" y="302.047"/>
      <point x="345.395" y="420"/>
      <point x="247" y="420" type="curve" smooth="yes"/>
      <point x="181.072" y="420"/>
      <point x="138" y="379.063"/>
    </contour>
  </outline>
</glyph>
<glyph name="ograve" format="2">
  <advance width="565"/>
  <unicode hex="00F2"/>
  <outline>
    <contour>
      <point x="275" y="-15" type="curve" smooth="yes"/>
      <point x="160" y="-15"/>
      <point x="40" y="65"/>
      <point x="40" y="235" type="curve" smooth="yes"/>
      <point x="40" y="380"/>
      <point x="135" y="495"/>
      <point x="290" y="495" type="curve" smooth="yes"/>
      <point x="410" y="495"/>
      <point x="525" y="415"/>
      <point x="525" y="245" type="curve" smooth="yes"/>
      <point x="525" y="85"/>
      <point x="425" y="-15"/>
    </contour>
    <contour>
      <point x="285" y="25" type="curve" smooth="yes"/>
      <point x="395" y="25"/>
      <point x="415" y="140"/>
      <point x="415" y="230" type="curve" smooth="yes"/>
      <point x="415" y="390"/>
      <point x="350" y="455"/>
      <point x="280" y="455" type="curve" smooth="yes"/>
      <point x="175" y="455"/>
      <point x="150" y="335"/>
      <point x="150" y="250" type="curve" smooth="yes"/>
      <point x="150" y="85"/>
      <point x="215" y="25"/>
    </contour>
    <contour>
      <point x="130" y="730" type="line"/>
      <point x="250" y="730" type="line"/>
      <point x="300" y="560" type="line"/>
      <point x="270" y="560" type="line"/>
    </contour>
  </outline>
</glyph>
<glyph name="odieresis" format="2">
  <advance width="565"/>
  <unicode hex="00F6"/>
  <outline>
    <contour>
      <point x="275" y="-15" type="curve" smooth="yes"/>
      <point x="160" y="-15"/>
      <point x="40" y="65"/>
      <point x="40" y="235" type="curve" smooth="yes"/>
      <point x="40" y="380"/>
      <point x="135" y="495"/>
      <point x="290" y="495" type="curve" smooth="yes"/>
      <point x="410" y="495"/>
      <point x="525" y="415"/>
      <point x="525" y="245" type="curve" smooth="yes"/>
      <point x="525" y="85"/>
      <point x="425" y="-15"/>
    </contour>
    <contour>
      <point x="285" y="25" type="curve" smooth="yes"/>
      <point x="395" y="25"/>
      <point x="415" y="140"/>
      <point x="415" y="230" type="curve" smooth="yes"/>
      <point x="415" y="390"/>
      <point x="350" y="455"/>
      <point x="280" y="455" type="curve" smooth="yes"/>
      <point x="175" y="455"/>
      <point x="150" y="335"/>
      <point x="150" y="250" type="curve" smooth="yes"/>
      <point x="150" y="85"/>
      <point x="215" y="25"/>
    </contour>
    <contour>
      <point x="195.4" y="671.6" type="curve" smooth="yes"/>
      <point x="227.3" y="671.6"/>
      <point x="253.7" y="645.199"/>
      <point x="253.7" y="613.3" type="curve" smooth="yes"/>
      <point x="253.7" y="581.4"/>
      <point x="227.3" y="555"/>
      <point x="195.4" y="555" type="curve" smooth="yes"/>
      <point x="163.5" y="555"/>
      <point x="137.1" y="581.4"/>
      <point x="137.1" y="613.3" type="curve" smooth="yes"/>
      <point x="137.1" y="645.199"/>
      <point x="163.5" y="671.6"/>
    </contour>
    <contour>
      <point x="384.6" y="671.6" type="curve" smooth="yes"/>
      <point x="416.5" y="671.6"/>
      <point x="442.9" y="645.199"/>
      <point x="442.9" y="613.3" type="curve" smooth="yes"/>
      <point x="442.9" y="581.4"/>
      <point x="416.5" y="555"/>
      <point x="384.6" y="555" type="curve" smooth="yes"/>
      <point x="352.7" y="555"/>
      <point x="326.3" y="581.4"/>
      <point x="326.3" y="613.3" type="curve" smooth="yes"/>
      <point x="326.3" y="645.199"/>
      <point x="352.7" y="671.6"/>
    </contour>
  </outline>
</glyph>
<glyph name="divide" format="2">
  <advance width="668"/>
  <unicode hex="00F7"/>
  <outline>
    <contour>
      <point x="66" y="360" type="line"/>
      <point x="601" y="360" type="line"/>
      <point x="601" y="290" type="line"/>
      <point x="66" y="290" type="line"/>
    </contour>
    <contour>
      <point x="333" y="599" type="curve" smooth="yes"/>
      <point x="371.58" y="599"/>
      <point x="403" y="568.737"/>
      <point x="403" y="530.5" type="curve" smooth="yes"/>
      <point x="403" y="492.287"/>
      <point x="371.58" y="460"/>
      <point x="333" y="460" type="curve" smooth="yes"/>
      <point x="294.568" y="460"/>
      <point x="264" y="492.287"/>
      <point x="264" y="530.5" type="curve" smooth="yes"/>
      <point x="264" y="568.737"/>
      <point x="294.568" y="599"/>
    </contour>
    <contour>
      <point x="333" y="191" type="curve" smooth="yes"/>
      <point x="371.58" y="191"/>
      <point x="403" y="160.737"/>
      <point x="403" y="122.5" type="curve" smooth="yes"/>
      <point x="403" y="84.2871"/>
      <point x="371.58" y="52"/>
      <point x="333" y="52" type="curve" smooth="yes"/>
      <point x="294.568" y="52"/>
      <point x="264" y="84.2871"/>
      <point x="264" y="122.5" type="curve" smooth="yes"/>
      <point x="264" y="160.737"/>
      <point x="294.568" y="191"/>
    </contour>
  </outline>
</glyph>
<glyph name="oslash" format="2">
  <advance width="565"/>
  <unicode hex="00F8"/>
  <outline>
    <contour>
      <point x="285" y="25" type="curve" smooth="yes"/>
      <point x="395" y="25"/>
      <point x="415" y="140"/>
      <point x="415" y="230" type="curve" smooth="yes"/>
      <point x="415" y="279.016"/>
      <point x="408.9" y="319.117"/>
      <point x="398.424" y="351.164" type="curve"/>
      <point x="181.788" y="90.8897" type="line"/>
      <point x="207.326" y="44.2395"/>
      <point x="245.361" y="25"/>
    </contour>
    <contour>
      <point x="82" y="-29" type="line"/>
      <point x="51" y="0" type="line"/>
      <point x="100.895" y="59.9428" type="line"/>
      <point x="64.0328" y="100.868"/>
      <point x="40" y="158.922"/>
      <point x="40" y="235" type="curve" smooth="yes"/>
      <point x="40" y="380"/>
      <point x="135" y="495"/>
      <point x="290" y="495" type="curve" smooth="yes"/>
      <point x="339.559" y="495"/>
      <point x="388.264" y="481.355"/>
      <point x="428.369" y="453.361" type="curve"/>
      <point x="465.525" y="498" type="line"/>
      <point x="499" y="472" type="line"/>
      <point x="460.521" y="425.77" type="line"/>
      <point x="499.73" y="384.603"/>
      <point x="525" y="324.69"/>
      <point x="525" y="245" type="curve" smooth="yes"/>
      <point x="525" y="85"/>
      <point x="425" y="-15"/>
      <point x="275" y="-15" type="curve" smooth="yes"/>
      <point x="224.916" y="-15"/>
      <point x="173.884" y="0.173632"/>
      <point x="132.229" y="31.3469" type="curve"/>
    </contour>
    <contour>
      <point x="379.114" y="394.188" type="line"/>
      <point x="353.701" y="436.275"/>
      <point x="317.571" y="455"/>
      <point x="280" y="455" type="curve" smooth="yes"/>
      <point x="175" y="455"/>
      <point x="150" y="335"/>
      <point x="150" y="250" type="curve" smooth="yes"/>
      <point x="150" y="204.028"/>
      <point x="155.046" y="166.206"/>
      <point x="163.84" y="135.563" type="curve"/>
    </contour>
  </outline>
</glyph>
<glyph name="ucircumflex" format="2">
  <advance width="565"/>
  <unicode hex="00FB"/>
  <outline>
    <contour>
      <point x="315" y="450" type="curve"/>
      <point x="315" y="480" type="line"/>
      <point x="485" y="480" type="line"/>
      <point x="485" y="70" type="line"/>
      <point x="545" y="40" type="line"/>
      <point x="545" y="20" type="line"/>
      <point x="420" y="-20" type="line"/>
      <point x="390" y="-10" type="line"/>
      <point x="390" y="60" type="line"/>
      <point x="355" y="10"/>
      <point x="295" y="-10"/>
      <point x="245" y="-10" type="curve" smooth="yes"/>
      <point x="145" y="-10"/>
      <point x="85" y="50"/>
      <point x="85" y="140" type="curve" smooth="yes"/>
      <point x="85" y="380" type="line" smooth="yes"/>
      <point x="85" y="420"/>
      <point x="65" y="440"/>
      <point x="15" y="450" type="curve"/>
      <point x="15" y="480" type="line"/>
      <point x="185" y="480" type="line"/>
      <point x="185" y="150" type="line" smooth="yes"/>
      <point x="185" y="85"/>
      <point x="220" y="50"/>
      <point x="285" y="50" type="curve" smooth="yes"/>
      <point x="340" y="50"/>
      <point x="385" y="85"/>
      <point x="385" y="150" type="curve" smooth="yes"/>
      <point x="385" y="380" type="line" smooth="yes"/>
      <point x="385" y="420"/>
      <point x="365" y="440"/>
    </contour>
    <contour>
      <point x="190" y="725" type="line"/>
      <point x="310" y="725" type="line"/>
      <point x="410" y="555" type="line"/>
      <point x="380" y="555" type="line"/>
      <point x="250" y="671.316" type="line"/>
      <point x="120" y="555" type="line"/>
      <point x="90" y="555" type="line"/>
    </contour>
  </outline>
</glyph>
<glyph name="udieresis" format="2">
  <advance width="565"/>
  <unicode hex="00FC"/>
  <outline>
    <contour>
      <point x="315" y="450" type="curve"/>
      <point x="315" y="480" type="line"/>
      <point x="485" y="480" type="line"/>
      <point x="485" y="70" type="line"/>
      <point x="545" y="40" type="line"/>
      <point x="545" y="20" type="line"/>
      <point x="420" y="-20" type="line"/>
      <point x="390" y="-10" type="line"/>
      <point x="390" y="60" type="line"/>
      <point x="355" y="10"/>
      <point x="295" y="-10"/>
      <point x="245" y="-10" type="curve" smooth="yes"/>
      <point x="145" y="-10"/>
      <point x="85" y="50"/>
      <point x="85" y="140" type="curve" smooth="yes"/>
      <point x="85" y="380" type="line" smooth="yes"/>
      <point x="85" y="420"/>
      <point x="65" y="440"/>
      <point x="15" y="450" type="curve"/>
      <point x="15" y="480" type="line"/>
      <point x="185" y="480" type="line"/>
      <point x="185" y="150" type="line" smooth="yes"/>
      <point x="185" y="85"/>
      <point x="220" y="50"/>
      <point x="285" y="50" type="curve" smooth="yes"/>
      <point x="340" y="50"/>
      <point x="385" y="85"/>
      <point x="385" y="150" type="curve" smooth="yes"/>
      <point x="385" y="380" type="line" smooth="yes"/>
      <point x="385" y="420"/>
      <point x="365" y="440"/>
    </contour>
    <contour>
      <point x="155.4" y="671.6" type="curve" smooth="yes"/>
      <point x="187.3" y="671.6"/>
      <point x="213.7" y="645.199"/>
      <point x="213.7" y="613.3" type="curve" smooth="yes"/>
      <point x="213.7" y="581.4"/>
      <point x="187.3" y="555"/>
      <point x="155.4" y="555" type="curve" smooth="yes"/>
      <point x="123.5" y="555"/>
      <point x="97.0996" y="581.4"/>
      <point x="97.0996" y="613.3" type="curve" smooth="yes"/>
      <point x="97.0996" y="645.199"/>
      <point x="123.5" y="671.6"/>
    </contour>
    <contour>
      <point x="344.6" y="671.6" type="curve" smooth="yes"/>
      <point x="376.5" y="671.6"/>
      <point x="402.9" y="645.199"/>
      <point x="402.9" y="613.3" type="curve" smooth="yes"/>
      <point x="402.9" y="581.4"/>
      <point x="376.5" y="555"/>
      <point x="344.6" y="555" type="curve" smooth="yes"/>
      <point x="312.7" y="555"/>
      <point x="286.3" y="581.4"/>
      <point x="286.3" y="613.3" type="curve" smooth="yes"/>
      <point x="286.3" y="645.199"/>
      <point x="312.7" y="671.6"/>
    </contour>
  </outline>
</glyph>
<glyph name="thorn" format="2">
  <advance width="575"/>
  <unicode hex="00FE"/>
  <outline>
    <contour>
      <point x="170" y="700" type="line"/>
      <point x="170" y="420" type="line"/>
      <point x="180" y="420" type="line"/>
      <point x="210" y="460"/>
      <point x="255" y="500"/>
      <point x="330" y="500" type="curve" smooth="yes"/>
      <point x="480" y="500"/>
      <point x="535" y="380"/>
      <point x="535" y="250" type="curve" smooth="yes"/>
      <point x="535" y="110"/>
      <point x="450" y="-20"/>
      <point x="300" y="-20" type="curve" smooth="yes"/>
      <point x="236" y="-20"/>
      <point x="190" y="1.84961"/>
      <point x="170" y="18" type="curve"/>
      <point x="160" y="13" type="line"/>
      <point x="166.919" y="-10.0801"/>
      <point x="170" y="-34"/>
      <point x="170" y="-62" type="curve" smooth="yes"/>
      <point x="170" y="-120" type="line" smooth="yes"/>
      <point x="170" y="-160"/>
      <point x="190" y="-180"/>
      <point x="240" y="-190" type="curve"/>
      <point x="240" y="-220" type="line"/>
      <point x="170" y="-220" type="line"/>
      <point x="70" y="-220" type="line"/>
      <point x="0" y="-220" type="line"/>
      <point x="0" y="-190" type="line"/>
      <point x="50" y="-180"/>
      <point x="70" y="-160"/>
      <point x="70" y="-120" type="curve" smooth="yes"/>
      <point x="70" y="600" type="line" smooth="yes"/>
      <point x="70" y="615"/>
      <point x="60" y="620"/>
      <point x="50" y="625" type="curve" smooth="yes"/>
      <point x="10" y="645" type="line"/>
      <point x="10" y="670" type="line"/>
      <point x="110" y="700" type="line"/>
    </contour>
    <contour>
      <point x="280" y="25" type="curve" smooth="yes"/>
      <point x="350" y="25"/>
      <point x="425" y="60"/>
      <point x="425" y="240" type="curve" smooth="yes"/>
      <point x="425" y="340"/>
      <point x="380" y="430"/>
      <point x="270" y="430" type="curve" smooth="yes"/>
      <point x="200" y="430"/>
      <point x="170" y="380"/>
      <point x="170" y="290" type="curve" smooth="yes"/>
      <point x="170" y="140" type="line" smooth="yes"/>
      <point x="170" y="90"/>
      <point x="190" y="25"/>
    </contour>
  </outline>
</glyph>
<glyph name="breve" format="2">
  <advance width="638"/>
  <unicode hex="02D8"/>
  <outline>
    <contour>
      <point x="378" y="619" type="curve" smooth="yes"/>
      <point x="378" y="634"/>
      <point x="364.959" y="647"/>
      <point x="364.959" y="667" type="curve" smooth="yes"/>
      <point x="364.959" y="697"/>
      <point x="389" y="706"/>
      <point x="408" y="706" type="curve" smooth="yes"/>
      <point x="440" y="706"/>
      <point x="466.5" y="690"/>
      <point x="466.5" y="648" type="curve" smooth="yes"/>
      <point x="466.5" y="588"/>
      <point x="388.321" y="560"/>
      <point x="312" y="560" type="curve" smooth="yes"/>
      <point x="236.737" y="560"/>
      <point x="160" y="588"/>
      <point x="160" y="648" type="curve" smooth="yes"/>
      <point x="160" y="690"/>
      <point x="187" y="706"/>
      <point x="219" y="706" type="curve" smooth="yes"/>
      <point x="238" y="706"/>
      <point x="262" y="697"/>
      <point x="262" y="667" type="curve" smooth="yes"/>
      <point x="262" y="647"/>
      <point x="249" y="634"/>
      <point x="249" y="619" type="curve" smooth="yes"/>
      <point x="249" y="604"/>
      <point x="272" y="588"/>
      <point x="312" y="588" type="curve" smooth="yes"/>
      <point x="352" y="588"/>
      <point x="378" y="604"/>
    </contour>
  </outline>
</glyph>
<glyph name="ring" format="2">
  <advance width="387"/>
  <unicode hex="02DA"/>
  <outline>
    <contour>
      <point x="193.05" y="717.05" type="curve" smooth="yes"/>
      <point x="163.35" y="717.05"/>
      <point x="139.95" y="693.65"/>
      <point x="139.95" y="663.95" type="curve" smooth="yes"/>
      <point x="139.95" y="634.25"/>
      <point x="163.35" y="609.95"/>
      <point x="193.05" y="609.95" type="curve" smooth="yes"/>
      <point x="222.75" y="609.95"/>
      <point x="247.05" y="634.25"/>
      <point x="247.05" y="663.95" type="curve" smooth="yes"/>
      <point x="247.05" y="693.65"/>
      <point x="222.75" y="717.05"/>
    </contour>
    <contour>
      <point x="193" y="757" type="curve" smooth="yes"/>
      <point x="245" y="757"/>
      <point x="287" y="716"/>
      <point x="287" y="664" type="curve" smooth="yes"/>
      <point x="287" y="612"/>
      <point x="245" y="570"/>
      <point x="193" y="570" type="curve" smooth="yes"/>
      <point x="141" y="570"/>
      <point x="100" y="612"/>
      <point x="100" y="664" type="curve" smooth="yes"/>
      <point x="100" y="716"/>
      <point x="141" y="757"/>
    </contour>
  </outline>
</glyph>
<glyph name="gravecomb" format="2">
  <unicode hex="0300"/>
  <anchor x="-270" y="600" name="_Anchor1"/>
  <anchor x="-270" y="600" name="_Anchor-1"/>
  <outline>
    <contour>
      <point x="-420" y="750" type="line"/>
      <point x="-300" y="750" type="line"/>
      <point x="-250" y="580" type="line"/>
      <point x="-280" y="580" type="line"/>
    </contour>
  </outline>
</glyph>
<glyph name="acutecomb" format="2">
  <unicode hex="0301"/>
  <anchor x="-360" y="600" name="_Anchor1"/>
  <anchor x="-360" y="600" name="_Anchor-1"/>
  <outline>
    <contour>
      <point x="-230" y="750" type="line"/>
      <point x="-370" y="580" type="line"/>
      <point x="-400" y="580" type="line"/>
      <point x="-350" y="750" type="line"/>
    </contour>
  </outline>
</glyph>
<glyph name="circumflexcomb" format="2">
  <unicode hex="0302"/>
  <anchor x="-200" y="600" name="_Anchor1"/>
  <anchor x="-200" y="600" name="_Anchor-1"/>
  <outline>
    <contour>
      <point x="-260" y="750" type="line"/>
      <point x="-140" y="750" type="line"/>
      <point x="-40" y="580" type="line"/>
      <point x="-70" y="580" type="line"/>
      <point x="-200" y="696.316" type="line"/>
      <point x="-330" y="580" type="line"/>
      <point x="-360" y="580" type="line"/>
    </contour>
  </outline>
</glyph>
<glyph name="macroncomb" format="2">
  <unicode hex="0304"/>
  <anchor x="-290" y="580" name="_Anchor1"/>
  <anchor x="-290" y="580" name="_Anchor-1"/>
  <outline>
    <contour>
      <point x="-441" y="650" type="line"/>
      <point x="-130" y="650" type="line"/>
      <point x="-130" y="580" type="line"/>
      <point x="-441" y="580" type="line"/>
    </contour>
  </outline>
</glyph>
<glyph name="brevecomb" format="2">
  <unicode hex="0306"/>
  <anchor x="-285" y="580" name="_Anchor1"/>
  <anchor x="-285" y="580" name="_Anchor-1"/>
  <outline>
    <contour>
      <point x="-218" y="619" type="curve" smooth="yes"/>
      <point x="-218" y="634"/>
      <point x="-232" y="647"/>
      <point x="-232" y="667" type="curve" smooth="yes"/>
      <point x="-232" y="697"/>
      <point x="-207" y="706"/>
      <point x="-188" y="706" type="curve" smooth="yes"/>
      <point x="-156" y="706"/>
      <point x="-130" y="690"/>
      <point x="-130" y="648" type="curve" smooth="yes"/>
      <point x="-130" y="588"/>
      <point x="-208" y="560"/>
      <point x="-284" y="560" type="curve" smooth="yes"/>
      <point x="-359" y="560"/>
      <point x="-436" y="588"/>
      <point x="-436" y="648" type="curve" smooth="yes"/>
      <point x="-436" y="690"/>
      <point x="-410" y="706"/>
      <point x="-378" y="706" type="curve" smooth="yes"/>
      <point x="-359" y="706"/>
      <point x="-334" y="697"/>
      <point x="-334" y="667" type="curve" smooth="yes"/>
      <point x="-334" y="647"/>
      <point x="-348" y="634"/>
      <point x="-348" y="619" type="curve" smooth="yes"/>
      <point x="-348" y="604"/>
      <point x="-324" y="588"/>
      <point x="-284" y="588" type="curve" smooth="yes"/>
      <point x="-244" y="588"/>
      <point x="-218" y="604"/>
    </contour>
  </outline>
</glyph>
<glyph name="uni0327" format="2">
  <advance width="333"/>
  <unicode hex="0327"/>
  <anchor x="-240" y="0" name="_Anchor0"/>
  <anchor x="-240" y="0" name="_Anchor-0"/>
  <outline>
    <contour>
      <point x="-248" y="10" type="line"/>
      <point x="-202" y="10" type="line"/>
      <point x="-236.537" y="-52.0391" type="line"/>
      <point x="-176.882" y="-57.1597"/>
      <point x="-154" y="-88.0824"/>
      <point x="-154" y="-120" type="curve" smooth="yes"/>
      <point x="-154" y="-173"/>
      <point x="-208" y="-214"/>
      <point x="-278" y="-214" type="curve" smooth="yes"/>
      <point x="-295" y="-214"/>
      <point x="-308" y="-212"/>
      <point x="-336" y="-206" type="curve"/>
      <point x="-332" y="-190" type="line"/>
      <point x="-314" y="-194"/>
      <point x="-305" y="-195"/>
      <point x="-296" y="-195" type="curve" smooth="yes"/>
      <point x="-261" y="-195"/>
      <point x="-232" y="-171"/>
      <point x="-232" y="-141" type="curve" smooth="yes"/>
      <point x="-232" y="-111"/>
      <point x="-256" y="-92"/>
      <point x="-302" y="-87" type="curve"/>
    </contour>
  </outline>
</glyph>
<glyph name="uni0401" format="2">
  <advance width="690"/>
  <unicode hex="0401"/>
  <outline>
    <contour>
      <point x="490" y="230" type="line"/>
      <point x="460" y="230" type="line"/>
      <point x="440" y="290" type="line" smooth="yes"/>
      <point x="427" y="330"/>
      <point x="390" y="340"/>
      <point x="340" y="340" type="curve" smooth="yes"/>
      <point x="260" y="340" type="line"/>
      <point x="260" y="90" type="line" smooth="yes"/>
      <point x="260" y="60"/>
      <point x="280" y="50"/>
      <point x="300" y="50" type="curve" smooth="yes"/>
      <point x="450" y="50" type="line" smooth="yes"/>
      <point x="510" y="50"/>
      <point x="540" y="70"/>
      <point x="570" y="130" type="curve" smooth="yes"/>
      <point x="610" y="210" type="line"/>
      <point x="650" y="210" type="line"/>
      <point x="620" y="0" type="line"/>
      <point x="40" y="0" type="line"/>
      <point x="40" y="30" type="line"/>
      <point x="120" y="50" type="line" smooth="yes"/>
      <point x="140" y="55"/>
      <point x="150" y="70"/>
      <point x="150" y="90" type="curve" smooth="yes"/>
      <point x="150" y="610" type="line" smooth="yes"/>
      <point x="150" y="630"/>
      <point x="140" y="645"/>
      <point x="120" y="650" type="curve" smooth="yes"/>
      <point x="40" y="670" type="line"/>
      <point x="40" y="700" type="line"/>
      <point x="600" y="700" type="line"/>
      <point x="600" y="510" type="line"/>
      <point x="560" y="510" type="line"/>
      <point x="520" y="590" type="line" smooth="yes"/>
      <point x="495" y="640"/>
      <point x="460" y="650"/>
      <point x="400" y="650" type="curve" smooth="yes"/>
      <point x="300" y="650" type="line" smooth="yes"/>
      <point x="280" y="650"/>
      <point x="260" y="640"/>
      <point x="260" y="610" type="curve" smooth="yes"/>
      <point x="260" y="380" type="line"/>
      <point x="340" y="380" type="line" smooth="yes"/>
      <point x="390" y="380"/>
      <point x="427" y="390"/>
      <point x="440" y="430" type="curve" smooth="yes"/>
      <point x="460" y="490" type="line"/>
      <point x="490" y="490" type="line"/>
    </contour>
    <contour>
      <point x="225.4" y="891.6" type="curve" smooth="yes"/>
      <point x="257.3" y="891.6"/>
      <point x="283.7" y="865.199"/>
      <point x="283.7" y="833.3" type="curve" smooth="yes"/>
      <point x="283.7" y="801.4"/>
      <point x="257.3" y="775"/>
      <point x="225.4" y="775" type="curve" smooth="yes"/>
      <point x="193.5" y="775"/>
      <point x="167.1" y="801.4"/>
      <point x="167.1" y="833.3" type="curve" smooth="yes"/>
      <point x="167.1" y="865.199"/>
      <point x="193.5" y="891.6"/>
    </contour>
    <contour>
      <point x="414.6" y="891.6" type="curve" smooth="yes"/>
      <point x="446.5" y="891.6"/>
      <point x="472.9" y="865.199"/>
      <point x="472.9" y="833.3" type="curve" smooth="yes"/>
      <point x="472.9" y="801.4"/>
      <point x="446.5" y="775"/>
      <point x="414.6" y="775" type="curve" smooth="yes"/>
      <point x="382.7" y="775"/>
      <point x="356.3" y="801.4"/>
      <point x="356.3" y="833.3" type="curve" smooth="yes"/>
      <point x="356.3" y="865.199"/>
      <point x="382.7" y="891.6"/>
    </contour>
  </outline>
</glyph>
<glyph name="uni0405" format="2">
  <advance width="606"/>
  <unicode hex="0405"/>
  <outline>
    <contour>
      <point x="505" y="641" type="curve"/>
      <point x="505" y="494" type="line"/>
      <point x="461" y="494" type="line"/>
      <point x="435.559" y="610.44"/>
      <point x="381.287" y="660"/>
      <point x="288" y="660" type="curve" smooth="yes"/>
      <point x="203.802" y="660"/>
      <point x="154" y="623.8"/>
      <point x="154" y="556" type="curve" smooth="yes"/>
      <point x="154" y="487.087"/>
      <point x="243.261" y="439.085"/>
      <point x="340" y="408" type="curve" smooth="yes"/>
      <point x="446.659" y="373.728"/>
      <point x="554" y="326.781"/>
      <point x="554" y="200" type="curve" smooth="yes"/>
      <point x="554" y="68.2197"/>
      <point x="458.141" y="-15"/>
      <point x="307" y="-15" type="curve" smooth="yes"/>
      <point x="176.246" y="-15"/>
      <point x="131.372" y="7.28418"/>
      <point x="70" y="40" type="curve"/>
      <point x="70" y="230" type="line"/>
      <point x="117" y="230" type="line"/>
      <point x="133.838" y="113.143"/>
      <point x="195.974" y="40"/>
      <point x="297" y="40" type="curve" smooth="yes"/>
      <point x="388.591" y="40"/>
      <point x="454" y="96.5098"/>
      <point x="454" y="163" type="curve" smooth="yes"/>
      <point x="454" y="231.382"/>
      <point x="384.68" y="267.738"/>
      <point x="294" y="296" type="curve" smooth="yes"/>
      <point x="200.771" y="325.056"/>
      <point x="50" y="389.378"/>
      <point x="50" y="525" type="curve" smooth="yes"/>
      <point x="50" y="640.262"/>
      <point x="145.995" y="715"/>
      <point x="285" y="715" type="curve" smooth="yes"/>
      <point x="371.464" y="715"/>
      <point x="444.638" y="687.292"/>
    </contour>
  </outline>
</glyph>
<glyph name="uni0406" format="2">
  <advance width="410"/>
  <unicode hex="0406"/>
  <outline>
    <contour>
      <point x="370" y="30" type="line"/>
      <point x="370" y="0" type="line"/>
      <point x="40" y="0" type="line"/>
      <point x="40" y="30" type="line"/>
      <point x="120" y="50" type="line" smooth="yes"/>
      <point x="140" y="55"/>
      <point x="150" y="70"/>
      <point x="150" y="90" type="curve" smooth="yes"/>
      <point x="150" y="610" type="line" smooth="yes"/>
      <point x="150" y="630"/>
      <point x="140" y="645"/>
      <point x="120" y="650" type="curve" smooth="yes"/>
      <point x="40" y="670" type="line"/>
      <point x="40" y="700" type="line"/>
      <point x="370" y="700" type="line"/>
      <point x="370" y="670" type="line"/>
      <point x="290" y="650" type="line" smooth="yes"/>
      <point x="270" y="645"/>
      <point x="260" y="630"/>
      <point x="260" y="610" type="curve" smooth="yes"/>
      <point x="260" y="90" type="line" smooth="yes"/>
      <point x="260" y="70"/>
      <point x="270" y="55"/>
      <point x="290" y="50" type="curve" smooth="yes"/>
    </contour>
  </outline>
</glyph>
<glyph name="uni0408" format="2">
  <advance width="410"/>
  <unicode hex="0408"/>
  <outline>
    <contour>
      <point x="40" y="700" type="line"/>
      <point x="370" y="700" type="line"/>
      <point x="370" y="670" type="line"/>
      <point x="290" y="650" type="line" smooth="yes"/>
      <point x="270.597" y="645.149"/>
      <point x="260" y="630"/>
      <point x="260" y="610" type="curve" smooth="yes"/>
      <point x="260" y="27.4629" type="line" smooth="yes"/>
      <point x="260" y="-96.1631"/>
      <point x="216.345" y="-162.889"/>
      <point x="99" y="-162.889" type="curve" smooth="yes"/>
      <point x="38.458" y="-162.889"/>
      <point x="-25.9463" y="-134.864"/>
      <point x="-25.9463" y="-91" type="curve" smooth="yes"/>
      <point x="-25.9463" y="-59.9453"/>
      <point x="-7.06055" y="-45.6826"/>
      <point x="14" y="-45.6826" type="curve" smooth="yes"/>
      <point x="32.0361" y="-45.6826"/>
      <point x="43.0459" y="-58.5352"/>
      <point x="56.5957" y="-76.1006" type="curve"/>
      <point x="56.5957" y="-76.1006"/>
      <point x="81" y="-116.876"/>
      <point x="103.623" y="-116.876" type="curve" smooth="yes"/>
      <point x="124.516" y="-116.876"/>
      <point x="150" y="-101.282"/>
      <point x="150" y="-70.4492" type="curve" smooth="yes"/>
      <point x="150" y="610" type="line" smooth="yes"/>
      <point x="150" y="630"/>
      <point x="139.894" y="645.026"/>
      <point x="120" y="650" type="curve" smooth="yes"/>
      <point x="40" y="670" type="line"/>
    </contour>
  </outline>
</glyph>
<glyph name="uni040A" format="2">
  <advance width="1150"/>
  <unicode hex="040A"/>
  <outline>
    <contour>
      <point x="370" y="30" type="line"/>
      <point x="370" y="0" type="line"/>
      <point x="40" y="0" type="line"/>
      <point x="40" y="30" type="line"/>
      <point x="120" y="50" type="line" smooth="yes"/>
      <point x="140" y="55"/>
      <point x="150" y="70"/>
      <point x="150" y="90" type="curve" smooth="yes"/>
      <point x="150" y="610" type="line" smooth="yes"/>
      <point x="150" y="630"/>
      <point x="140" y="645"/>
      <point x="120" y="650" type="curve" smooth="yes"/>
      <point x="40" y="670" type="line"/>
      <point x="40" y="700" type="line"/>
      <point x="370" y="700" type="line"/>
      <point x="370" y="670" type="line"/>
      <point x="290" y="650" type="line" smooth="yes"/>
      <point x="270" y="645"/>
      <point x="260" y="630"/>
      <point x="260" y="610" type="curve" smooth="yes"/>
      <point x="260" y="380" type="line"/>
      <point x="620" y="380" type="line"/>
      <point x="620" y="610" type="line" smooth="yes"/>
      <point x="620" y="630"/>
      <point x="610" y="645"/>
      <point x="590" y="650" type="curve" smooth="yes"/>
      <point x="510" y="670" type="line"/>
      <point x="510" y="700" type="line"/>
      <point x="828" y="700" type="line"/>
      <point x="840" y="700" type="line"/>
      <point x="840" y="670" type="line"/>
      <point x="760" y="650" type="line" smooth="yes"/>
      <point x="740" y="645"/>
      <point x="730" y="630"/>
      <point x="730" y="610" type="curve" smooth="yes"/>
      <point x="730" y="394" type="line"/>
      <point x="820" y="394" type="line" smooth="yes"/>
      <point x="945" y="394"/>
      <point x="1110" y="340"/>
      <point x="1110" y="200" type="curve" smooth="yes"/>
      <point x="1110" y="70"/>
      <point x="1050" y="0"/>
      <point x="860" y="0" type="curve" smooth="yes"/>
      <point x="840" y="0" type="line"/>
      <point x="510" y="0" type="line"/>
      <point x="510" y="30" type="line"/>
      <point x="590" y="50" type="line" smooth="yes"/>
      <point x="610" y="55"/>
      <point x="620" y="70"/>
      <point x="620" y="90" type="curve" smooth="yes"/>
      <point x="620" y="335" type="line"/>
      <point x="260" y="335" type="line"/>
      <point x="260" y="90" type="line" smooth="yes"/>
      <point x="260" y="70"/>
      <point x="270" y="55"/>
      <point x="290" y="50" type="curve" smooth="yes"/>
    </contour>
    <contour>
      <point x="800" y="40" type="line"/>
      <point x="830" y="40" type="line" smooth="yes"/>
      <point x="920" y="40"/>
      <point x="990" y="100"/>
      <point x="990" y="200" type="curve" smooth="yes"/>
      <point x="990" y="280"/>
      <point x="933" y="354"/>
      <point x="820" y="354" type="curve" smooth="yes"/>
      <point x="730" y="354" type="line"/>
      <point x="730" y="90" type="line" smooth="yes"/>
      <point x="730" y="70"/>
      <point x="740" y="55"/>
      <point x="760" y="50" type="curve" smooth="yes"/>
    </contour>
  </outline>
</glyph>
<glyph name="uni040E" format="2">
  <advance width="752"/>
  <unicode hex="040E"/>
  <outline>
    <contour>
      <point x="184" y="-15" type="curve" smooth="yes"/>
      <point x="154" y="-15"/>
      <point x="129" y="10"/>
      <point x="129" y="40" type="curve" smooth="yes"/>
      <point x="129" y="70"/>
      <point x="154" y="95"/>
      <point x="184" y="95" type="curve" smooth="yes"/>
      <point x="259.938" y="95"/>
      <point x="276.812" y="101.454"/>
      <point x="319" y="166" type="curve"/>
      <point x="125" y="589" type="line" smooth="yes"/>
      <point x="112.066" y="617.201"/>
      <point x="103.231" y="638.549"/>
      <point x="76" y="652.094" type="curve" smooth="yes"/>
      <point x="40" y="670" type="line"/>
      <point x="40" y="700" type="line"/>
      <point x="320" y="700" type="line"/>
      <point x="320" y="670" type="line"/>
      <point x="280" y="650" type="line" smooth="yes"/>
      <point x="252" y="636"/>
      <point x="243" y="619"/>
      <point x="242" y="611" type="curve"/>
      <point x="383" y="287" type="line"/>
      <point x="575" y="610" type="line"/>
      <point x="572.073" y="630.657"/>
      <point x="566.962" y="644.862"/>
      <point x="538" y="652.955" type="curve" smooth="yes"/>
      <point x="477" y="670" type="line"/>
      <point x="477" y="700" type="line"/>
      <point x="712" y="700" type="line"/>
      <point x="712" y="670" type="line"/>
      <point x="669" y="650.409" type="line" smooth="yes"/>
      <point x="648.06" y="640.869"/>
      <point x="637.759" y="608.543"/>
      <point x="618" y="576" type="curve" smooth="yes"/>
      <point x="380" y="184" type="line" smooth="yes"/>
      <point x="293.373" y="41.3203"/>
      <point x="272.2" y="-15"/>
    </contour>
    <contour>
      <point x="440.4" y="834" type="curve" smooth="yes"/>
      <point x="440.4" y="849"/>
      <point x="427.359" y="862"/>
      <point x="427.359" y="882" type="curve" smooth="yes"/>
      <point x="427.359" y="912"/>
      <point x="451.4" y="921"/>
      <point x="470.4" y="921" type="curve" smooth="yes"/>
      <point x="502.4" y="921"/>
      <point x="528.9" y="905"/>
      <point x="528.9" y="863" type="curve" smooth="yes"/>
      <point x="528.9" y="803"/>
      <point x="450.722" y="775"/>
      <point x="374.4" y="775" type="curve" smooth="yes"/>
      <point x="299.138" y="775"/>
      <point x="222.4" y="803"/>
      <point x="222.4" y="863" type="curve" smooth="yes"/>
      <point x="222.4" y="905"/>
      <point x="249.4" y="921"/>
      <point x="281.4" y="921" type="curve" smooth="yes"/>
      <point x="300.4" y="921"/>
      <point x="324.4" y="912"/>
      <point x="324.4" y="882" type="curve" smooth="yes"/>
      <point x="324.4" y="862"/>
      <point x="311.4" y="849"/>
      <point x="311.4" y="834" type="curve" smooth="yes"/>
      <point x="311.4" y="819"/>
      <point x="334.4" y="803"/>
      <point x="374.4" y="803" type="curve" smooth="yes"/>
      <point x="414.4" y="803"/>
      <point x="440.4" y="819"/>
    </contour>
  </outline>
</glyph>
<glyph name="uni040F" format="2">
  <advance width="860"/>
  <unicode hex="040F"/>
  <outline>
    <contour>
      <point x="820" y="30" type="line"/>
      <point x="820" y="0" type="line"/>
      <point x="710" y="0" type="line"/>
      <point x="610" y="0" type="line" smooth="yes"/>
      <point x="550" y="0"/>
      <point x="507.5" y="-7.5"/>
      <point x="490" y="-60" type="curve" smooth="yes"/>
      <point x="450" y="-180" type="line"/>
      <point x="410" y="-180" type="line"/>
      <point x="370" y="-60" type="line" smooth="yes"/>
      <point x="352.5" y="-7.5"/>
      <point x="310" y="0"/>
      <point x="250" y="0" type="curve" smooth="yes"/>
      <point x="40" y="0" type="line"/>
      <point x="40" y="30" type="line"/>
      <point x="120" y="50" type="line" smooth="yes"/>
      <point x="140" y="55"/>
      <point x="150" y="70"/>
      <point x="150" y="90" type="curve" smooth="yes"/>
      <point x="150" y="610" type="line" smooth="yes"/>
      <point x="150" y="630"/>
      <point x="140" y="645"/>
      <point x="120" y="650" type="curve" smooth="yes"/>
      <point x="40" y="670" type="line"/>
      <point x="40" y="700" type="line"/>
      <point x="370" y="700" type="line"/>
      <point x="370" y="670" type="line"/>
      <point x="290" y="650" type="line" smooth="yes"/>
      <point x="270" y="645"/>
      <point x="260" y="630"/>
      <point x="260" y="610" type="curve" smooth="yes"/>
      <point x="260" y="90" type="line" smooth="yes"/>
      <point x="260" y="76.0543"/>
      <point x="264.862" y="64.5396"/>
      <point x="274.586" y="57.1511" type="curve" smooth="yes"/>
      <point x="281.802" y="52.0698"/>
      <point x="290.901" y="50"/>
      <point x="300" y="50" type="curve" smooth="yes"/>
      <point x="410" y="50" type="line"/>
      <point x="450" y="50" type="line"/>
      <point x="550" y="50" type="line"/>
      <point x="560" y="50" type="line" smooth="yes"/>
      <point x="584.77" y="50"/>
      <point x="600" y="65.9736"/>
      <point x="600" y="90" type="curve" smooth="yes"/>
      <point x="600" y="610" type="line" smooth="yes"/>
      <point x="600" y="630"/>
      <point x="590" y="645"/>
      <point x="570" y="650" type="curve" smooth="yes"/>
      <point x="490" y="670" type="line"/>
      <point x="490" y="700" type="line"/>
      <point x="820" y="700" type="line"/>
      <point x="820" y="670" type="line"/>
      <point x="740" y="650" type="line" smooth="yes"/>
      <point x="720" y="645"/>
      <point x="710" y="630"/>
      <point x="710" y="610" type="curve" smooth="yes"/>
      <point x="710" y="90" type="line" smooth="yes"/>
      <point x="710" y="70"/>
      <point x="720" y="55"/>
      <point x="740" y="50" type="curve" smooth="yes"/>
    </contour>
  </outline>
</glyph>
<glyph name="uni0414" format="2">
  <advance width="782"/>
  <unicode hex="0414"/>
  <outline>
    <contour>
      <point x="230" y="0" type="line" smooth="yes"/>
      <point x="170" y="0"/>
      <point x="127.5" y="-7.5"/>
      <point x="110" y="-60" type="curve" smooth="yes"/>
      <point x="70" y="-180" type="line"/>
      <point x="30" y="-180" type="line"/>
      <point x="30" y="50" type="line"/>
      <point x="54" y="50" type="line"/>
      <point x="80" y="50" type="line" smooth="yes"/>
      <point x="142.951" y="50"/>
      <point x="200" y="260.42"/>
      <point x="200" y="411.8" type="curve" smooth="yes"/>
      <point x="200" y="600" type="line"/>
      <point x="200" y="610" type="line" smooth="yes"/>
      <point x="200" y="630"/>
      <point x="190" y="645"/>
      <point x="170" y="650" type="curve" smooth="yes"/>
      <point x="90" y="670" type="line"/>
      <point x="90" y="700" type="line"/>
      <point x="200" y="700" type="line"/>
      <point x="320" y="700" type="line"/>
      <point x="380" y="700" type="line"/>
      <point x="410" y="700" type="line"/>
      <point x="550" y="700" type="line"/>
      <point x="740" y="700" type="line"/>
      <point x="740" y="670" type="line"/>
      <point x="660" y="650" type="line" smooth="yes"/>
      <point x="640" y="645"/>
      <point x="630" y="630"/>
      <point x="630" y="610" type="curve" smooth="yes"/>
      <point x="630" y="90" type="line" smooth="yes"/>
      <point x="630" y="70"/>
      <point x="640" y="55"/>
      <point x="660" y="50" type="curve" smooth="yes"/>
      <point x="740" y="30" type="line"/>
      <point x="740" y="0" type="line"/>
      <point x="730" y="6.10623e-16" type="line"/>
      <point x="730" y="-180" type="line"/>
      <point x="690" y="-180" type="line"/>
      <point x="650" y="-60" type="line" smooth="yes"/>
      <point x="632.5" y="-7.5"/>
      <point x="590" y="0"/>
      <point x="530" y="0" type="curve" smooth="yes"/>
      <point x="410" y="0" type="line"/>
    </contour>
    <contour>
      <point x="149.042" y="50" type="curve"/>
      <point x="490" y="50" type="line"/>
      <point x="510" y="55"/>
      <point x="520" y="70"/>
      <point x="520" y="90" type="curve" smooth="yes"/>
      <point x="520" y="610" type="line" smooth="yes"/>
      <point x="520" y="630"/>
      <point x="510" y="645"/>
      <point x="490" y="650" type="curve"/>
      <point x="320" y="650" type="line"/>
      <point x="310" y="650" type="line" smooth="yes"/>
      <point x="300.901" y="650"/>
      <point x="291.802" y="647.93"/>
      <point x="284.586" y="642.849" type="curve" smooth="yes"/>
      <point x="274.862" y="635.46"/>
      <point x="270" y="623.946"/>
      <point x="270" y="610" type="curve" smooth="yes"/>
      <point x="270" y="600" type="line"/>
      <point x="270" y="414.7" type="line" smooth="yes"/>
      <point x="270" y="262.407"/>
      <point x="213.555" y="128.109"/>
    </contour>
  </outline>
</glyph>
<glyph name="uni0417" format="2">
  <advance width="572"/>
  <unicode hex="0417"/>
  <outline>
    <contour>
      <point x="252.015" y="344.005" type="curve" smooth="yes"/>
      <point x="195.938" y="344.005" type="line"/>
      <point x="195.938" y="383.918" type="line"/>
      <point x="249.52" y="383.918" type="line" smooth="yes"/>
      <point x="354.006" y="383.918"/>
      <point x="382" y="459.921"/>
      <point x="382" y="518" type="curve" smooth="yes"/>
      <point x="382" y="607.555"/>
      <point x="337.269" y="675"/>
      <point x="261" y="675" type="curve" smooth="yes"/>
      <point x="164.033" y="675"/>
      <point x="107.612" y="604.033"/>
      <point x="81.167" y="484.237" type="curve"/>
      <point x="40" y="484.237" type="line"/>
      <point x="40" y="650.125" type="line"/>
      <point x="101.25" y="694.468"/>
      <point x="175.607" y="715.037"/>
      <point x="263.343" y="715.037" type="curve" smooth="yes"/>
      <point x="403.809" y="715.037"/>
      <point x="502" y="632.306"/>
      <point x="502" y="515" type="curve" smooth="yes"/>
      <point x="502" y="448.604"/>
      <point x="475.938" y="389"/>
      <point x="378.577" y="356.625" type="curve"/>
      <point x="470.001" y="338.49"/>
      <point x="532" y="270.195"/>
      <point x="532" y="186" type="curve" smooth="yes"/>
      <point x="532" y="50.7568"/>
      <point x="431.012" y="-15.6377"/>
      <point x="269.56" y="-15.6377" type="curve" smooth="yes"/>
      <point x="191.558" y="-15.6377"/>
      <point x="99.2812" y="6.69141"/>
      <point x="40" y="39.1777" type="curve"/>
      <point x="40" y="231.03" type="line"/>
      <point x="83.6621" y="231.03" type="line"/>
      <point x="100.152" y="108.967"/>
      <point x="161.058" y="25"/>
      <point x="260" y="25" type="curve" smooth="yes"/>
      <point x="358.353" y="25"/>
      <point x="412" y="104.148"/>
      <point x="412" y="189" type="curve" smooth="yes"/>
      <point x="412" y="278.761"/>
      <point x="345.057" y="344.005"/>
    </contour>
  </outline>
</glyph>
<glyph name="uni0418" format="2">
  <advance width="890"/>
  <unicode hex="0418"/>
  <outline>
    <contour>
      <point x="370" y="30" type="line"/>
      <point x="370" y="0" type="line"/>
      <point x="40" y="0" type="line"/>
      <point x="40" y="30" type="line"/>
      <point x="120" y="50" type="line" smooth="yes"/>
      <point x="140" y="55"/>
      <point x="150" y="70"/>
      <point x="150" y="90" type="curve" smooth="yes"/>
      <point x="150" y="110" type="line"/>
      <point x="150" y="560" type="line"/>
      <point x="150" y="610" type="line" smooth="yes"/>
      <point x="150" y="630"/>
      <point x="140" y="645"/>
      <point x="120" y="650" type="curve" smooth="yes"/>
      <point x="40" y="670" type="line"/>
      <point x="40" y="700" type="line"/>
      <point x="370" y="700" type="line"/>
      <point x="370" y="670" type="line"/>
      <point x="290" y="650" type="line" smooth="yes"/>
      <point x="270" y="645"/>
      <point x="260" y="630"/>
      <point x="260" y="610" type="curve" smooth="yes"/>
      <point x="260" y="560" type="line"/>
      <point x="260" y="200" type="line"/>
      <point x="630" y="570" type="line"/>
      <point x="630" y="610" type="line" smooth="yes"/>
      <point x="630" y="630"/>
      <point x="620" y="645"/>
      <point x="600" y="650" type="curve" smooth="yes"/>
      <point x="520" y="670" type="line"/>
      <point x="520" y="700" type="line"/>
      <point x="850" y="700" type="line"/>
      <point x="850" y="670" type="line"/>
      <point x="770" y="650" type="line" smooth="yes"/>
      <point x="750" y="645"/>
      <point x="740" y="630"/>
      <point x="740" y="610" type="curve" smooth="yes"/>
      <point x="740" y="90" type="line" smooth="yes"/>
      <point x="740" y="70"/>
      <point x="750" y="55"/>
      <point x="770" y="50" type="curve" smooth="yes"/>
      <point x="850" y="30" type="line"/>
      <point x="850" y="0" type="line"/>
      <point x="520" y="0" type="line"/>
      <point x="520" y="30" type="line"/>
      <point x="600" y="50" type="line" smooth="yes"/>
      <point x="620" y="55"/>
      <point x="630" y="70"/>
      <point x="630" y="90" type="curve" smooth="yes"/>
      <point x="630" y="500" type="line"/>
      <point x="260" y="130" type="line"/>
      <point x="260" y="110" type="line"/>
      <point x="260" y="90" type="line" smooth="yes"/>
      <point x="260" y="70"/>
      <point x="270" y="55"/>
      <point x="290" y="50" type="curve" smooth="yes"/>
    </contour>
  </outline>
</glyph>
<glyph name="uni0419" format="2">
  <advance width="890"/>
  <unicode hex="0419"/>
  <outline>
    <contour>
      <point x="370" y="29.999" type="line"/>
      <point x="370" y="-0.000976562" type="line"/>
      <point x="40" y="-0.000976562" type="line"/>
      <point x="40" y="29.999" type="line"/>
      <point x="120" y="49.999" type="line" smooth="yes"/>
      <point x="140" y="54.999"/>
      <point x="150" y="69.999"/>
      <point x="150" y="89.999" type="curve" smooth="yes"/>
      <point x="150" y="109.999" type="line"/>
      <point x="150" y="559.999" type="line"/>
      <point x="150" y="609.999" type="line" smooth="yes"/>
      <point x="150" y="629.999"/>
      <point x="140" y="644.999"/>
      <point x="120" y="649.999" type="curve" smooth="yes"/>
      <point x="40" y="669.999" type="line"/>
      <point x="40" y="699.999" type="line"/>
      <point x="370" y="699.999" type="line"/>
      <point x="370" y="669.999" type="line"/>
      <point x="290" y="649.999" type="line" smooth="yes"/>
      <point x="270" y="644.999"/>
      <point x="260" y="629.999"/>
      <point x="260" y="609.999" type="curve" smooth="yes"/>
      <point x="260" y="559.999" type="line"/>
      <point x="260" y="199.999" type="line"/>
      <point x="630" y="569.999" type="line"/>
      <point x="630" y="609.999" type="line" smooth="yes"/>
      <point x="630" y="629.999"/>
      <point x="620" y="644.999"/>
      <point x="600" y="649.999" type="curve" smooth="yes"/>
      <point x="520" y="669.999" type="line"/>
      <point x="520" y="699.999" type="line"/>
      <point x="850" y="699.999" type="line"/>
      <point x="850" y="669.999" type="line"/>
      <point x="770" y="649.999" type="line" smooth="yes"/>
      <point x="750" y="644.999"/>
      <point x="740" y="629.999"/>
      <point x="740" y="609.999" type="curve" smooth="yes"/>
      <point x="740" y="89.999" type="line" smooth="yes"/>
      <point x="740" y="69.999"/>
      <point x="750" y="54.999"/>
      <point x="770" y="49.999" type="curve" smooth="yes"/>
      <point x="850" y="29.999" type="line"/>
      <point x="850" y="-0.000976562" type="line"/>
      <point x="520" y="-0.000976562" type="line"/>
      <point x="520" y="29.999" type="line"/>
      <point x="600" y="49.999" type="line" smooth="yes"/>
      <point x="620" y="54.999"/>
      <point x="630" y="69.999"/>
      <point x="630" y="89.999" type="curve" smooth="yes"/>
      <point x="630" y="499.999" type="line"/>
      <point x="260" y="129.999" type="line"/>
      <point x="260" y="109.999" type="line"/>
      <point x="260" y="89.999" type="line" smooth="yes"/>
      <point x="260" y="69.999"/>
      <point x="270" y="54.999"/>
      <point x="290" y="49.999" type="curve" smooth="yes"/>
    </contour>
    <contour>
      <point x="511.12" y="849" type="curve" smooth="yes"/>
      <point x="511.12" y="862.389"/>
      <point x="497.959" y="876.837"/>
      <point x="497.959" y="895" type="curve" smooth="yes"/>
      <point x="497.959" y="925.526"/>
      <point x="523.606" y="934.3"/>
      <point x="541.199" y="934.3" type="curve" smooth="yes"/>
      <point x="573.1" y="934.3"/>
      <point x="599.5" y="917.899"/>
      <point x="599.5" y="876" type="curve" smooth="yes"/>
      <point x="599.5" y="813.439"/>
      <point x="521.321" y="788"/>
      <point x="445" y="788" type="curve" smooth="yes"/>
      <point x="369.737" y="788"/>
      <point x="293.699" y="814.79"/>
      <point x="293.699" y="876" type="curve" smooth="yes"/>
      <point x="293.699" y="917.899"/>
      <point x="320.1" y="934.3"/>
      <point x="352" y="934.3" type="curve" smooth="yes"/>
      <point x="370.166" y="934.3"/>
      <point x="395.356" y="926.027"/>
      <point x="395.356" y="895" type="curve" smooth="yes"/>
      <point x="395.356" y="874.93"/>
      <point x="381.51" y="861.962"/>
      <point x="381.51" y="847" type="curve" smooth="yes"/>
      <point x="381.51" y="831.878"/>
      <point x="403.783" y="816"/>
      <point x="445" y="816" type="curve" smooth="yes"/>
      <point x="487.558" y="816"/>
      <point x="511.12" y="832.884"/>
    </contour>
  </outline>
</glyph>
<glyph name="uni041C" format="2">
  <advance width="1000"/>
  <unicode hex="041C"/>
  <outline>
    <contour>
      <point x="128" y="670" type="line"/>
      <point x="128" y="700" type="line"/>
      <point x="320" y="700" type="line"/>
      <point x="497" y="180" type="line"/>
      <point x="669" y="625" type="line"/>
      <point x="669" y="700" type="line"/>
      <point x="864" y="700" type="line"/>
      <point x="864" y="670" type="line"/>
      <point x="804" y="640" type="line"/>
      <point x="788" y="610" type="line"/>
      <point x="854" y="100" type="line"/>
      <point x="873" y="50" type="line"/>
      <point x="955" y="30" type="line"/>
      <point x="955" y="0" type="line"/>
      <point x="648" y="0" type="line"/>
      <point x="648" y="30" type="line"/>
      <point x="728" y="60" type="line"/>
      <point x="750" y="90" type="line"/>
      <point x="696.813" y="540" type="line"/>
      <point x="490" y="0" type="line"/>
      <point x="440" y="0" type="line"/>
      <point x="250" y="540" type="line"/>
      <point x="200" y="100" type="line" smooth="yes"/>
      <point x="200.75" y="72.083"/>
      <point x="217.587" y="60.2529"/>
      <point x="236" y="50" type="curve" smooth="yes"/>
      <point x="278" y="30" type="line"/>
      <point x="278" y="0" type="line"/>
      <point x="40" y="0" type="line"/>
      <point x="40" y="30" type="line"/>
      <point x="91" y="50" type="line" smooth="yes"/>
      <point x="119.139" y="62.5283"/>
      <point x="137.671" y="84.6631"/>
      <point x="147" y="116" type="curve"/>
      <point x="220" y="618" type="line"/>
      <point x="180" y="650" type="line"/>
    </contour>
  </outline>
</glyph>
<glyph name="uni041F" format="2">
  <advance width="880"/>
  <unicode hex="041F"/>
  <outline>
    <contour>
      <point x="830" y="30" type="line"/>
      <point x="830" y="0" type="line"/>
      <point x="500" y="0" type="line"/>
      <point x="500" y="30" type="line"/>
      <point x="580" y="50" type="line" smooth="yes"/>
      <point x="600" y="55"/>
      <point x="610" y="70"/>
      <point x="610" y="90" type="curve" smooth="yes"/>
      <point x="610" y="610" type="line" smooth="yes"/>
      <point x="610" y="634.026"/>
      <point x="594.77" y="650"/>
      <point x="570" y="650" type="curve" smooth="yes"/>
      <point x="560" y="650" type="line"/>
      <point x="310" y="650" type="line"/>
      <point x="300" y="650" type="line" smooth="yes"/>
      <point x="290.901" y="650"/>
      <point x="281.802" y="647.93"/>
      <point x="274.586" y="642.849" type="curve" smooth="yes"/>
      <point x="264.862" y="635.46"/>
      <point x="260" y="623.946"/>
      <point x="260" y="610" type="curve" smooth="yes"/>
      <point x="260" y="90" type="line" smooth="yes"/>
      <point x="260" y="70"/>
      <point x="270" y="55"/>
      <point x="290" y="50" type="curve" smooth="yes"/>
      <point x="370" y="30" type="line"/>
      <point x="370" y="0" type="line"/>
      <point x="40" y="0" type="line"/>
      <point x="40" y="30" type="line"/>
      <point x="120" y="50" type="line" smooth="yes"/>
      <point x="140" y="55"/>
      <point x="150" y="70"/>
      <point x="150" y="90" type="curve" smooth="yes"/>
      <point x="150" y="610" type="line" smooth="yes"/>
      <point x="150" y="630"/>
      <point x="140" y="645"/>
      <point x="120" y="650" type="curve" smooth="yes"/>
      <point x="40" y="670" type="line"/>
      <point x="40" y="700" type="line"/>
      <point x="150" y="700" type="line"/>
      <point x="310" y="700" type="line"/>
      <point x="370" y="700" type="line"/>
      <point x="500" y="700" type="line"/>
      <point x="560" y="700" type="line"/>
      <point x="720" y="700" type="line"/>
      <point x="830" y="700" type="line"/>
      <point x="830" y="670" type="line"/>
      <point x="750" y="650" type="line" smooth="yes"/>
      <point x="730" y="645"/>
      <point x="720" y="630"/>
      <point x="720" y="610" type="curve" smooth="yes"/>
      <point x="720" y="90" type="line" smooth="yes"/>
      <point x="720" y="70"/>
      <point x="730" y="55"/>
      <point x="750" y="50" type="curve" smooth="yes"/>
    </contour>
  </outline>
</glyph>
<glyph name="uni0422" format="2">
  <advance width="690"/>
  <unicode hex="0422"/>
  <outline>
    <contour>
      <point x="510" y="0" type="line"/>
      <point x="180" y="0" type="line"/>
      <point x="180" y="30" type="line"/>
      <point x="260" y="50" type="line" smooth="yes"/>
      <point x="280" y="55"/>
      <point x="290" y="70"/>
      <point x="290" y="90" type="curve" smooth="yes"/>
      <point x="290" y="610" type="line" smooth="yes"/>
      <point x="290" y="634.026"/>
      <point x="274.77" y="650"/>
      <point x="250" y="650" type="curve" smooth="yes"/>
      <point x="240" y="650" type="line" smooth="yes"/>
      <point x="180" y="650"/>
      <point x="145" y="640"/>
      <point x="120" y="590" type="curve" smooth="yes"/>
      <point x="80" y="510" type="line"/>
      <point x="40" y="510" type="line"/>
      <point x="40" y="700" type="line"/>
      <point x="650" y="700" type="line"/>
      <point x="650" y="510" type="line"/>
      <point x="610" y="510" type="line"/>
      <point x="570" y="590" type="line" smooth="yes"/>
      <point x="545" y="640"/>
      <point x="510" y="650"/>
      <point x="450" y="650" type="curve" smooth="yes"/>
      <point x="440" y="650" type="line" smooth="yes"/>
      <point x="420" y="650"/>
      <point x="400" y="640"/>
      <point x="400" y="610" type="curve" smooth="yes"/>
      <point x="400" y="90" type="line" smooth="yes"/>
      <point x="400" y="70"/>
      <point x="410" y="55"/>
      <point x="430" y="50" type="curve" smooth="yes"/>
      <point x="510" y="30" type="line"/>
    </contour>
  </outline>
</glyph>
<glyph name="uni0423" format="2">
  <advance width="752"/>
  <unicode hex="0423"/>
  <outline>
    <contour>
      <point x="184" y="-15" type="curve" smooth="yes"/>
      <point x="154" y="-15"/>
      <point x="129.001" y="9.99707"/>
      <point x="129.001" y="39.9971" type="curve" smooth="yes"/>
      <point x="129.001" y="69.9971"/>
      <point x="154.001" y="94.9971"/>
      <point x="184.001" y="94.9971" type="curve" smooth="yes"/>
      <point x="259.938" y="94.9971"/>
      <point x="276.813" y="101.451"/>
      <point x="319.001" y="165.997" type="curve"/>
      <point x="125.001" y="588.997" type="line" smooth="yes"/>
      <point x="112.067" y="617.198"/>
      <point x="103.232" y="638.547"/>
      <point x="76.002" y="652.092" type="curve" smooth="yes"/>
      <point x="40.002" y="669.998" type="line"/>
      <point x="40.002" y="699.998" type="line"/>
      <point x="320.002" y="699.998" type="line"/>
      <point x="320.002" y="669.998" type="line"/>
      <point x="280.002" y="649.998" type="line" smooth="yes"/>
      <point x="252.002" y="635.998"/>
      <point x="243.002" y="618.998"/>
      <point x="242.002" y="610.998" type="curve"/>
      <point x="383.002" y="286.998" type="line"/>
      <point x="575.002" y="609.998" type="line"/>
      <point x="572.075" y="630.655"/>
      <point x="566.963" y="644.861"/>
      <point x="538.001" y="652.954" type="curve" smooth="yes"/>
      <point x="477.001" y="669.999" type="line"/>
      <point x="477.001" y="699.999" type="line"/>
      <point x="712.001" y="699.999" type="line"/>
      <point x="712.001" y="669.999" type="line"/>
      <point x="669.001" y="650.408" type="line" smooth="yes"/>
      <point x="648.061" y="640.868"/>
      <point x="637.759" y="608.543"/>
      <point x="618" y="576" type="curve" smooth="yes"/>
      <point x="380" y="184" type="line" smooth="yes"/>
      <point x="293.373" y="41.3203"/>
      <point x="272.2" y="-15"/>
    </contour>
  </outline>
</glyph>
<glyph name="uni0424" format="2">
  <advance width="782"/>
  <unicode hex="0424"/>
  <outline>
    <contour>
      <point x="336" y="150" type="line"/>
      <point x="336" y="555" type="line"/>
      <point x="310.04" y="555" type="line" smooth="yes"/>
      <point x="203.73" y="555"/>
      <point x="160" y="472.805"/>
      <point x="160" y="338" type="curve" smooth="yes"/>
      <point x="160" y="212.138"/>
      <point x="231.282" y="150"/>
      <point x="298" y="150" type="curve" smooth="yes"/>
    </contour>
    <contour>
      <point x="484" y="150" type="line" smooth="yes"/>
      <point x="550.718" y="150"/>
      <point x="622" y="212.138"/>
      <point x="622" y="338" type="curve" smooth="yes"/>
      <point x="622" y="472.805"/>
      <point x="578.35" y="555"/>
      <point x="472.04" y="555" type="curve" smooth="yes"/>
      <point x="446" y="555" type="line"/>
      <point x="446" y="150" type="line"/>
    </contour>
    <contour>
      <point x="556" y="30" type="line"/>
      <point x="556" y="0" type="line"/>
      <point x="226" y="0" type="line"/>
      <point x="226" y="30" type="line"/>
      <point x="306" y="50" type="line" smooth="yes"/>
      <point x="326" y="55"/>
      <point x="336" y="70"/>
      <point x="336" y="90" type="curve" smooth="yes"/>
      <point x="336" y="100" type="line"/>
      <point x="336" y="110" type="line"/>
      <point x="275" y="110" type="line" smooth="yes"/>
      <point x="124.623" y="110"/>
      <point x="40" y="220.414"/>
      <point x="40" y="338" type="curve" smooth="yes"/>
      <point x="40" y="472.104"/>
      <point x="102.857" y="595"/>
      <point x="275.24" y="595" type="curve" smooth="yes"/>
      <point x="336" y="595" type="line"/>
      <point x="336" y="600" type="line"/>
      <point x="336" y="610" type="line" smooth="yes"/>
      <point x="336" y="630"/>
      <point x="326" y="645"/>
      <point x="306" y="650" type="curve" smooth="yes"/>
      <point x="226" y="670" type="line"/>
      <point x="226" y="700" type="line"/>
      <point x="556" y="700" type="line"/>
      <point x="556" y="670" type="line"/>
      <point x="476" y="650" type="line" smooth="yes"/>
      <point x="456" y="645"/>
      <point x="446" y="630"/>
      <point x="446" y="610" type="curve" smooth="yes"/>
      <point x="446" y="600" type="line"/>
      <point x="446" y="595" type="line"/>
      <point x="506.84" y="595" type="line" smooth="yes"/>
      <point x="679.222" y="595"/>
      <point x="742" y="472.104"/>
      <point x="742" y="338" type="curve" smooth="yes"/>
      <point x="742" y="220.414"/>
      <point x="657.375" y="110"/>
      <point x="507" y="110" type="curve" smooth="yes"/>
      <point x="446" y="110" type="line"/>
      <point x="446" y="100" type="line"/>
      <point x="446" y="90" type="line" smooth="yes"/>
      <point x="446" y="70"/>
      <point x="456" y="55"/>
      <point x="476" y="50" type="curve" smooth="yes"/>
    </contour>
  </outline>
</glyph>
<glyph name="uni0426" format="2">
  <advance width="860"/>
  <unicode hex="0426"/>
  <outline>
    <contour>
      <point x="274.586" y="57.1511" type="curve" smooth="yes"/>
      <point x="281.802" y="52.0698"/>
      <point x="290.901" y="50"/>
      <point x="300" y="50" type="curve" smooth="yes"/>
      <point x="550" y="50" type="line"/>
      <point x="560" y="50" type="line" smooth="yes"/>
      <point x="584.77" y="50"/>
      <point x="600" y="65.9736"/>
      <point x="600" y="90" type="curve" smooth="yes"/>
      <point x="600" y="610" type="line" smooth="yes"/>
      <point x="600" y="630"/>
      <point x="590" y="645"/>
      <point x="570" y="650" type="curve" smooth="yes"/>
      <point x="490" y="670" type="line"/>
      <point x="490" y="700" type="line"/>
      <point x="820" y="700" type="line"/>
      <point x="820" y="670" type="line"/>
      <point x="740" y="650" type="line" smooth="yes"/>
      <point x="720" y="645"/>
      <point x="710" y="630"/>
      <point x="710" y="610" type="curve" smooth="yes"/>
      <point x="710" y="90" type="line" smooth="yes"/>
      <point x="710" y="70"/>
      <point x="720" y="55"/>
      <point x="740" y="50" type="curve" smooth="yes"/>
      <point x="820" y="30" type="line"/>
      <point x="820" y="8.32667e-16" type="line"/>
      <point x="820" y="-180" type="line"/>
      <point x="780" y="-180" type="line"/>
      <point x="740" y="-60" type="line" smooth="yes"/>
      <point x="722.5" y="-7.5"/>
      <point x="680" y="0"/>
      <point x="620" y="0" type="curve" smooth="yes"/>
      <point x="600" y="0" type="line"/>
      <point x="550" y="0" type="line"/>
      <point x="370" y="0" type="line"/>
      <point x="300" y="0" type="line"/>
      <point x="151" y="0" type="line"/>
      <point x="40" y="0" type="line"/>
      <point x="40" y="30" type="line"/>
      <point x="120" y="50" type="line" smooth="yes"/>
      <point x="140" y="55"/>
      <point x="150" y="70"/>
      <point x="150" y="90" type="curve" smooth="yes"/>
      <point x="150" y="610" type="line" smooth="yes"/>
      <point x="150" y="630"/>
      <point x="140" y="645"/>
      <point x="120" y="650" type="curve" smooth="yes"/>
      <point x="40" y="670" type="line"/>
      <point x="40" y="700" type="line"/>
      <point x="370" y="700" type="line"/>
      <point x="370" y="670" type="line"/>
      <point x="290" y="650" type="line" smooth="yes"/>
      <point x="270" y="645"/>
      <point x="260" y="630"/>
      <point x="260" y="610" type="curve" smooth="yes"/>
      <point x="260" y="90" type="line" smooth="yes"/>
      <point x="260" y="76.0543"/>
      <point x="264.862" y="64.5396"/>
    </contour>
  </outline>
</glyph>
<glyph name="uni0427" format="2">
  <advance width="838"/>
  <unicode hex="0427"/>
  <outline>
    <contour>
      <point x="370" y="700" type="line"/>
      <point x="370" y="670" type="line"/>
      <point x="290" y="650" type="line" smooth="yes"/>
      <point x="270.597" y="645.149"/>
      <point x="260" y="630"/>
      <point x="260" y="610" type="curve" smooth="yes"/>
      <point x="260" y="499" type="line" smooth="yes"/>
      <point x="260" y="378.334"/>
      <point x="311" y="305"/>
      <point x="448" y="305" type="curve" smooth="yes"/>
      <point x="479.534" y="305"/>
      <point x="507.402" y="310.912"/>
      <point x="542" y="335.339" type="curve"/>
      <point x="542" y="610" type="line" smooth="yes"/>
      <point x="542" y="630"/>
      <point x="532" y="645"/>
      <point x="512" y="650" type="curve" smooth="yes"/>
      <point x="432" y="670" type="line"/>
      <point x="432" y="700" type="line"/>
      <point x="595" y="700" type="line"/>
      <point x="652" y="700" type="line"/>
      <point x="762" y="700" type="line"/>
      <point x="762" y="670" type="line"/>
      <point x="682" y="650" type="line" smooth="yes"/>
      <point x="662" y="645"/>
      <point x="652" y="630"/>
      <point x="652" y="610" type="curve" smooth="yes"/>
      <point x="652" y="372" type="line"/>
      <point x="652" y="90" type="line" smooth="yes"/>
      <point x="652" y="70"/>
      <point x="662" y="55"/>
      <point x="682" y="50" type="curve" smooth="yes"/>
      <point x="762" y="30" type="line"/>
      <point x="762" y="0" type="line"/>
      <point x="432" y="0" type="line"/>
      <point x="432" y="30" type="line"/>
      <point x="512" y="50" type="line" smooth="yes"/>
      <point x="532" y="55"/>
      <point x="542" y="70"/>
      <point x="542" y="90" type="curve" smooth="yes"/>
      <point x="542" y="272.693" type="line"/>
      <point x="506.25" y="256.898"/>
      <point x="464.357" y="250"/>
      <point x="412" y="250" type="curve" smooth="yes"/>
      <point x="256" y="250"/>
      <point x="150" y="337.177"/>
      <point x="150" y="502.404" type="curve" smooth="yes"/>
      <point x="150" y="610" type="line" smooth="yes"/>
      <point x="150" y="630"/>
      <point x="139.403" y="645.149"/>
      <point x="120" y="650" type="curve" smooth="yes"/>
      <point x="40" y="670" type="line"/>
      <point x="40" y="700" type="line"/>
    </contour>
  </outline>
</glyph>
<glyph name="uni0428" format="2">
  <advance width="1130"/>
  <unicode hex="0428"/>
  <outline>
    <contour>
      <point x="1090" y="30" type="line"/>
      <point x="1090" y="0" type="line"/>
      <point x="980" y="0" type="line"/>
      <point x="760" y="0" type="line"/>
      <point x="745" y="0" type="line"/>
      <point x="730" y="0" type="line"/>
      <point x="620" y="0" type="line"/>
      <point x="510" y="0" type="line"/>
      <point x="400" y="0" type="line"/>
      <point x="385" y="0" type="line"/>
      <point x="370" y="0" type="line"/>
      <point x="150" y="0" type="line"/>
      <point x="40" y="0" type="line"/>
      <point x="40" y="30" type="line"/>
      <point x="120" y="50" type="line" smooth="yes"/>
      <point x="140" y="55"/>
      <point x="150" y="70"/>
      <point x="150" y="90" type="curve" smooth="yes"/>
      <point x="150" y="610" type="line" smooth="yes"/>
      <point x="150" y="630"/>
      <point x="140" y="645"/>
      <point x="120" y="650" type="curve" smooth="yes"/>
      <point x="40" y="670" type="line"/>
      <point x="40" y="700" type="line"/>
      <point x="370" y="700" type="line"/>
      <point x="370" y="670" type="line"/>
      <point x="290" y="650" type="line" smooth="yes"/>
      <point x="270" y="645"/>
      <point x="260" y="630"/>
      <point x="260" y="610" type="curve" smooth="yes"/>
      <point x="260" y="90" type="line" smooth="yes"/>
      <point x="260" y="76.0543"/>
      <point x="264.862" y="64.5396"/>
      <point x="274.586" y="57.1511" type="curve" smooth="yes"/>
      <point x="281.802" y="52.0698"/>
      <point x="290.901" y="50"/>
      <point x="300" y="50" type="curve" smooth="yes"/>
      <point x="385" y="50" type="line"/>
      <point x="470" y="50" type="line" smooth="yes"/>
      <point x="494.77" y="50"/>
      <point x="510" y="65.9736"/>
      <point x="510" y="90" type="curve" smooth="yes"/>
      <point x="510" y="610" type="line" smooth="yes"/>
      <point x="510" y="630"/>
      <point x="500" y="645"/>
      <point x="480" y="650" type="curve" smooth="yes"/>
      <point x="400" y="670" type="line"/>
      <point x="400" y="700" type="line"/>
      <point x="730" y="700" type="line"/>
      <point x="730" y="670" type="line"/>
      <point x="650" y="650" type="line" smooth="yes"/>
      <point x="630" y="645"/>
      <point x="620" y="630"/>
      <point x="620" y="610" type="curve" smooth="yes"/>
      <point x="620" y="90" type="line" smooth="yes"/>
      <point x="620" y="76.0543"/>
      <point x="624.862" y="64.5396"/>
      <point x="634.586" y="57.1511" type="curve" smooth="yes"/>
      <point x="641.802" y="52.0698"/>
      <point x="650.901" y="50"/>
      <point x="660" y="50" type="curve" smooth="yes"/>
      <point x="745" y="50" type="line"/>
      <point x="830" y="50" type="line" smooth="yes"/>
      <point x="854.77" y="50"/>
      <point x="870" y="65.9736"/>
      <point x="870" y="90" type="curve" smooth="yes"/>
      <point x="870" y="610" type="line" smooth="yes"/>
      <point x="870" y="630"/>
      <point x="860" y="645"/>
      <point x="840" y="650" type="curve" smooth="yes"/>
      <point x="760" y="670" type="line"/>
      <point x="760" y="700" type="line"/>
      <point x="1090" y="700" type="line"/>
      <point x="1090" y="670" type="line"/>
      <point x="1010" y="650" type="line" smooth="yes"/>
      <point x="990" y="645"/>
      <point x="980" y="630"/>
      <point x="980" y="610" type="curve" smooth="yes"/>
      <point x="980" y="90" type="line" smooth="yes"/>
      <point x="980" y="70"/>
      <point x="990" y="55"/>
      <point x="1010" y="50" type="curve" smooth="yes"/>
    </contour>
  </outline>
</glyph>
<glyph name="uni042C" format="2">
  <advance width="680"/>
  <unicode hex="042C"/>
  <outline>
    <contour>
      <point x="150" y="610" type="line" smooth="yes"/>
      <point x="150" y="630"/>
      <point x="140" y="645"/>
      <point x="120" y="650" type="curve" smooth="yes"/>
      <point x="40" y="670" type="line"/>
      <point x="40" y="700" type="line"/>
      <point x="358" y="700" type="line"/>
      <point x="370" y="700" type="line"/>
      <point x="370" y="670" type="line"/>
      <point x="290" y="650" type="line" smooth="yes"/>
      <point x="270" y="645"/>
      <point x="260" y="630"/>
      <point x="260" y="610" type="curve" smooth="yes"/>
      <point x="260" y="394" type="line"/>
      <point x="350" y="394" type="line" smooth="yes"/>
      <point x="475" y="394"/>
      <point x="640" y="340"/>
      <point x="640" y="200" type="curve" smooth="yes"/>
      <point x="640" y="70"/>
      <point x="580" y="0"/>
      <point x="390" y="0" type="curve" smooth="yes"/>
      <point x="40" y="0" type="line"/>
      <point x="40" y="30" type="line"/>
      <point x="120" y="50" type="line" smooth="yes"/>
      <point x="140" y="55"/>
      <point x="150" y="70"/>
      <point x="150" y="90" type="curve" smooth="yes"/>
    </contour>
    <contour>
      <point x="260" y="354" type="line"/>
      <point x="260" y="80" type="line" smooth="yes"/>
      <point x="260" y="50"/>
      <point x="280" y="40"/>
      <point x="300" y="40" type="curve" smooth="yes"/>
      <point x="360" y="40" type="line" smooth="yes"/>
      <point x="450" y="40"/>
      <point x="520" y="100"/>
      <point x="520" y="200" type="curve" smooth="yes"/>
      <point x="520" y="280"/>
      <point x="463" y="354"/>
      <point x="350" y="354" type="curve" smooth="yes"/>
    </contour>
  </outline>
</glyph>
<glyph name="uni042E" format="2">
  <advance width="1159"/>
  <unicode hex="042E"/>
  <outline>
    <contour>
      <point x="769" y="25" type="curve" smooth="yes"/>
      <point x="963.895" y="25"/>
      <point x="999" y="199.18"/>
      <point x="999" y="335" type="curve" smooth="yes"/>
      <point x="999" y="576.824"/>
      <point x="884.711" y="675"/>
      <point x="762" y="675" type="curve" smooth="yes"/>
      <point x="576.79" y="675"/>
      <point x="532" y="493.562"/>
      <point x="532" y="365" type="curve" smooth="yes"/>
      <point x="532" y="115.942"/>
      <point x="646.289" y="25"/>
    </contour>
    <contour>
      <point x="370" y="30" type="line"/>
      <point x="370" y="0" type="line"/>
      <point x="40" y="0" type="line"/>
      <point x="40" y="30" type="line"/>
      <point x="120" y="50" type="line" smooth="yes"/>
      <point x="140" y="55"/>
      <point x="150" y="70"/>
      <point x="150" y="90" type="curve" smooth="yes"/>
      <point x="150" y="610" type="line" smooth="yes"/>
      <point x="150" y="630"/>
      <point x="140" y="645"/>
      <point x="120" y="650" type="curve" smooth="yes"/>
      <point x="40" y="670" type="line"/>
      <point x="40" y="700" type="line"/>
      <point x="370" y="700" type="line"/>
      <point x="370" y="670" type="line"/>
      <point x="290" y="650" type="line" smooth="yes"/>
      <point x="270" y="645"/>
      <point x="260" y="630"/>
      <point x="260" y="610" type="curve" smooth="yes"/>
      <point x="260" y="380" type="line"/>
      <point x="413.49" y="380" type="line"/>
      <point x="428.969" y="570.188"/>
      <point x="564.16" y="715"/>
      <point x="776" y="715" type="curve" smooth="yes"/>
      <point x="950.491" y="715"/>
      <point x="1119" y="600.244"/>
      <point x="1119" y="357" type="curve" smooth="yes"/>
      <point x="1119" y="127.322"/>
      <point x="973.4" y="-15"/>
      <point x="755" y="-15" type="curve" smooth="yes"/>
      <point x="589.335" y="-15"/>
      <point x="415.869" y="97.239"/>
      <point x="412.064" y="335" type="curve"/>
      <point x="260" y="335" type="line"/>
      <point x="260" y="90" type="line" smooth="yes"/>
      <point x="260" y="70"/>
      <point x="270" y="55"/>
      <point x="290" y="50" type="curve" smooth="yes"/>
    </contour>
  </outline>
</glyph>
<glyph name="uni0430" format="2">
  <advance width="510"/>
  <unicode hex="0430"/>
  <outline>
    <contour>
      <point x="411" y="-15" type="curve" smooth="yes"/>
      <point x="361" y="-15"/>
      <point x="321" y="5"/>
      <point x="311" y="55" type="curve"/>
      <point x="281" y="5"/>
      <point x="241" y="-20"/>
      <point x="181" y="-20" type="curve" smooth="yes"/>
      <point x="101" y="-20"/>
      <point x="41" y="40"/>
      <point x="41" y="120" type="curve" smooth="yes"/>
      <point x="41" y="220"/>
      <point x="161" y="250"/>
      <point x="311" y="300" type="curve"/>
      <point x="311" y="395" type="line" smooth="yes"/>
      <point x="311" y="445"/>
      <point x="276" y="465"/>
      <point x="236" y="465" type="curve" smooth="yes"/>
      <point x="195.586" y="465"/>
      <point x="158.882" y="448.67"/>
      <point x="158.882" y="416" type="curve" smooth="yes"/>
      <point x="158.882" y="408"/>
      <point x="161.207" y="399.586"/>
      <point x="166" y="390" type="curve" smooth="yes"/>
      <point x="181" y="360" type="line"/>
      <point x="161" y="340"/>
      <point x="131" y="330"/>
      <point x="111" y="330" type="curve" smooth="yes"/>
      <point x="81" y="330"/>
      <point x="71" y="360"/>
      <point x="71" y="390" type="curve" smooth="yes"/>
      <point x="71" y="430"/>
      <point x="121" y="500"/>
      <point x="261" y="500" type="curve" smooth="yes"/>
      <point x="381" y="500"/>
      <point x="411" y="430"/>
      <point x="411" y="370" type="curve" smooth="yes"/>
      <point x="411" y="90" type="line" smooth="yes"/>
      <point x="411" y="60"/>
      <point x="431" y="45"/>
      <point x="446" y="45" type="curve" smooth="yes"/>
      <point x="461" y="45"/>
      <point x="481" y="50"/>
      <point x="491" y="60" type="curve"/>
      <point x="511" y="40" type="line"/>
      <point x="491" y="10"/>
      <point x="461" y="-15"/>
    </contour>
    <contour>
      <point x="311" y="150" type="curve" smooth="yes"/>
      <point x="311" y="265" type="line"/>
      <point x="181" y="215"/>
      <point x="146" y="190"/>
      <point x="146" y="130" type="curve" smooth="yes"/>
      <point x="146" y="90"/>
      <point x="171" y="50"/>
      <point x="231" y="50" type="curve" smooth="yes"/>
      <point x="286" y="50"/>
      <point x="311" y="90"/>
    </contour>
  </outline>
</glyph>
